<svg width="106" height="50" viewBox="0 0 106 50" fill="none" xmlns="http://www.w3.org/2000/svg">
<path d="M3.53384 38.1646C2.57142 37.2015 1.60898 36.2386 0.646558 35.2756C0.26049 34.8893 0.202494 34.1949 0.385564 33.7058C0.575297 33.199 1.0409 32.7896 1.5776 32.7056C2.24951 32.6003 2.91829 32.4709 3.58518 32.338C5.24807 32.0067 6.90123 31.6236 8.54054 31.1888C9.64525 30.8959 10.7432 30.5774 11.8329 30.2318C14.2306 29.4536 16.5994 28.5416 18.8306 27.3566C19.3725 27.0687 19.9044 26.7624 20.4247 26.4367C20.7615 26.2164 21.0934 25.9886 21.4164 25.748C21.7524 25.4977 22.1386 25.3489 22.5634 25.3879C22.9465 25.4231 23.3883 25.6367 23.6255 25.9508C23.8712 26.2762 24.0379 26.6891 23.9808 27.1069C23.9257 27.509 23.7555 27.9298 23.4209 28.179C21.8762 29.3294 20.1796 30.2712 18.4344 31.0717C16.7122 31.8618 14.9338 32.5238 13.1335 33.1073C11.474 33.6451 9.79952 34.1285 8.109 34.5548C13.471 35.4894 18.906 35.9838 24.3495 36.0236C27.4058 36.0459 30.0714 35.9421 33.082 35.6844C36.0665 35.429 39.0397 35.0377 41.9893 34.5105C43.3564 34.2662 44.7204 33.9985 46.0724 33.6788C46.7215 33.5253 47.3677 33.3592 48.0091 33.1758C48.3005 33.0924 48.5909 33.0054 48.88 32.9143C48.9313 32.8971 49.1085 32.8393 49.1466 32.8265C49.3226 32.767 49.4982 32.7058 49.6733 32.6429C50.6488 32.2927 51.6059 31.8877 52.5296 31.4152C51.9851 31.1567 51.4499 30.8648 50.9265 30.5331C48.7803 29.1732 46.9223 27.1522 45.9783 24.7583C45.0663 22.4453 45.0366 19.9233 45.8677 17.5757C46.6537 15.3554 48.2082 13.3912 50.2936 12.2925C52.5798 11.0881 55.3282 11.2356 57.5714 12.4436C59.8794 13.6866 61.6281 15.8576 62.4181 18.3694C63.2515 21.0197 62.8987 23.9522 61.7263 26.4505C61.1505 27.6777 60.4133 28.8232 59.5477 29.8602C59.6444 29.8627 59.7409 29.8664 59.8377 29.8675C60.0368 29.8697 60.2359 29.8691 60.4349 29.8651C60.5203 29.8634 60.6056 29.8613 60.6909 29.8583C60.704 29.8579 60.714 29.8575 60.7239 29.8572C60.7384 29.8563 60.7563 29.8551 60.7824 29.8535C62.2138 29.7689 63.6326 29.546 65.0306 29.2261C67.6594 28.6247 69.9601 27.794 72.5022 26.7344C74.7674 25.7904 76.9787 24.7144 79.1231 23.5168C80.1956 22.9178 81.2498 22.2869 82.2886 21.6303C82.2918 21.6282 82.3223 21.6089 82.3524 21.5898C82.4004 21.5587 82.4905 21.5008 82.5084 21.4892C82.6322 21.4089 82.7556 21.3283 82.8788 21.2471C83.1457 21.0714 83.4114 20.8937 83.6757 20.7141C84.1841 20.3687 84.6878 20.0161 85.1865 19.6566C87.1815 18.2184 89.0973 16.6685 90.9224 15.0165C91.8531 14.1741 92.7602 13.3052 93.6421 12.411C94.0743 11.9726 94.5006 11.5282 94.9205 11.0779C94.9576 11.0381 94.9946 10.9983 95.0317 10.9584C95.0373 10.9523 95.041 10.9482 95.0483 10.9403C95.1479 10.8312 95.2476 10.722 95.3467 10.6124C95.5613 10.3749 95.7744 10.1358 95.9856 9.89508C97.6267 8.02506 99.1624 6.06117 100.58 4.01381C101.268 3.02023 101.927 2.00666 102.559 0.976163C102.991 0.270257 104.112 0.105278 104.748 0.60713C105.453 1.16382 105.573 2.05921 105.11 2.81432C102.33 7.34907 98.9907 11.5151 95.2299 15.261C91.466 19.0104 87.259 22.273 82.7401 25.0424C78.1094 27.8803 73.1204 30.1601 67.9256 31.7184C64.2199 32.8299 60.243 33.3751 56.4899 32.6837C56.4043 32.7443 56.3193 32.8058 56.2325 32.8646C53.7448 34.5504 50.9805 35.6346 48.0982 36.4197C45.2124 37.2056 42.2463 37.7238 39.2901 38.1501C36.178 38.599 33.0449 38.898 29.9052 39.0474C23.5395 39.3503 17.163 39.0907 10.8531 38.1903C9.71534 38.0279 8.58065 37.8446 7.44942 37.6424C9.42882 39.6229 11.408 41.6034 13.3874 43.5842C14.3498 44.5472 15.3123 45.5101 16.2747 46.4732C16.5438 46.7424 16.6635 47.2639 16.6299 47.6293C16.5944 48.0158 16.3819 48.4617 16.0701 48.7014C15.747 48.9498 15.3374 49.1184 14.9231 49.0614C14.4888 49.0017 14.171 48.8087 13.8609 48.4985C10.4187 45.0539 6.97625 41.6092 3.53384 38.1646ZM53.3114 28.2957C53.285 28.2822 53.2742 28.2767 53.3114 28.2957V28.2957ZM59.5463 23.2208C59.5213 23.3199 59.5285 23.3064 59.5463 23.2208V23.2208ZM56.5506 28.5101C56.5843 28.476 56.7112 28.3434 56.739 28.3161C56.9417 28.0934 57.1367 27.8627 57.3244 27.627C57.7127 27.1392 58.0702 26.6261 58.3898 26.0898C58.4512 25.9867 58.51 25.8822 58.5687 25.7776C58.5747 25.7639 58.6693 25.5883 58.6946 25.5367C58.8359 25.2491 58.9662 24.9557 59.0843 24.6576C59.1928 24.3838 59.2911 24.1059 59.3782 23.8244C59.4216 23.6841 59.4623 23.543 59.5001 23.4009C59.5162 23.3406 59.5311 23.28 59.5465 23.2196C59.5494 23.2054 59.5526 23.1895 59.556 23.1718C59.6753 22.5449 59.749 21.9127 59.7526 21.274C59.7531 21.2056 59.7446 21.0062 59.7469 21.0042C59.7396 20.8998 59.7328 20.7952 59.7214 20.6911C59.6905 20.4035 59.6428 20.1179 59.5804 19.8357C59.5516 19.7051 59.5194 19.5756 59.4843 19.4466C59.4736 19.4072 59.462 19.368 59.4507 19.3287C59.4503 19.3275 59.4502 19.3274 59.4496 19.3262C59.3428 19.0557 59.2478 18.7829 59.1261 18.5181C59.0141 18.2744 58.8909 18.0357 58.7575 17.8033C58.7041 17.7103 58.5391 17.4673 58.692 17.6878C58.603 17.5593 58.5172 17.4291 58.4248 17.3031C58.2671 17.0876 58.0999 16.8793 57.9236 16.679C57.8357 16.5791 57.7458 16.4813 57.6536 16.3855C57.5989 16.3287 57.4206 16.1663 57.4371 16.1767C57.0474 15.8455 56.6475 15.536 56.206 15.2751C56.1753 15.257 56.1443 15.2395 56.1135 15.2219C56.1123 15.2213 56.1115 15.2211 56.1103 15.2205C55.9925 15.169 55.8785 15.1082 55.7604 15.0568C55.486 14.9374 55.2043 14.8354 54.9168 14.7531C54.8766 14.7416 54.8361 14.7309 54.7957 14.7201C54.6811 14.7008 54.5671 14.6776 54.4517 14.6614C54.1742 14.6228 53.8973 14.609 53.6176 14.6027C53.597 14.6022 53.5805 14.6016 53.5667 14.601C53.5533 14.6028 53.537 14.6046 53.5172 14.6068C53.3907 14.6206 53.2644 14.6328 53.1383 14.6519C52.8902 14.6895 52.6522 14.7652 52.4071 14.8115C52.3879 14.8181 52.3687 14.8245 52.3497 14.832C52.243 14.8736 52.1366 14.9145 52.0315 14.9603C51.8041 15.0596 51.5891 15.1781 51.3712 15.2964C51.3566 15.3043 51.345 15.3105 51.3346 15.3159C51.3309 15.3186 51.3285 15.3203 51.3245 15.3233C51.2313 15.3896 51.1374 15.4547 51.0463 15.5238C50.8482 15.6744 50.6583 15.8359 50.4769 16.0064C50.3962 16.0822 50.3211 16.166 50.2393 16.2405C50.223 16.2589 50.2065 16.2772 50.1907 16.2959C50.0281 16.4906 49.87 16.6875 49.7232 16.8947C49.587 17.0871 49.4589 17.2853 49.3391 17.4885C49.3046 17.5468 49.2694 17.6114 49.2512 17.6446C49.1974 17.7523 49.1431 17.8598 49.0933 17.9696C48.8867 18.4252 48.7272 18.8955 48.5904 19.3764C48.5802 19.4125 48.5713 19.4492 48.5623 19.4855C48.5439 19.5846 48.5225 19.6832 48.5055 19.7827C48.462 20.0387 48.4293 20.2965 48.4086 20.5554C48.3895 20.7938 48.3801 21.0332 48.3812 21.2723C48.3812 21.3041 48.3825 21.335 48.384 21.363C48.3827 21.3512 48.3813 21.3394 48.3796 21.3255C48.3831 21.3543 48.3848 21.3832 48.3874 21.4121C48.3882 21.4218 48.389 21.4308 48.3898 21.4387C48.3984 21.5395 48.405 21.6406 48.4166 21.7411C48.4438 21.9778 48.4816 22.2129 48.5306 22.446C48.555 22.5625 48.5824 22.6785 48.6123 22.7936C48.6321 22.8696 48.7052 23.0848 48.6963 23.0673C48.882 23.565 49.0834 24.0495 49.3405 24.5159C49.4019 24.6275 49.468 24.7362 49.5316 24.8465C49.5609 24.8901 49.5897 24.9341 49.6193 24.9775C49.7838 25.2189 49.9586 25.4534 50.1427 25.68C50.3274 25.9075 50.5216 26.1273 50.7236 26.3392C50.8171 26.4374 50.9162 26.5304 51.0096 26.6286C51.0126 26.6317 51.0134 26.6327 51.0162 26.6355C51.0654 26.6804 51.1147 26.7253 51.1647 26.7693C51.5929 27.1463 52.0477 27.4923 52.5228 27.8072C52.7523 27.9593 52.9865 28.1043 53.2248 28.2418C53.2768 28.2719 53.3295 28.301 53.3815 28.3309C53.5144 28.3987 53.6469 28.4673 53.7813 28.5319C54.3003 28.7814 54.8345 28.9985 55.3797 29.1825C55.4912 29.2201 55.6034 29.2557 55.7157 29.2905C55.89 29.139 56.062 28.9848 56.2291 28.8255C56.3378 28.7222 56.445 28.617 56.5506 28.5101Z" fill="black"/>
</svg>
