<svg width="190" height="51" viewBox="0 0 190 51" fill="none" xmlns="http://www.w3.org/2000/svg">
<path d="M25 50.9297C38.8071 50.9297 50 39.7368 50 25.9297C50 12.1226 38.8071 0.929688 25 0.929688C11.1929 0.929688 0 12.1226 0 25.9297C0 39.7368 11.1929 50.9297 25 50.9297Z" fill="#FDF567"/>
<path d="M15.8826 27.5156L9.20807 23.2651C7.60777 22.2459 7.13595 20.1224 8.15518 18.5215L9.49565 16.4163C10.5857 14.7038 12.9454 14.3654 14.4731 15.7018L24.288 24.2861L23.3025 25.8504C21.7169 28.3654 18.39 29.1124 15.8826 27.5156Z" fill="black"/>
<path d="M37.0619 4.02605L21.8965 24.8984L23.2575 25.8873L38.5139 4.89474L37.8011 4.45185L37.0619 4.02605Z" fill="black"/>
<path d="M36.1655 40.7693C36.1655 41.6049 33.099 42.2828 29.3162 42.2828C25.5333 42.2828 22.4668 41.6055 22.4668 40.7693C22.4668 39.9338 25.5333 39.2559 29.3162 39.2559C33.099 39.2564 36.1655 39.9338 36.1655 40.7693Z" fill="black" fill-opacity="0.09"/>
<path d="M29.4009 40.0654C32.3011 40.0654 34.6523 37.7142 34.6523 34.8139C34.6523 31.9136 32.3011 29.5625 29.4009 29.5625C26.5006 29.5625 24.1494 31.9136 24.1494 34.8139C24.1494 37.7142 26.5006 40.0654 29.4009 40.0654Z" fill="white"/>
<path d="M20.6123 8.66797L21.0546 9.96946C21.2347 10.4986 21.6498 10.9143 22.1789 11.0938L23.4804 11.5361L22.1789 11.9784C21.6498 12.1585 21.2341 12.5736 21.0546 13.1027L20.6123 14.4042L20.17 13.1027C19.9899 12.5736 19.5747 12.1579 19.0456 11.9784L17.7441 11.5361L19.0456 11.0938C19.5747 10.9137 19.9904 10.4986 20.17 9.96946L20.6123 8.66797Z" fill="black"/>
<path d="M37.7353 18.3535L38.1776 19.655C38.3577 20.1841 38.7729 20.5998 39.302 20.7793L40.6034 21.2216L39.302 21.6639C38.7729 21.844 38.3571 22.2592 38.1776 22.7883L37.7353 24.0898L37.293 22.7883C37.1129 22.2592 36.6978 21.8435 36.1687 21.6639L34.8672 21.2216L36.1687 20.7793C36.6978 20.5992 37.1135 20.1841 37.293 19.655L37.7353 18.3535Z" fill="black"/>
<path d="M13.2392 31.7803L13.6815 33.0818C13.8616 33.6109 14.2768 34.0266 14.8059 34.2061L16.1073 34.6484L14.8059 35.0907C14.2768 35.2708 13.861 35.6859 13.6815 36.215L13.2392 37.5165L12.7969 36.215C12.6168 35.6859 12.2017 35.2702 11.6726 35.0907L10.3711 34.6484L11.6726 34.2061C12.2017 34.026 12.6174 33.6109 12.7969 33.0818L13.2392 31.7803Z" fill="black"/>
<path d="M77.3232 36.8496C75.2725 36.8496 73.4707 36.4004 71.918 35.502C70.375 34.5938 69.1689 33.3047 68.2998 31.6348C67.4404 29.9551 67.0107 27.9678 67.0107 25.6729C67.0107 23.3096 67.46 21.293 68.3584 19.623C69.2666 17.9434 70.4922 16.6592 72.0352 15.7705C73.5781 14.8818 75.3115 14.4375 77.2354 14.4375C78.4658 14.4375 79.6133 14.6182 80.6777 14.9795C81.7422 15.3311 82.6895 15.8389 83.5195 16.5029C84.3496 17.1572 85.0234 17.9336 85.541 18.832C86.0684 19.7207 86.4053 20.707 86.5518 21.791H81.8789C81.7324 21.2734 81.5225 20.8145 81.249 20.4141C80.9854 20.0039 80.6582 19.6621 80.2676 19.3887C79.877 19.1055 79.4326 18.8906 78.9346 18.7441C78.4463 18.5879 77.9043 18.5098 77.3086 18.5098C76.1953 18.5098 75.2139 18.7881 74.3643 19.3447C73.5244 19.8916 72.8652 20.6973 72.3867 21.7617C71.918 22.8262 71.6836 24.1152 71.6836 25.6289C71.6836 27.1426 71.918 28.4316 72.3867 29.4961C72.8555 30.5605 73.5098 31.376 74.3496 31.9424C75.1992 32.499 76.2002 32.7773 77.3525 32.7773C78.3975 32.7773 79.2861 32.5918 80.0186 32.2207C80.7607 31.8398 81.3271 31.3076 81.7178 30.624C82.1182 29.9404 82.3184 29.1348 82.3184 28.207L83.2559 28.3535H77.6455V24.8818H86.7715V27.6357C86.7715 29.5498 86.3662 31.1953 85.5557 32.5723C84.7451 33.9492 83.627 35.0088 82.2012 35.751C80.7852 36.4834 79.1592 36.8496 77.3232 36.8496ZM99.0908 36.8496C97.1572 36.8496 95.4189 36.4102 93.876 35.5312C92.333 34.6523 91.1123 33.3779 90.2139 31.708C89.3154 30.0381 88.8662 28.0215 88.8662 25.6582C88.8662 23.2754 89.3154 21.249 90.2139 19.5791C91.1123 17.8994 92.333 16.625 93.876 15.7559C95.4189 14.877 97.1572 14.4375 99.0908 14.4375C101.024 14.4375 102.763 14.877 104.306 15.7559C105.849 16.625 107.064 17.8994 107.953 19.5791C108.852 21.249 109.301 23.2754 109.301 25.6582C109.301 28.0312 108.852 30.0527 107.953 31.7227C107.064 33.3926 105.849 34.667 104.306 35.5459C102.763 36.415 101.024 36.8496 99.0908 36.8496ZM99.0908 32.7773C100.214 32.7773 101.19 32.5039 102.021 31.957C102.851 31.4102 103.49 30.6094 103.939 29.5547C104.398 28.4902 104.628 27.1914 104.628 25.6582C104.628 24.1152 104.398 22.8115 103.939 21.7471C103.49 20.6826 102.851 19.877 102.021 19.3301C101.19 18.7832 100.214 18.5098 99.0908 18.5098C97.9775 18.5098 97.0059 18.7832 96.1758 19.3301C95.3457 19.877 94.6963 20.6826 94.2275 21.7471C93.7686 22.8115 93.5391 24.1152 93.5391 25.6582C93.5391 27.1914 93.7686 28.4902 94.2275 29.5547C94.6963 30.6094 95.3457 31.4102 96.1758 31.957C97.0059 32.5039 97.9775 32.7773 99.0908 32.7773ZM111.732 36.5566V14.7305H116.332V32.748H125.692V36.5566H111.732ZM127.787 36.5566V14.7305H142.23V18.5391H132.387V24.5303H141.278V28.2656H132.387V36.5566H127.787ZM144.369 36.5566V14.7305H159.076V18.5391H148.969V23.666H158.314V27.4014H148.969V32.748H159.105V36.5566H144.369ZM166.107 14.7305L170.502 22.1719H170.678L175.087 14.7305H180.302L173.637 25.6582L180.463 36.5566H175.131L170.678 29.1152H170.502L166.02 36.5566H160.746L167.572 25.6582L160.863 14.7305H166.107Z" fill="white"/>
<path d="M185.385 36.835C184.662 36.835 184.052 36.5908 183.554 36.1025C183.056 35.6143 182.807 35.0088 182.807 34.2861C182.807 33.5635 183.056 32.958 183.554 32.4697C184.052 31.9814 184.662 31.7373 185.385 31.7373C186.107 31.7373 186.718 31.9814 187.216 32.4697C187.714 32.958 187.963 33.5635 187.963 34.2861C187.963 35.0088 187.714 35.6143 187.216 36.1025C186.718 36.5908 186.107 36.835 185.385 36.835Z" fill="#FDF567"/>
</svg>
