<svg width="180" height="180" viewBox="0 0 180 180" fill="none" xmlns="http://www.w3.org/2000/svg">
<circle cx="90" cy="90" r="90" fill="#FDF567"/>
<path d="M90 120C106.569 120 120 106.569 120 90C120 73.4315 106.569 60 90 60C73.4315 60 60 73.4315 60 90C60 106.569 73.4315 120 90 120Z" fill="black"/>
<path d="M79.0592 91.9027L71.0497 86.8021C69.1293 85.579 68.5631 83.0308 69.7862 81.1098L71.3948 78.5835C72.7029 76.5286 75.5345 76.1225 77.3677 77.7261L89.1456 88.0273L87.9629 89.9044C86.0603 92.9224 82.068 93.8188 79.0592 91.9027Z" fill="white"/>
<path d="M104.476 63.7149L86.2773 88.7617L87.9106 89.9484L106.218 64.7573L105.363 64.2258L104.476 63.7149Z" fill="white"/>
<path d="M103.399 107.808C103.399 108.811 99.7196 109.625 95.1802 109.625C90.6408 109.625 86.9609 108.812 86.9609 107.808C86.9609 106.806 90.6408 105.992 95.1802 105.992C99.7196 105.993 103.399 106.806 103.399 107.808Z" fill="white" fill-opacity="0.09"/>
<path d="M95.2802 106.963C98.7606 106.963 101.582 104.141 101.582 100.661C101.582 97.1808 98.7606 94.3594 95.2802 94.3594C91.7999 94.3594 88.9785 97.1808 88.9785 100.661C88.9785 104.141 91.7999 106.963 95.2802 106.963Z" fill="white"/>
<path d="M84.7347 69.2852L85.2655 70.8469C85.4816 71.4819 85.9798 71.9807 86.6147 72.1962L88.1765 72.7269L86.6147 73.2577C85.9798 73.4738 85.4809 73.9719 85.2655 74.6069L84.7347 76.1687L84.204 74.6069C83.9878 73.9719 83.4897 73.4731 82.8548 73.2577L81.293 72.7269L82.8548 72.1962C83.4897 71.98 83.9885 71.4819 84.204 70.8469L84.7347 69.2852Z" fill="#FDF567"/>
<path d="M105.282 80.9102L105.812 82.4719C106.028 83.1069 106.527 83.6057 107.162 83.8212L108.723 84.3519L107.162 84.8827C106.527 85.0988 106.028 85.5969 105.812 86.2319L105.282 87.7937L104.751 86.2319C104.535 85.5969 104.037 85.0981 103.402 84.8827L101.84 84.3519L103.402 83.8212C104.037 83.605 104.535 83.1069 104.751 82.4719L105.282 80.9102Z" fill="#FDF567"/>
<path d="M75.8871 97.0195L76.4178 98.5813C76.6339 99.2162 77.1321 99.7151 77.767 99.9305L79.3288 100.461L77.767 100.992C77.1321 101.208 76.6332 101.706 76.4178 102.341L75.8871 103.903L75.3563 102.341C75.1402 101.706 74.642 101.207 74.0071 100.992L72.4453 100.461L74.0071 99.9305C74.642 99.7144 75.1409 99.2162 75.3563 98.5813L75.8871 97.0195Z" fill="#FDF567"/>
<path d="M95.6295 25.7745C94.6353 25.6876 93.7809 25.3935 93.0663 24.8921C92.3568 24.3865 91.8267 23.7104 91.4762 22.8641C91.1308 22.0134 91.0067 21.0318 91.1039 19.9193C91.2041 18.7736 91.5073 17.815 92.0136 17.0436C92.5251 16.2678 93.1736 15.6972 93.9593 15.3318C94.7449 14.9664 95.6041 14.8244 96.5367 14.906C97.1332 14.9581 97.6818 15.0943 98.1825 15.3146C98.6836 15.5301 99.1213 15.8165 99.4956 16.1736C99.8702 16.5259 100.164 16.9308 100.377 17.3883C100.595 17.8415 100.716 18.3339 100.741 18.8656L98.4761 18.6675C98.4271 18.4104 98.3447 18.179 98.2291 17.9733C98.1187 17.7633 97.9746 17.5838 97.7968 17.4347C97.6195 17.2808 97.4132 17.1578 97.1779 17.0657C96.9478 16.9693 96.6884 16.9084 96.3996 16.8832C95.8599 16.836 95.3724 16.9293 94.9369 17.1632C94.5066 17.3927 94.1529 17.7553 93.8758 18.2511C93.6035 18.7472 93.4352 19.3622 93.3711 20.096C93.3069 20.8298 93.3659 21.4646 93.548 22.0005C93.7302 22.5364 94.0128 22.9594 94.3959 23.2696C94.7842 23.5754 95.2577 23.7528 95.8163 23.8016C96.3228 23.8459 96.7615 23.7936 97.1323 23.6447C97.5082 23.4916 97.8054 23.2576 98.0237 22.9427C98.2468 22.6283 98.378 22.2462 98.4173 21.7965L98.8655 21.9072L96.1458 21.6695L96.2929 19.9865L100.717 20.3732L100.6 21.7083C100.519 22.6361 100.253 23.4167 99.8016 24.0498C99.3504 24.683 98.7634 25.1493 98.0408 25.4486C97.3233 25.7437 96.5195 25.8523 95.6295 25.7745Z" fill="black"/>
<path d="M105.454 27.4278C104.66 27.2314 104.015 26.9004 103.519 26.4347C103.022 25.9691 102.693 25.4005 102.531 24.7289C102.375 24.0539 102.398 23.3081 102.6 22.4916C102.796 21.6982 103.121 21.0393 103.574 20.515C104.031 19.9918 104.581 19.6309 105.222 19.4323C105.868 19.2349 106.57 19.2298 107.326 19.417C107.838 19.5438 108.295 19.745 108.697 20.0206C109.1 20.2917 109.427 20.6321 109.678 21.0418C109.93 21.4469 110.087 21.9191 110.15 22.4584C110.213 22.993 110.163 23.5902 110 24.2498L109.856 24.8311L103.324 23.2143L103.651 21.8927L109.145 23.2526L108.063 23.3519C108.16 22.9598 108.185 22.6036 108.137 22.2833C108.089 21.963 107.964 21.6947 107.763 21.4785C107.568 21.2588 107.295 21.1056 106.945 21.0188C106.594 20.9321 106.276 20.9391 105.992 21.0401C105.712 21.1422 105.473 21.3156 105.276 21.5604C105.078 21.8052 104.935 22.1075 104.846 22.4674L104.614 23.4015C104.511 23.8213 104.495 24.1993 104.569 24.5357C104.643 24.8675 104.792 25.1466 105.015 25.3732C105.244 25.5962 105.531 25.7506 105.877 25.8362C106.117 25.8956 106.342 25.9147 106.553 25.8934C106.764 25.8722 106.955 25.8118 107.127 25.7123C107.303 25.6139 107.449 25.4787 107.565 25.3067L109.511 25.928C109.297 26.3791 108.991 26.7441 108.594 27.0228C108.203 27.298 107.741 27.4749 107.207 27.5533C106.675 27.6272 106.09 27.5853 105.454 27.4278Z" fill="black"/>
<path d="M117.141 22.6532L116.569 24.22L112.063 22.5745L112.635 21.0076L117.141 22.6532ZM114.31 19.6007L116.379 20.3562L113.836 27.3198C113.744 27.5698 113.733 27.7754 113.8 27.9367C113.869 28.0935 114.027 28.2167 114.272 28.3064C114.353 28.3357 114.444 28.3616 114.547 28.3841C114.651 28.4066 114.741 28.4219 114.819 28.4302L114.58 30.1034C114.328 30.0872 114.089 30.0556 113.863 30.0086C113.642 29.9633 113.429 29.9031 113.223 29.8281C112.478 29.5559 111.97 29.1604 111.699 28.6415C111.429 28.1182 111.419 27.5173 111.666 26.8388L114.31 19.6007Z" fill="black"/>
<path d="M124.893 23.1172L127.241 24.592L125.921 32.1889L126.023 32.2533L132.299 27.7691L134.653 29.2477L129.004 38.242L127.145 37.0742L130.823 31.2189L130.75 31.1734L124.763 35.5193L123.508 34.7307L124.848 27.4497L124.776 27.4042L121.091 33.2716L119.244 32.1114L124.893 23.1172Z" fill="black"/>
<path d="M133.131 42.1676C132.524 41.62 132.112 41.0238 131.894 40.3788C131.676 39.7339 131.654 39.0772 131.828 38.4088C132.009 37.74 132.381 37.0934 132.945 36.469C133.492 35.8621 134.09 35.4345 134.736 35.186C135.387 34.9406 136.041 34.8818 136.701 35.0095C137.363 35.1403 137.984 35.4668 138.563 35.989C138.954 36.3424 139.262 36.7354 139.486 37.168C139.714 37.5972 139.841 38.0516 139.869 38.5313C139.9 39.0075 139.816 39.498 139.617 40.0029C139.42 40.5042 139.094 41.0071 138.639 41.5116L138.238 41.9561L133.242 37.448L134.154 36.4372L138.356 40.229L137.356 39.8059C137.626 39.506 137.816 39.2036 137.925 38.8985C138.034 38.5935 138.05 38.2982 137.975 38.0127C137.907 37.7269 137.738 37.463 137.47 37.221C137.202 36.979 136.919 36.8354 136.62 36.7902C136.326 36.7481 136.033 36.7883 135.743 36.9109C135.454 37.0334 135.184 37.2323 134.936 37.5074L134.291 38.2219C134.002 38.5429 133.81 38.8691 133.716 39.2003C133.625 39.5279 133.624 39.8442 133.714 40.1492C133.81 40.4538 133.991 40.7255 134.255 40.9643C134.439 41.1298 134.629 41.253 134.825 41.3338C135.02 41.4146 135.218 41.4516 135.416 41.4448C135.617 41.4412 135.81 41.3909 135.993 41.294L137.416 42.7604C137.014 43.0569 136.572 43.2344 136.091 43.2927C135.616 43.3507 135.125 43.2884 134.618 43.1058C134.114 42.9197 133.618 42.607 133.131 42.1676Z" fill="black"/>
<path d="M137.201 45.5813L143.463 40.6516L144.755 42.2926L143.64 43.1701L143.702 43.2485C144.174 43.0882 144.637 43.0773 145.091 43.2159C145.545 43.3546 145.938 43.6348 146.27 44.0568C146.608 44.4862 146.787 44.9355 146.805 45.4047C146.831 45.8747 146.7 46.3041 146.413 46.693L146.466 46.7602C146.929 46.602 147.4 46.6057 147.881 46.7713C148.362 46.9368 148.782 47.2474 149.141 47.7029C149.6 48.2854 149.788 48.9051 149.706 49.562C149.628 50.2227 149.249 50.8206 148.569 51.3556L144.357 54.6714L142.99 52.9352L146.855 49.8927C147.206 49.6164 147.394 49.3173 147.419 48.9953C147.446 48.6772 147.351 48.3799 147.134 48.1036C146.887 47.79 146.592 47.6229 146.249 47.6024C145.913 47.5827 145.583 47.7007 145.258 47.9565L141.438 50.9637L140.115 49.2834L144.025 46.2057C144.327 45.9676 144.499 45.6902 144.54 45.3736C144.585 45.0541 144.496 44.7524 144.272 44.4687C144.119 44.2745 143.934 44.1391 143.717 44.0624C143.499 43.9858 143.269 43.9702 143.027 44.0158C142.788 44.0585 142.551 44.1724 142.316 44.3576L138.563 47.3119L137.201 45.5813Z" fill="black"/>
<path d="M147.146 60.1922C146.943 59.8154 146.834 59.4615 146.818 59.1303C146.802 58.799 146.843 58.4991 146.941 58.2304C147.046 57.9637 147.17 57.7326 147.313 57.537L147.266 57.4491L146.142 58.053L145.116 56.1441L154.473 51.1172L155.515 53.0575L151.992 54.9502L152.023 55.0067C152.263 54.9911 152.525 55.0121 152.809 55.0697C153.094 55.1272 153.372 55.253 153.643 55.447C153.919 55.6388 154.161 55.9293 154.37 56.3186C154.647 56.8335 154.766 57.3765 154.728 57.9474C154.696 58.5203 154.481 59.0804 154.085 59.6279C153.689 60.1753 153.088 60.665 152.285 61.0968C151.506 61.5152 150.779 61.7438 150.104 61.7828C149.434 61.8195 148.844 61.6965 148.336 61.4138C147.83 61.1352 147.434 60.728 147.146 60.1922ZM148.36 58.7469C148.531 59.065 148.763 59.2857 149.055 59.4089C149.348 59.5322 149.68 59.5671 150.05 59.5136C150.425 59.458 150.815 59.3211 151.222 59.1029C151.628 58.8847 151.953 58.637 152.198 58.3598C152.449 58.0845 152.604 57.7908 152.663 57.4787C152.722 57.1665 152.665 56.8493 152.492 56.5269C152.323 56.213 152.093 55.9912 151.802 55.8615C151.518 55.7338 151.189 55.6945 150.817 55.7438C150.45 55.7949 150.058 55.933 149.639 56.1579C149.225 56.3806 148.894 56.6337 148.647 56.9174C148.401 57.201 148.248 57.4989 148.189 57.8111C148.136 58.1252 148.193 58.4371 148.36 58.7469Z" fill="black"/>
<path d="M150.498 67.8412C150.216 67.074 150.129 66.3543 150.236 65.682C150.343 65.0096 150.63 64.4183 151.095 63.9079C151.567 63.4003 152.197 63.0013 152.987 62.711C153.754 62.4289 154.481 62.3285 155.169 62.4096C155.859 62.4952 156.466 62.748 156.99 63.168C157.516 63.5924 157.913 64.1703 158.182 64.9018C158.364 65.3969 158.454 65.888 158.45 66.3753C158.452 66.8608 158.353 67.3224 158.155 67.76C157.96 68.1959 157.658 68.5909 157.246 68.9448C156.839 69.297 156.316 69.5904 155.678 69.825L155.116 70.0316L152.794 63.716L154.072 63.2461L156.025 68.5582L155.336 67.7178C155.716 67.5784 156.024 67.399 156.263 67.1797C156.501 66.9604 156.653 66.707 156.72 66.4193C156.792 66.1344 156.766 65.8225 156.641 65.4835C156.517 65.1445 156.333 64.8855 156.09 64.7065C155.849 64.532 155.571 64.4315 155.258 64.405C154.944 64.3786 154.613 64.4293 154.265 64.5572L153.362 64.8893C152.956 65.0386 152.635 65.2379 152.397 65.4872C152.164 65.7349 152.017 66.0146 151.954 66.3262C151.897 66.6407 151.931 66.9651 152.054 67.2996C152.139 67.5316 152.249 67.7289 152.385 67.8916C152.521 68.0544 152.678 68.1788 152.857 68.2651C153.037 68.3558 153.231 68.401 153.438 68.4006L154.015 70.3608C153.521 70.4361 153.047 70.3874 152.594 70.2149C152.147 70.0451 151.741 69.7614 151.377 69.3636C151.018 68.9642 150.725 68.4567 150.498 67.8412Z" fill="black"/>
<path d="M152.261 72.6857L160.004 70.7988L160.508 72.8695L159.151 73.2003L159.171 73.2834C159.686 73.3095 160.106 73.459 160.432 73.7318C160.763 74.0034 160.98 74.354 161.085 74.7833C161.112 74.8942 161.133 75.0113 161.148 75.1347C161.169 75.2616 161.178 75.3769 161.174 75.4806L159.276 75.9431C159.284 75.8336 159.275 75.6866 159.249 75.502C159.23 75.321 159.201 75.1542 159.164 75.0019C159.089 74.6925 158.952 74.4301 158.752 74.2145C158.558 73.9978 158.321 73.8477 158.041 73.7642C157.767 73.6842 157.473 73.6825 157.159 73.759L152.782 74.8257L152.261 72.6857Z" fill="black"/>
<path d="M160.119 84.0607L159.732 82.0774C159.974 81.9921 160.17 81.8245 160.319 81.5744C160.472 81.3238 160.523 81.0076 160.472 80.6261C160.427 80.287 160.318 80.0115 160.146 79.7996C159.974 79.5925 159.771 79.5046 159.535 79.5362C159.347 79.5614 159.194 79.6562 159.077 79.8205C158.965 79.9889 158.896 80.2594 158.869 80.6322L158.779 82.1043C158.726 82.8929 158.551 83.4989 158.253 83.9224C157.954 84.3458 157.52 84.5957 156.951 84.6721C156.428 84.7421 155.951 84.6525 155.519 84.4034C155.093 84.1537 154.733 83.7799 154.441 83.282C154.154 82.7835 153.965 82.1927 153.873 81.5097C153.733 80.4641 153.841 79.6011 154.195 78.9207C154.551 78.245 155.096 77.8052 155.831 77.6013L156.231 79.7269C155.92 79.8405 155.699 80.0331 155.567 80.3048C155.436 80.5765 155.396 80.9078 155.449 81.2988C155.5 81.6803 155.617 81.9787 155.799 82.194C155.982 82.4141 156.189 82.5086 156.419 82.4777C156.81 82.4254 157.029 82.0509 157.074 81.3544L157.174 79.953C157.227 79.1644 157.417 78.5565 157.743 78.1292C158.069 77.7019 158.527 77.4489 159.116 77.3701C159.624 77.3019 160.081 77.3822 160.486 77.6109C160.89 77.8396 161.225 78.1904 161.489 78.6632C161.755 79.1407 161.933 79.7162 162.023 80.3897C162.156 81.3883 162.05 82.2009 161.702 82.8276C161.36 83.4584 160.832 83.8694 160.119 84.0607Z" fill="black"/>
<path d="M159.198 88.4671L154.593 88.4782L154.588 86.2756L165.209 86.25L165.214 88.3813L161.144 88.3912L161.144 88.4909C161.615 88.6704 161.986 88.9594 162.258 89.3579C162.53 89.7612 162.667 90.2646 162.668 90.8681C162.67 91.4194 162.549 91.902 162.308 92.316C162.072 92.73 161.73 93.0516 161.284 93.2808C160.838 93.5148 160.301 93.6325 159.674 93.634L154.606 93.6462L154.6 91.4364L159.276 91.4252C159.766 91.424 160.148 91.2971 160.423 91.0446C160.698 90.7968 160.835 90.4472 160.834 89.9958C160.833 89.6916 160.766 89.4257 160.633 89.1979C160.504 88.9701 160.318 88.79 160.075 88.6575C159.833 88.5298 159.54 88.4663 159.198 88.4671Z" fill="black"/>
<path d="M154.408 95.2067L162.341 95.9633L162.132 98.156L154.199 97.3994L154.408 95.2067ZM163.252 97.1529C163.283 96.8265 163.418 96.5577 163.658 96.3467C163.898 96.1356 164.171 96.0448 164.479 96.0741C164.786 96.1034 165.036 96.2442 165.226 96.4963C165.422 96.7488 165.504 97.0383 165.473 97.3647C165.441 97.6959 165.306 97.967 165.066 98.178C164.831 98.3895 164.56 98.4806 164.252 98.4513C163.945 98.422 163.693 98.281 163.498 98.0285C163.302 97.7759 163.22 97.484 163.252 97.1529Z" fill="black"/>
<path d="M151.191 98.3563L161.933 100.473L161.514 102.599L160.193 102.339L160.173 102.436C160.368 102.577 160.558 102.759 160.741 102.984C160.924 103.209 161.059 103.483 161.146 103.805C161.237 104.128 161.24 104.507 161.155 104.94C161.042 105.514 160.789 106.009 160.397 106.426C160.009 106.848 159.488 107.145 158.834 107.316C158.18 107.488 157.406 107.486 156.511 107.309C155.643 107.138 154.937 106.854 154.39 106.455C153.849 106.058 153.471 105.589 153.258 105.048C153.044 104.512 152.996 103.945 153.113 103.349C153.196 102.929 153.336 102.586 153.534 102.32C153.732 102.054 153.954 101.848 154.2 101.703C154.451 101.563 154.693 101.463 154.928 101.403L154.94 101.34L150.765 100.517L151.191 98.3563ZM154.969 103.002C154.899 103.357 154.938 103.674 155.086 103.955C155.234 104.236 155.468 104.474 155.789 104.668C156.114 104.862 156.502 105.004 156.954 105.093C157.407 105.183 157.815 105.198 158.181 105.139C158.549 105.086 158.856 104.957 159.099 104.753C159.343 104.549 159.5 104.268 159.571 103.909C159.64 103.559 159.603 103.242 159.46 102.957C159.322 102.678 159.093 102.439 158.773 102.241C158.458 102.048 158.067 101.905 157.601 101.813C157.139 101.722 156.723 101.708 156.352 101.771C155.981 101.833 155.674 101.967 155.431 102.17C155.191 102.38 155.037 102.657 154.969 103.002Z" fill="black"/>
<path d="M154.18 116.178L155.986 117.071L155.586 115.093L156.975 114.904L157.1 116.915L158.609 115.58L159.472 116.701L157.791 117.818L159.7 118.462L159.169 119.746L157.36 118.859L157.76 120.837L156.36 121.014L156.233 119.01L154.727 120.338L153.874 119.229L155.556 118.112L153.649 117.462L154.18 116.178Z" fill="black"/>
<path d="M143.001 126.834C143.568 126.013 144.247 125.416 145.036 125.043C145.826 124.676 146.676 124.55 147.585 124.664C148.495 124.785 149.41 125.163 150.328 125.798C151.275 126.452 151.958 127.189 152.377 128.011C152.799 128.839 152.974 129.685 152.902 130.549C152.831 131.412 152.53 132.229 151.997 132.999C151.657 133.492 151.267 133.901 150.828 134.227C150.393 134.556 149.927 134.795 149.432 134.944C148.94 135.095 148.443 135.15 147.94 135.108C147.439 135.074 146.95 134.936 146.476 134.694L147.769 132.824C148.017 132.908 148.258 132.951 148.494 132.953C148.731 132.961 148.959 132.924 149.176 132.843C149.398 132.765 149.607 132.647 149.803 132.488C150.001 132.336 150.182 132.14 150.347 131.902C150.655 131.456 150.815 130.986 150.827 130.492C150.841 130.005 150.701 129.518 150.407 129.032C150.11 128.55 149.659 128.099 149.053 127.681C148.447 127.262 147.866 126.999 147.311 126.892C146.755 126.785 146.247 126.822 145.788 127.001C145.33 127.187 144.942 127.511 144.623 127.972C144.334 128.391 144.162 128.798 144.108 129.193C144.055 129.596 144.112 129.97 144.277 130.315C144.44 130.665 144.707 130.968 145.079 131.225L144.761 131.559L146.313 129.313L147.703 130.274L145.178 133.927L144.075 133.165C143.309 132.636 142.763 132.018 142.436 131.313C142.109 130.607 141.994 129.867 142.091 129.09C142.19 128.321 142.493 127.569 143.001 126.834Z" fill="black"/>
<path d="M136.682 134.578C137.245 133.986 137.852 133.589 138.502 133.387C139.152 133.185 139.809 133.18 140.473 133.372C141.137 133.57 141.774 133.958 142.384 134.538C142.976 135.1 143.389 135.708 143.621 136.361C143.849 137.018 143.891 137.674 143.747 138.329C143.599 138.989 143.257 139.601 142.72 140.166C142.357 140.548 141.956 140.846 141.518 141.059C141.083 141.275 140.626 141.391 140.145 141.407C139.669 141.426 139.18 141.329 138.681 141.117C138.185 140.908 137.69 140.569 137.197 140.101L136.763 139.689L141.397 134.81L142.385 135.748L138.487 139.851L138.935 138.862C139.228 139.14 139.526 139.337 139.828 139.454C140.13 139.57 140.425 139.595 140.712 139.527C141 139.466 141.268 139.304 141.516 139.042C141.765 138.78 141.916 138.501 141.969 138.204C142.018 137.91 141.986 137.617 141.871 137.324C141.755 137.031 141.564 136.757 141.295 136.502L140.597 135.839C140.283 135.541 139.962 135.341 139.634 135.239C139.308 135.139 138.992 135.131 138.685 135.213C138.378 135.301 138.102 135.475 137.856 135.733C137.686 135.912 137.558 136.099 137.472 136.293C137.387 136.486 137.345 136.682 137.346 136.881C137.345 137.082 137.39 137.276 137.482 137.462L135.98 138.847C135.694 138.438 135.528 137.991 135.482 137.509C135.436 137.032 135.511 136.543 135.706 136.041C135.905 135.541 136.23 135.054 136.682 134.578Z" fill="black"/>
<path d="M135.081 147.092L134 145.822L137.652 142.712L138.734 143.982L135.081 147.092ZM139.132 146.133L137.455 147.561L132.65 141.916C132.477 141.713 132.304 141.601 132.13 141.581C131.96 141.564 131.775 141.64 131.576 141.809C131.511 141.865 131.443 141.932 131.373 142.01C131.302 142.089 131.244 142.16 131.199 142.224L129.861 141.191C129.999 140.98 130.144 140.788 130.297 140.614C130.445 140.444 130.603 140.288 130.769 140.147C131.373 139.632 131.968 139.385 132.553 139.405C133.141 139.429 133.669 139.715 134.137 140.265L139.132 146.133Z" fill="black"/>
<path d="M130.871 153.605L128.432 154.925L122.467 150.039L122.36 150.096L123.178 157.766L120.732 159.089L115.68 149.746L117.611 148.702L120.9 154.784L120.976 154.743L120.137 147.393L121.441 146.688L127.121 151.436L127.196 151.395L123.9 145.301L125.818 144.263L130.871 153.605Z" fill="black"/>
<path d="M110.235 151.399C111.01 151.141 111.733 151.076 112.401 151.205C113.07 151.333 113.652 151.638 114.147 152.119C114.64 152.606 115.019 153.249 115.284 154.047C115.542 154.823 115.62 155.553 115.517 156.239C115.41 156.925 115.138 157.524 114.702 158.034C114.261 158.547 113.671 158.925 112.931 159.171C112.431 159.338 111.937 159.412 111.45 159.393C110.965 159.379 110.506 159.266 110.075 159.054C109.646 158.846 109.261 158.531 108.92 158.109C108.58 157.691 108.304 157.159 108.089 156.514L107.9 155.946L114.286 153.823L114.715 155.115L109.344 156.901L110.206 156.239C110.334 156.622 110.503 156.936 110.715 157.181C110.926 157.427 111.175 157.587 111.461 157.662C111.743 157.744 112.056 157.727 112.398 157.613C112.741 157.499 113.006 157.324 113.192 157.086C113.374 156.851 113.483 156.577 113.52 156.264C113.556 155.951 113.516 155.619 113.399 155.268L113.095 154.354C112.959 153.944 112.77 153.616 112.528 153.371C112.288 153.13 112.013 152.974 111.703 152.902C111.391 152.835 111.065 152.858 110.727 152.971C110.493 153.049 110.292 153.153 110.125 153.284C109.958 153.414 109.829 153.567 109.737 153.743C109.641 153.92 109.589 154.113 109.583 154.32L107.606 154.835C107.546 154.339 107.61 153.867 107.796 153.419C107.98 152.977 108.276 152.581 108.685 152.23C109.096 151.883 109.612 151.606 110.235 151.399Z" fill="black"/>
<path d="M105.254 153.255L106.438 161.136L104.373 161.446L104.162 160.043L104.063 160.058C103.969 160.548 103.749 160.956 103.404 161.282C103.059 161.608 102.621 161.81 102.09 161.89C101.549 161.972 101.071 161.904 100.654 161.688C100.233 161.477 99.9243 161.151 99.7282 160.71L99.6436 160.723C99.5523 161.203 99.3157 161.611 98.9338 161.947C98.5518 162.283 98.0741 162.494 97.5008 162.58C96.7677 162.69 96.1359 162.547 95.6055 162.151C95.0703 161.756 94.7384 161.131 94.6098 160.276L93.8129 154.975L95.9982 154.646L96.7293 159.51C96.7957 159.952 96.9627 160.263 97.2301 160.444C97.4929 160.625 97.7982 160.69 98.1459 160.638C98.5407 160.579 98.8318 160.405 99.0192 160.117C99.2026 159.835 99.2636 159.489 99.2021 159.081L98.4794 154.273L100.594 153.955L101.334 158.876C101.391 159.256 101.547 159.543 101.802 159.735C102.057 159.932 102.364 160.004 102.721 159.95C102.965 159.913 103.174 159.819 103.349 159.668C103.523 159.517 103.65 159.325 103.731 159.092C103.812 158.863 103.83 158.601 103.785 158.305L103.075 153.582L105.254 153.255Z" fill="black"/>
<path d="M87.5516 154.666C87.9792 154.677 88.3409 154.757 88.6366 154.907C88.9324 155.056 89.1727 155.241 89.3575 155.459C89.5374 155.682 89.6769 155.904 89.7761 156.125L89.8758 156.128L89.9072 154.852L92.0735 154.906L91.8125 165.523L89.6105 165.469L89.7088 161.472L89.6447 161.47C89.5395 161.686 89.3916 161.903 89.2008 162.122C89.0101 162.341 88.7632 162.52 88.4603 162.66C88.1573 162.805 87.7848 162.872 87.343 162.861C86.7587 162.847 86.2279 162.681 85.7508 162.365C85.2689 162.054 84.8881 161.591 84.6085 160.975C84.3289 160.36 84.2003 159.596 84.2227 158.684C84.2445 157.801 84.4054 157.056 84.7055 156.45C85.0055 155.849 85.404 155.398 85.901 155.096C86.3933 154.794 86.9435 154.651 87.5516 154.666ZM88.2069 156.436C87.8458 156.427 87.5393 156.52 87.2874 156.713C87.0354 156.907 86.841 157.177 86.7041 157.526C86.5671 157.879 86.4929 158.286 86.4815 158.747C86.4702 159.208 86.5244 159.613 86.6442 159.963C86.759 160.318 86.9375 160.598 87.1797 160.803C87.4218 161.009 87.7258 161.116 88.0916 161.125C88.4479 161.134 88.7543 161.044 89.0109 160.855C89.2626 160.671 89.4593 160.405 89.601 160.057C89.7378 159.713 89.812 159.304 89.8237 158.829C89.8353 158.359 89.7788 157.946 89.6545 157.591C89.5301 157.236 89.3468 156.956 89.1047 156.751C88.8577 156.55 88.5584 156.445 88.2069 156.436Z" fill="black"/>
<path d="M79.2329 153.801C80.0393 153.934 80.7083 154.214 81.2401 154.639C81.7718 155.064 82.1447 155.605 82.3588 156.262C82.5673 156.923 82.603 157.668 82.4656 158.498C82.3322 159.304 82.0603 159.986 81.65 160.545C81.235 161.102 80.7156 161.505 80.0916 161.754C79.463 162.001 78.7643 162.061 77.9954 161.934C77.4749 161.848 77.0037 161.683 76.5815 161.44C76.1586 161.201 75.8059 160.888 75.5234 160.499C75.2401 160.115 75.0462 159.657 74.9417 159.124C74.8364 158.596 74.8392 157.997 74.9502 157.326L75.0479 156.735L81.6867 157.834L81.4645 159.177L75.8806 158.253L76.9514 158.069C76.8855 158.468 76.889 158.825 76.9621 159.14C77.0351 159.456 77.1803 159.714 77.3977 159.913C77.6097 160.117 77.8938 160.248 78.2501 160.307C78.6064 160.366 78.9224 160.334 79.1981 160.211C79.469 160.087 79.6934 159.896 79.8712 159.636C80.0491 159.377 80.1682 159.064 80.2287 158.698L80.3859 157.749C80.4565 157.322 80.442 156.944 80.3424 156.615C80.242 156.29 80.0718 156.023 79.8317 155.815C79.5861 155.61 79.2875 155.479 78.9359 155.421C78.6921 155.38 78.4659 155.379 78.2574 155.417C78.0488 155.455 77.863 155.53 77.6998 155.643C77.532 155.754 77.397 155.901 77.2949 156.081L75.3056 155.615C75.484 155.148 75.7601 154.76 76.134 154.451C76.5024 154.146 76.9494 153.934 77.4751 153.814C77.9999 153.698 78.5859 153.694 79.2329 153.801Z" fill="black"/>
<path d="M74.1526 152.947L71.9726 160.612L69.9226 160.029L70.3047 158.685L70.2225 158.662C69.9456 159.097 69.6081 159.389 69.2101 159.537C68.8108 159.691 68.3986 159.707 67.9735 159.586C67.8638 159.555 67.7515 159.515 67.6365 159.468C67.5157 159.424 67.4112 159.374 67.323 159.319L67.8573 157.441C67.9488 157.501 68.081 157.566 68.2541 157.635C68.4213 157.707 68.5803 157.765 68.7312 157.808C69.0374 157.895 69.3335 157.905 69.6193 157.838C69.9038 157.776 70.1514 157.643 70.362 157.442C70.5667 157.243 70.7133 156.988 70.8017 156.677L72.034 152.344L74.1526 152.947Z" fill="black"/>
<path d="M60.3723 154.159L62.2884 154.801C62.2426 155.055 62.2917 155.308 62.4357 155.56C62.5779 155.818 62.8275 156.018 63.1845 156.162C63.5018 156.29 63.795 156.332 64.0643 156.287C64.3292 156.24 64.5061 156.106 64.595 155.886C64.6661 155.71 64.6592 155.53 64.5741 155.347C64.4829 155.167 64.2818 154.973 63.9709 154.765L62.7357 153.96C62.076 153.524 61.6357 153.073 61.4147 152.604C61.1937 152.136 61.1908 151.635 61.4059 151.102C61.6033 150.613 61.9168 150.242 62.3464 149.99C62.7743 149.742 63.2768 149.615 63.8539 149.607C64.4293 149.603 65.0365 149.73 65.6755 149.988C66.6539 150.383 67.3512 150.902 67.7676 151.547C68.1795 152.19 68.2926 152.881 68.1069 153.621L66.0612 152.918C66.116 152.592 66.0578 152.305 65.8864 152.056C65.7151 151.808 65.4465 151.61 65.0807 151.462C64.7238 151.318 64.4067 151.272 64.1294 151.324C63.8478 151.375 63.6634 151.508 63.5763 151.724C63.4287 152.09 63.6464 152.464 64.2295 152.848L65.3986 153.627C66.0583 154.063 66.4933 154.528 66.7036 155.022C66.9139 155.517 66.9079 156.04 66.6857 156.591C66.4936 157.067 66.1983 157.424 65.7996 157.663C65.4009 157.902 64.9306 158.02 64.3888 158.016C63.8426 158.011 63.2543 157.881 62.6241 157.627C61.6898 157.25 61.0361 156.756 60.6629 156.144C60.2835 155.535 60.1866 154.873 60.3723 154.159Z" fill="black"/>
<path d="M57.0283 151.195L59.2974 147.188L61.214 148.273L55.9805 157.516L54.1258 156.465L56.1314 152.924L56.0446 152.874C55.6556 153.195 55.2207 153.375 54.7399 153.414C54.255 153.45 53.7499 153.32 53.2247 153.022C52.745 152.751 52.385 152.408 52.1447 151.993C51.902 151.583 51.7915 151.127 51.8131 150.626C51.8306 150.122 51.9939 149.598 52.303 149.052L54.8003 144.642L56.7232 145.73L54.419 149.799C54.1778 150.225 54.0989 150.62 54.1823 150.984C54.2615 151.346 54.4975 151.638 54.8904 151.86C55.155 152.01 55.4194 152.083 55.6834 152.08C55.9451 152.081 56.1936 152.009 56.4288 151.863C56.6599 151.716 56.8597 151.493 57.0283 151.195Z" fill="black"/>
<path d="M53.6105 143.74L49.0277 150.26L47.2257 148.993L51.8084 142.474L53.6105 143.74ZM47.5435 150.463C47.8117 150.651 47.9783 150.902 48.0431 151.215C48.1079 151.527 48.0515 151.81 47.8738 152.063C47.6962 152.316 47.4507 152.462 47.1372 152.504C46.821 152.548 46.5287 152.477 46.2605 152.288C45.9883 152.097 45.8198 151.845 45.755 151.532C45.6875 151.223 45.7425 150.942 45.9202 150.69C46.0978 150.437 46.3447 150.288 46.6609 150.243C46.9771 150.198 47.2713 150.271 47.5435 150.463Z" fill="black"/>
<path d="M52.4216 139.353L45.2645 147.639L43.6245 146.223L44.5052 145.203L44.4297 145.138C44.2113 145.238 43.9589 145.312 43.6727 145.36C43.3864 145.408 43.0819 145.39 42.759 145.306C42.433 145.225 42.1028 145.04 41.7684 144.751C41.326 144.369 41.0208 143.905 40.8528 143.358C40.6781 142.811 40.6781 142.211 40.8527 141.558C41.0274 140.906 41.4129 140.234 42.0094 139.543C42.5871 138.874 43.1843 138.401 43.8008 138.124C44.4142 137.85 45.0086 137.754 45.5841 137.837C46.1559 137.916 46.672 138.155 47.1323 138.552C47.456 138.832 47.6845 139.124 47.8179 139.427C47.9513 139.731 48.02 140.026 48.024 140.312C48.0214 140.598 47.9882 140.858 47.9244 141.092L47.973 141.134L50.7548 137.914L52.4216 139.353ZM46.5147 140.336C46.2414 140.1 45.946 139.977 45.6285 139.966C45.311 139.956 44.9888 140.042 44.6618 140.224C44.3318 140.41 44.0161 140.677 43.7147 141.026C43.4134 141.375 43.1979 141.722 43.0682 142.069C42.9319 142.416 42.892 142.745 42.9485 143.058C43.005 143.371 43.1718 143.646 43.4487 143.886C43.7184 144.119 44.0122 144.244 44.3302 144.261C44.6415 144.279 44.9624 144.198 45.293 144.019C45.6168 143.84 45.9341 143.571 46.2447 143.211C46.5523 142.855 46.7706 142.501 46.8998 142.148C47.029 141.794 47.0653 141.462 47.0088 141.149C46.9455 140.837 46.7808 140.566 46.5147 140.336Z" fill="black"/>
<path d="M35.4672 133.158L33.7998 134.289L35.7186 134.916L35.1982 136.218L33.387 135.335L33.8052 137.306L32.4046 137.505L32.2607 135.492L30.7601 136.836L29.9043 135.741L31.5673 134.604L29.6484 133.978L30.1845 132.672L31.9913 133.549L31.5775 131.584L32.9625 131.388L33.1064 133.402L34.6114 132.063L35.4672 133.158Z" fill="black"/>
<path d="M31.6965 118.191C32.1319 119.089 32.3177 119.973 32.254 120.844C32.1839 121.713 31.8755 122.514 31.3288 123.249C30.7757 123.982 29.9968 124.592 28.9919 125.08C27.9571 125.581 26.9787 125.813 26.0568 125.774C25.1285 125.733 24.306 125.469 23.5893 124.982C22.8726 124.495 22.31 123.83 21.9016 122.988C21.6404 122.449 21.4759 121.908 21.4081 121.365C21.336 120.825 21.3573 120.302 21.4718 119.798C21.5821 119.295 21.779 118.835 22.0625 118.418C22.3397 117.998 22.7 117.642 23.1436 117.347L24.1356 119.393C23.9401 119.567 23.7837 119.757 23.6664 119.961C23.5428 120.164 23.4626 120.38 23.4258 120.609C23.3847 120.84 23.385 121.08 23.4266 121.329C23.4618 121.576 23.5427 121.83 23.6692 122.091C23.9055 122.579 24.2357 122.949 24.6598 123.203C25.0776 123.455 25.5703 123.572 26.138 123.556C26.7036 123.535 27.3178 123.364 27.9806 123.043C28.6434 122.721 29.1581 122.345 29.5247 121.914C29.8912 121.483 30.1094 121.023 30.1791 120.535C30.2425 120.045 30.1518 119.548 29.9072 119.043C29.6853 118.585 29.4154 118.236 29.0974 117.994C28.7731 117.75 28.4198 117.615 28.0376 117.589C27.6532 117.558 27.258 117.642 26.8517 117.839L26.7168 117.397L27.9079 119.854L26.3878 120.591L24.4503 116.595L25.6562 116.01C26.4943 115.604 27.3009 115.432 28.0759 115.495C28.8509 115.557 29.5522 115.822 30.1799 116.289C30.8012 116.753 31.3068 117.387 31.6965 118.191Z" fill="black"/>
<path d="M28.0754 108.889C28.3131 109.671 28.3592 110.395 28.2137 111.06C28.0682 111.725 27.7484 112.299 27.2545 112.782C26.7546 113.261 26.1023 113.624 25.2975 113.868C24.5155 114.106 23.7833 114.165 23.101 114.044C22.4173 113.919 21.8259 113.632 21.3268 113.183C20.8263 112.729 20.4627 112.129 20.236 111.384C20.0826 110.879 20.0214 110.383 20.0524 109.897C20.0789 109.412 20.2038 108.957 20.4271 108.532C20.6459 108.107 20.9709 107.731 21.4021 107.401C21.8288 107.072 22.3672 106.809 23.0174 106.612L23.5903 106.438L25.5472 112.876L24.2446 113.272L22.5986 107.857L23.2381 108.735C22.8516 108.853 22.5331 109.014 22.2826 109.219C22.0321 109.425 21.8655 109.669 21.7828 109.952C21.6941 110.233 21.7023 110.545 21.8073 110.891C21.9124 111.237 22.0811 111.506 22.3135 111.698C22.5445 111.886 22.8157 112.003 23.1272 112.047C23.4387 112.091 23.7718 112.06 24.1265 111.952L25.0472 111.672C25.4609 111.546 25.7935 111.366 26.0448 111.13C26.2916 110.896 26.4551 110.626 26.5355 110.318C26.6099 110.007 26.5953 109.682 26.4917 109.341C26.4198 109.104 26.3207 108.901 26.1945 108.731C26.0682 108.56 25.9185 108.427 25.7451 108.331C25.5704 108.23 25.3795 108.174 25.1724 108.162L24.7091 106.172C25.2064 106.125 25.6764 106.201 26.1191 106.399C26.5559 106.594 26.9446 106.901 27.2852 107.319C27.6213 107.738 27.8847 108.261 28.0754 108.889Z" fill="black"/>
<path d="M17.9848 101.277L19.6236 100.966L20.5174 105.68L18.8785 105.991L17.9848 101.277ZM16.8124 105.272L16.4021 103.108L23.6857 101.727C23.9472 101.677 24.1299 101.582 24.2338 101.442C24.3331 101.302 24.3583 101.104 24.3096 100.847C24.2937 100.763 24.269 100.671 24.2355 100.571C24.202 100.471 24.1689 100.385 24.136 100.314L25.6958 99.6627C25.8109 99.8875 25.9061 100.109 25.9813 100.327C26.0556 100.54 26.1131 100.754 26.1538 100.969C26.3017 101.749 26.2221 102.388 25.9152 102.886C25.6035 103.385 25.0929 103.702 24.3832 103.837L16.8124 105.272Z" fill="black"/>
<path d="M14.4121 94.3438L14.4727 91.5715L21.6702 88.8054L21.6728 88.6843L14.6031 85.5995L14.6638 82.8201L25.2824 83.052L25.2345 85.247L18.3217 85.096L18.3198 85.1815L25.1225 88.0894L25.0901 89.5718L18.1532 92.1581L18.1513 92.2437L25.0783 92.395L25.0307 94.5757L14.4121 94.3438Z" fill="black"/>
<path d="M26.5281 77.5057C26.3697 78.3075 26.0698 78.9676 25.6284 79.4859C25.1869 80.0042 24.6346 80.3602 23.9715 80.5538C23.3047 80.7418 22.5587 80.7543 21.7335 80.5913C20.9316 80.4329 20.258 80.14 19.7127 79.7126C19.1683 79.2806 18.7816 78.7489 18.5527 78.1175C18.3247 77.4815 18.2862 76.7812 18.4372 76.0167C18.5395 75.4992 18.7187 75.0332 18.9749 74.6188C19.2265 74.2035 19.5509 73.8606 19.9482 73.5903C20.3409 73.3191 20.805 73.1395 21.3407 73.0516C21.8717 72.9627 22.4706 72.9841 23.1373 73.1158L23.7247 73.2318L22.4208 79.8333L21.0851 79.5695L22.1818 74.017L22.3326 75.093C21.9363 75.0148 21.5793 75.0072 21.2617 75.0704C20.944 75.1336 20.682 75.2708 20.4756 75.4819C20.2655 75.6875 20.1254 75.9674 20.0554 76.3217C19.9855 76.676 20.0076 76.9929 20.122 77.2722C20.2373 77.5468 20.4219 77.7771 20.6759 77.9629C20.9298 78.1486 21.2386 78.2774 21.6023 78.3493L22.5463 78.5357C22.9706 78.6195 23.349 78.6167 23.6815 78.5274C24.0093 78.4372 24.2811 78.2753 24.4967 78.0418C24.7086 77.8027 24.8491 77.5083 24.9182 77.1586C24.9661 76.9162 24.9744 76.6902 24.9431 76.4805C24.9119 76.2709 24.8424 76.0828 24.7349 75.9163C24.6282 75.745 24.4862 75.6056 24.3089 75.4979L24.8368 73.5241C25.2976 73.7168 25.6767 74.0048 25.974 74.3881C26.2675 74.7658 26.4662 75.2192 26.57 75.7483C26.6691 76.2765 26.6552 76.8623 26.5281 77.5057Z" fill="black"/>
<path d="M27.3767 72.2335L19.9388 69.3718L20.6888 67.4225L22.0127 67.9319L22.0486 67.8387C21.6692 67.5146 21.4231 67.122 21.3102 66.661C21.1973 66.2001 21.2373 65.719 21.4301 65.2178C21.6264 64.7078 21.9214 64.3248 22.3151 64.069C22.7062 63.807 23.142 63.6997 23.6228 63.7472L23.6535 63.6674C23.2813 63.3511 23.0434 62.9438 22.9397 62.4457C22.836 61.9476 22.8883 61.4279 23.0965 60.8868C23.3627 60.1949 23.7989 59.7161 24.4053 59.4504C25.0133 59.1803 25.7209 59.2005 26.5281 59.5111L31.5311 61.4359L30.7376 63.4983L26.1471 61.7321C25.7302 61.5717 25.3771 61.5632 25.0877 61.7064C24.8001 61.8453 24.5931 62.0788 24.4668 62.407C24.3235 62.7795 24.3306 63.1183 24.4882 63.4234C24.6431 63.7223 24.9135 63.9459 25.2993 64.0944L29.8366 65.8401L29.0687 67.836L24.425 66.0493C24.0657 65.9111 23.7395 65.9052 23.4465 66.0318C23.1489 66.1566 22.9353 66.3876 22.8056 66.7247C22.7169 66.9553 22.6952 67.1837 22.7405 67.4099C22.7859 67.6361 22.8901 67.8417 23.0532 68.0267C23.2118 68.2099 23.4308 68.3553 23.7103 68.4628L28.1677 70.1777L27.3767 72.2335Z" fill="black"/>
<path d="M34.8617 56.213C34.641 56.5793 34.3924 56.854 34.1158 57.0368C33.8391 57.2197 33.5602 57.3374 33.2789 57.3898C32.9961 57.4358 32.734 57.4471 32.4928 57.4239L32.4413 57.5093L33.5343 58.1678L32.416 60.024L23.3184 54.543L24.455 52.6563L27.8804 54.7199L27.9135 54.665C27.7777 54.4667 27.662 54.2305 27.5663 53.9565C27.4707 53.6825 27.437 53.3793 27.4653 53.0468C27.4895 52.7119 27.6157 52.3552 27.8438 51.9766C28.1454 51.4759 28.5516 51.0965 29.0622 50.8382C29.5712 50.5735 30.1623 50.4718 30.8354 50.5334C31.5084 50.5949 32.2357 50.8611 33.0173 51.3319C33.7744 51.7881 34.3419 52.2964 34.7199 52.857C35.0938 53.4151 35.2888 53.9848 35.3048 54.5659C35.3233 55.1429 35.1756 55.692 34.8617 56.213ZM32.9992 55.9065C33.1856 55.5971 33.2571 55.2851 33.2136 54.9704C33.1702 54.6557 33.031 54.3527 32.796 54.0613C32.5569 53.7675 32.2399 53.5017 31.8451 53.2638C31.4502 53.0259 31.0711 52.8724 30.7078 52.8033C30.3428 52.7277 30.0111 52.7442 29.7126 52.8528C29.4141 52.9615 29.1705 53.1726 28.9816 53.486C28.7977 53.7913 28.7242 54.1021 28.7611 54.4183C28.7964 54.7281 28.9303 55.0307 29.1629 55.3262C29.3938 55.6151 29.7128 55.8822 30.1199 56.1274C30.5228 56.3702 30.9093 56.5253 31.2792 56.5928C31.649 56.6603 31.9832 56.6397 32.2817 56.5311C32.5786 56.4159 32.8178 56.2077 32.9992 55.9065Z" fill="black"/>
<path d="M39.722 49.4284C39.2069 50.063 38.6331 50.5062 38.0005 50.7578C37.3678 51.0094 36.7132 51.0656 36.0366 50.9265C35.3592 50.7808 34.694 50.4428 34.0409 49.9128C33.4063 49.3977 32.9479 48.8237 32.6659 48.1909C32.3868 47.5544 32.2938 46.9036 32.3868 46.2385C32.4828 45.5697 32.7764 44.9328 33.2675 44.3276C33.5999 43.918 33.9763 43.59 34.3966 43.3436C34.8132 43.0942 35.2603 42.943 35.7379 42.8899C36.2118 42.8339 36.7061 42.8923 37.2207 43.0651C37.7316 43.235 38.2509 43.534 38.7785 43.9622L39.2435 44.3396L35.003 49.5644L33.9459 48.7064L37.5125 44.3118L37.1424 45.3334C36.8288 45.0789 36.5168 44.9052 36.2065 44.8125C35.8961 44.7198 35.6004 44.7184 35.3192 44.8085C35.0373 44.8919 34.7826 45.0738 34.555 45.3542C34.3274 45.6346 34.1988 45.925 34.1693 46.2254C34.1427 46.5221 34.1982 46.8119 34.3357 47.0949C34.4732 47.3779 34.6859 47.6362 34.9737 47.8698L35.7209 48.4762C36.0567 48.7487 36.3924 48.9233 36.7281 48.9999C37.0601 49.0735 37.376 49.0575 37.6758 48.952C37.975 48.8398 38.2368 48.6453 38.4614 48.3686C38.6172 48.1767 38.7302 47.9808 38.8007 47.7809C38.8711 47.581 38.8977 47.3823 38.8806 47.1848C38.8664 46.9835 38.8061 46.7939 38.6998 46.6157L40.0896 45.1181C40.4068 45.5041 40.6071 45.9359 40.6906 46.4138C40.7734 46.8849 40.7369 47.3785 40.5811 47.8948C40.4216 48.408 40.1353 48.9192 39.722 49.4284Z" fill="black"/>
<path d="M42.9753 45.444L37.3855 39.7637L38.9047 38.2688L39.8847 39.2646L39.9456 39.2046C39.704 38.749 39.6168 38.3115 39.684 37.892C39.7479 37.4691 39.9373 37.1026 40.2523 36.7926C40.3336 36.7126 40.4233 36.6344 40.5214 36.5579C40.6195 36.4747 40.7141 36.4082 40.8052 36.3585L42.1752 37.7507C42.0773 37.8003 41.9557 37.8833 41.8102 37.9998C41.6649 38.1095 41.5363 38.2194 41.4245 38.3294C41.1976 38.5527 41.0426 38.8051 40.9597 39.0867C40.8735 39.365 40.8662 39.6455 40.9378 39.9284C41.0096 40.2045 41.1587 40.4577 41.3854 40.688L44.5453 43.8991L42.9753 45.444Z" fill="black"/>
<path d="M48.7243 32.849L47.2211 34.1999C47.0234 34.0353 46.7791 33.9534 46.4882 33.9541C46.1943 33.9511 45.8967 34.0694 45.5955 34.3091C45.3277 34.5221 45.1471 34.7569 45.0537 35.0134C44.964 35.267 44.9931 35.4868 45.141 35.6727C45.2593 35.8215 45.4191 35.9039 45.6201 35.92C45.822 35.9295 46.0898 35.85 46.4234 35.6817L47.7333 35.0039C48.4371 34.6443 49.0472 34.4838 49.5637 34.5223C50.0801 34.5608 50.5173 34.805 50.8754 35.2549C51.2038 35.6677 51.3718 36.1231 51.3794 36.6211C51.384 37.1154 51.2476 37.6157 50.9701 38.1218C50.6897 38.6243 50.2799 39.09 49.7407 39.519C48.9152 40.1759 48.1194 40.5266 47.3533 40.5714C46.591 40.6131 45.9337 40.3709 45.3815 39.8447L47.0006 38.4107C47.2576 38.6192 47.5364 38.7101 47.8371 38.6835C48.1377 38.6568 48.4424 38.5207 48.751 38.2751C49.0522 38.0354 49.2485 37.7821 49.3397 37.5152C49.4347 37.2453 49.4097 37.0193 49.2647 36.837C49.0191 36.5284 48.5857 36.5332 47.9644 36.8514L46.7103 37.4848C46.0065 37.8444 45.3875 37.9938 44.8533 37.933C44.3191 37.8722 43.8671 37.6093 43.4973 37.1445C43.1777 36.7429 43.0122 36.3098 43.0009 35.8451C42.9895 35.3805 43.1188 34.9133 43.3887 34.4435C43.6623 33.9707 44.065 33.5228 44.5968 33.0997C45.3852 32.4724 46.1375 32.1471 46.8537 32.1238C47.5707 32.0938 48.1943 32.3355 48.7243 32.849Z" fill="black"/>
<path d="M52.9295 31.4074L55.3026 35.3537L53.415 36.4888L47.9414 27.3867L49.7679 26.2883L51.8655 29.7764L51.9511 29.725C51.8634 29.2288 51.9208 28.7617 52.1232 28.3239C52.3298 27.8836 52.6917 27.5079 53.2089 27.1969C53.6813 26.9128 54.1571 26.7681 54.6363 26.7627C55.1131 26.7532 55.5643 26.8812 55.99 27.1464C56.4198 27.4092 56.7963 27.8094 57.1196 28.347L59.7315 32.6903L57.8378 33.8291L55.4279 29.8218C55.1757 29.4023 54.8706 29.1394 54.5127 29.033C54.1589 28.9241 53.7885 28.986 53.4016 29.2187C53.141 29.3754 52.9472 29.5696 52.8203 29.8012C52.691 30.0287 52.6317 30.2806 52.6426 30.5568C52.6575 30.8307 52.7532 31.1142 52.9295 31.4074Z" fill="black"/>
<path d="M61.1166 32.0909L57.6972 24.8924L59.6867 23.9473L63.1062 31.1458L61.1166 32.0909ZM58.2513 23.5006C57.9552 23.6413 57.655 23.6629 57.3509 23.5654C57.0468 23.4678 56.8284 23.2795 56.6959 23.0005C56.5633 22.7215 56.5564 22.4355 56.6749 22.1424C56.7915 21.845 56.9978 21.626 57.294 21.4853C57.5945 21.3426 57.8968 21.32 58.2009 21.4175C58.503 21.5108 58.7203 21.6969 58.8529 21.9759C58.9854 22.2549 58.9934 22.5431 58.8769 22.8405C58.7603 23.1379 58.5518 23.3579 58.2513 23.5006Z" fill="black"/>
<path d="M65.5057 33.222L61.8246 22.9104L63.8654 22.1818L64.3184 23.4507L64.4124 23.4171C64.4328 23.1777 64.4928 22.9216 64.5923 22.649C64.6917 22.3763 64.8577 22.1203 65.0901 21.8809C65.3209 21.637 65.6445 21.4408 66.0607 21.2922C66.6112 21.0957 67.1658 21.0592 67.7246 21.1826C68.2862 21.3 68.808 21.5956 69.29 22.0694C69.772 22.5432 70.1664 23.2098 70.4731 24.0691C70.7703 24.9016 70.8877 25.6544 70.8252 26.3276C70.7612 26.9963 70.5514 27.5607 70.1959 28.0206C69.8448 28.479 69.3829 28.8104 68.81 29.0149C68.4072 29.1587 68.0409 29.2138 67.711 29.1802C67.3811 29.1466 67.0907 29.061 66.8398 28.9235C66.5917 28.78 66.3817 28.6228 66.2098 28.4521L66.1494 28.4737L67.5801 32.4815L65.5057 33.222ZM67.5626 27.5983C67.9027 27.4769 68.1556 27.2806 68.3212 27.0096C68.4868 26.7385 68.5709 26.4158 68.5736 26.0415C68.5746 25.6627 68.4976 25.2562 68.3426 24.8221C68.1876 24.388 67.9914 24.0291 67.7539 23.7455C67.5193 23.4559 67.2521 23.2586 66.9523 23.1537C66.6525 23.0488 66.3302 23.0579 65.9856 23.1809C65.65 23.3008 65.3963 23.4948 65.2246 23.7629C65.0558 24.025 64.9678 24.3441 64.9607 24.72C64.9565 25.0898 65.0343 25.4985 65.1941 25.9461C65.3522 26.3892 65.5531 26.7539 65.7966 27.0404C66.0402 27.3268 66.3119 27.5225 66.6117 27.6274C66.9144 27.7262 67.2314 27.7165 67.5626 27.5983Z" fill="black"/>
<path d="M79.2638 21.5378L79.1063 19.5292L77.6122 20.8865L76.7382 19.7899L78.4014 18.6528L76.4818 18.0408L77.0022 16.7253L78.823 17.5967L78.3974 15.6275L79.7728 15.4259L79.9373 17.4334L81.4314 16.0761L82.3004 17.1879L80.6442 18.324L82.5568 18.937L82.0414 20.2373L80.2206 19.3659L80.6391 21.3362L79.2638 21.5378Z" fill="black"/>
</svg>
