<svg width="30" height="31" viewBox="0 0 30 31" fill="none" xmlns="http://www.w3.org/2000/svg">
<g clip-path="url(#clip0_742_21)">
<path d="M15.8423 13.5185C16.0142 13.6913 16.2399 13.7778 16.4658 13.7778C16.6899 13.7778 16.9139 13.6927 17.0854 13.5222C17.4296 13.18 17.4312 12.6236 17.089 12.2791L15.7677 10.9498C15.4255 10.6055 14.8691 10.6037 14.5249 10.9461C14.1806 11.2883 14.179 11.8447 14.5212 12.1892L15.8423 13.5185Z" fill="black"/>
<path d="M19.8112 13.1245C19.9831 13.2973 20.2087 13.3838 20.4346 13.3838C20.6585 13.3838 20.8826 13.2986 21.0542 13.1281C21.3985 12.7859 21.4001 12.2295 21.0579 11.8851L19.7366 10.5557C19.3944 10.2115 18.838 10.2096 18.4937 10.5521C18.1495 10.8942 18.1477 11.4506 18.4898 11.7951L19.8112 13.1245Z" fill="black"/>
<path d="M19.4205 17.118C19.5924 17.2908 19.8181 17.3773 20.044 17.3773C20.2679 17.3773 20.4919 17.2922 20.6634 17.1219C21.0076 16.7795 21.0094 16.2231 20.6673 15.8789L19.3459 14.5493C19.0038 14.205 18.4473 14.2034 18.1031 14.5456C17.7589 14.8878 17.757 15.4444 18.0992 15.7887L19.4205 17.118Z" fill="black"/>
<path d="M1.49844 22.0493C2.02189 21.5291 2.87378 21.5291 3.39747 22.0493C4.60413 23.2487 6.56771 23.2487 7.77437 22.0493C8.29805 21.5291 9.14995 21.5291 9.6734 22.0493C10.8803 23.2489 12.8439 23.2487 14.0505 22.0493C14.574 21.5291 15.4259 21.5291 15.9493 22.0493C17.1562 23.2487 19.1198 23.2487 20.3265 22.0493C20.8502 21.5291 21.7018 21.5291 22.2255 22.0493C22.8288 22.649 23.6214 22.9488 24.4138 22.9488C25.2065 22.9488 25.9991 22.649 26.6026 22.0493C27.1261 21.5291 27.978 21.5291 28.5014 22.0493C28.8457 22.3915 29.4023 22.3899 29.7445 22.0454C30.0867 21.7012 30.0848 21.1446 29.7406 20.8024C28.5337 19.603 26.5701 19.6033 25.3635 20.8024C25.1998 20.9649 25.0041 21.0768 24.7965 21.1377C25.5205 19.6589 25.8984 18.0318 25.8984 16.3646C25.8984 10.3642 21.0095 5.48242 14.9999 5.48242C8.99065 5.48242 4.10151 10.3642 4.10151 16.3646C4.10151 18.0318 4.47962 19.6589 5.20334 21.1377C4.99575 21.0766 4.80005 20.9649 4.6364 20.8024C3.42974 19.603 1.46616 19.603 0.25927 20.8024C-0.0849682 21.1446 -0.0865703 21.701 0.255379 22.0454C0.597786 22.3899 1.1542 22.3915 1.49844 22.0493ZM14.9999 7.24046C20.0401 7.24046 24.1406 11.3336 24.1406 16.3646C24.1406 17.8214 23.7968 19.241 23.1394 20.5211C21.9275 19.6117 20.191 19.7056 19.0875 20.8026C18.5641 21.3229 17.7122 21.3229 17.1885 20.8024C15.9818 19.603 14.0183 19.6033 12.8116 20.8026C12.2879 21.3229 11.436 21.3229 10.9126 20.8024C9.8089 19.7058 8.07237 19.612 6.86067 20.5213C6.20333 19.241 5.85932 17.8212 5.85932 16.3646C5.85932 11.3336 9.95973 7.24046 14.9999 7.24046Z" fill="black"/>
<path d="M25.3636 24.3127C24.8401 24.8329 23.9882 24.8329 23.4648 24.3127C22.2579 23.1133 20.2943 23.1133 19.0876 24.3127C18.5642 24.8329 17.7123 24.8329 17.1886 24.3127C15.9817 23.1133 14.0183 23.1131 12.8115 24.3127C12.288 24.8329 11.4361 24.8329 10.9124 24.3127C9.70576 23.1133 7.74218 23.1133 6.53529 24.3127C6.01184 24.8332 5.15994 24.8329 4.63649 24.3127C3.4296 23.1133 1.46625 23.1133 0.259356 24.3127C-0.084882 24.6549 -0.0867131 25.2113 0.255465 25.5557C0.597643 25.9 1.15428 25.9018 1.49852 25.5596C2.02197 25.0394 2.87387 25.0391 3.39732 25.5596C4.60422 26.759 6.56779 26.759 7.77446 25.5596C8.29814 25.0391 9.14981 25.0391 9.67349 25.5596C10.8804 26.759 12.8437 26.759 14.0506 25.5596C14.5741 25.0394 15.426 25.0391 15.9494 25.5596C17.1563 26.759 19.1199 26.759 20.3266 25.5596C20.8502 25.0391 21.7021 25.0391 22.2256 25.5596C22.8291 26.1593 23.6215 26.4591 24.4142 26.4591C25.2065 26.4591 25.9994 26.1591 26.6027 25.5596C27.1262 25.0391 27.9781 25.0391 28.5015 25.5596C28.846 25.9018 29.4024 25.9002 29.7446 25.5557C30.0868 25.2115 30.0849 24.6549 29.7407 24.3127C28.534 23.1133 26.5702 23.1133 25.3636 24.3127Z" fill="black"/>
</g>
<defs>
<clipPath id="clip0_742_21">
<rect width="30" height="30" fill="white" transform="translate(0 0.970703)"/>
</clipPath>
</defs>
</svg>
