<svg width="20" height="20" viewBox="0 0 20 20" fill="none" xmlns="http://www.w3.org/2000/svg">
<rect x="3.33691" y="3.44257" width="12.6693" height="12.6693" rx="6.33463" fill="black"/>
<path d="M10 1.95999C5.56672 1.95999 1.95996 5.56675 1.95996 10C1.95996 14.4333 5.56672 18.0401 10 18.0401C14.4333 18.0401 18.04 14.4333 18.04 10C18.04 5.56675 14.4333 1.95999 10 1.95999ZM5.61452 10.7309C5.21087 10.7309 4.88361 10.4037 4.88361 10C4.88361 9.59637 5.21087 9.26912 5.61452 9.26912C6.01818 9.26912 6.34544 9.59637 6.34544 10C6.34544 10.4037 6.01818 10.7309 5.61452 10.7309ZM6.5595 7.59318C6.27405 7.30774 6.27405 6.84497 6.5595 6.55953C6.84494 6.27408 7.30771 6.27408 7.59315 6.55953C7.8786 6.84492 7.8786 7.30774 7.59315 7.59318C7.30776 7.87863 6.84494 7.87863 6.5595 7.59318ZM9.05503 11.9787C8.76958 12.2641 8.30682 12.2641 8.02137 11.9787C7.73592 11.6932 7.73592 11.2304 8.02137 10.945C8.30682 10.6596 8.76958 10.6596 9.05503 10.945C9.34042 11.2304 9.34042 11.6933 9.05503 11.9787ZM10.5169 9.05501C10.2314 9.34046 9.76864 9.34046 9.4832 9.05501C9.19775 8.76956 9.19775 8.3068 9.4832 8.02135C9.76864 7.73591 10.2314 7.73591 10.5169 8.02135C10.8022 8.3068 10.8022 8.76961 10.5169 9.05501Z" fill="#FDF567"/>
</svg>
