<svg width="40" height="41" viewBox="0 0 40 41" fill="none" xmlns="http://www.w3.org/2000/svg">
<g clip-path="url(#clip0_254_122)">
<path d="M19.1162 0.280355C19.1796 0.279586 19.243 0.278818 19.3084 0.278026C20.7102 0.26454 22.0685 0.27189 23.4375 0.611471C23.5147 0.630328 23.5919 0.649186 23.6714 0.668615C26.9282 1.48847 29.8726 3.3603 31.9531 6.0021C32.0085 6.07088 32.0639 6.13966 32.121 6.21053C33.9826 8.59302 35.2225 11.6828 35.253 14.7277C35.2538 14.7911 35.2545 14.8545 35.2553 14.9199C35.2688 16.3224 35.2573 17.6784 34.9219 19.049C34.8968 19.154 34.8968 19.154 34.8712 19.2611C34.4292 21.0593 33.6806 22.9543 32.4968 24.3976C32.3416 24.5956 32.2625 24.7061 32.2798 24.9618C32.3573 25.2757 32.4744 25.5549 32.6068 25.8492C32.6339 25.9105 32.6609 25.9717 32.6888 26.0348C32.7784 26.2374 32.8687 26.4395 32.959 26.6417C33.0225 26.785 33.086 26.9284 33.1494 27.0717C33.2823 27.3717 33.4154 27.6716 33.5488 27.9714C33.8353 28.6154 34.1201 29.2601 34.4049 29.9048C34.497 30.1132 34.5892 30.3216 34.6813 30.53C35.1188 31.5196 35.5536 32.5104 35.9863 33.5021C36.0297 33.6014 36.0297 33.6014 36.074 33.7027C36.155 33.8881 36.2358 34.0735 36.3165 34.2589C36.3405 34.3137 36.3644 34.3685 36.3891 34.4249C36.607 34.9263 36.7463 35.318 36.5527 35.8556C36.3446 36.1748 36.1498 36.4088 35.7799 36.5169C35.1453 36.607 34.6232 36.412 34.0314 36.2005C33.9247 36.1636 33.818 36.1269 33.7112 36.0903C33.4321 35.9944 33.1537 35.8966 32.8755 35.7984C32.5919 35.6986 32.3077 35.6004 32.0236 35.5022C31.7044 35.3918 31.3851 35.2813 31.0664 35.1693C30.972 35.1362 30.8775 35.1032 30.7802 35.0691C30.6972 35.0399 30.6142 35.0106 30.5287 34.9806C30.3531 34.9219 30.1804 34.8714 30 34.8302C29.9794 34.895 29.9794 34.895 29.9584 34.9611C29.8227 35.3792 29.6676 35.7824 29.4913 36.1849C29.4654 36.2447 29.4394 36.3046 29.4127 36.3662C29.3304 36.5558 29.2477 36.7453 29.1651 36.9347C29.1112 37.0589 29.0573 37.183 29.0035 37.3072C28.8959 37.555 28.7876 37.8025 28.6788 38.0498C28.567 38.3043 28.4586 38.56 28.3522 38.8168C28.3253 38.8804 28.2984 38.944 28.2706 39.0095C28.2198 39.1298 28.1698 39.2505 28.121 39.3716C27.9333 39.81 27.7019 40.0809 27.2656 40.299C26.8592 40.3395 26.5129 40.3474 26.1377 40.1769C25.7591 39.8168 25.5623 39.3216 25.3534 38.8494C25.3282 38.793 25.303 38.7366 25.277 38.6785C25.1942 38.4929 25.1117 38.3071 25.0293 38.1212C24.9707 37.9895 24.912 37.8578 24.8533 37.726C24.2208 36.3047 23.5953 34.8804 22.9725 33.4548C22.8918 33.2704 22.811 33.086 22.7302 32.9016C22.6073 32.6211 22.4846 32.3405 22.3623 32.0597C22.3178 31.9578 22.2732 31.8558 22.2285 31.754C22.168 31.6159 22.1079 31.4776 22.0477 31.3393C22.0141 31.2623 21.9805 31.1853 21.9459 31.106C21.875 30.924 21.875 30.924 21.875 30.7677C21.83 30.7804 21.785 30.7931 21.7386 30.8062C21.5673 30.8448 21.4203 30.8558 21.2451 30.856C21.1836 30.8562 21.1221 30.8564 21.0587 30.8567C20.96 30.8565 20.96 30.8565 20.8594 30.8562C20.7571 30.8563 20.7571 30.8563 20.6528 30.8564C20.5088 30.8565 20.3649 30.8564 20.221 30.856C20.0008 30.8556 19.7807 30.856 19.5606 30.8565C19.4206 30.8565 19.2806 30.8564 19.1406 30.8562C19.0749 30.8564 19.0091 30.8565 18.9414 30.8567C18.8798 30.8565 18.8183 30.8562 18.7549 30.856C18.701 30.8559 18.6471 30.8558 18.5916 30.8558C18.4282 30.8452 18.2824 30.8121 18.125 30.7677C18.1113 30.8109 18.0976 30.8541 18.0835 30.8986C17.9478 31.3176 17.7914 31.72 17.6123 32.1221C17.5855 32.1831 17.5586 32.2441 17.5309 32.3069C17.4428 32.5069 17.3542 32.7066 17.2656 32.9064C17.2033 33.0476 17.141 33.1888 17.0787 33.3301C16.9145 33.7023 16.7499 34.0744 16.5852 34.4464C16.3857 34.8968 16.1865 35.3472 15.9873 35.7977C15.8312 36.1509 15.6749 36.504 15.5184 36.857C15.4602 36.9883 15.4021 37.1196 15.3439 37.2509C15.3157 37.3144 15.2875 37.378 15.2584 37.4435C15.1062 37.7875 14.9579 38.1327 14.8139 38.4803C14.783 38.5543 14.7521 38.6283 14.7202 38.7046C14.6613 38.8461 14.6031 38.9879 14.5457 39.13C14.3596 39.5757 14.162 39.9678 13.7518 40.2483C13.3267 40.3846 12.8747 40.3613 12.4707 40.1818C11.953 39.6887 11.711 39.0139 11.4404 38.3654C11.3795 38.2211 11.3186 38.0768 11.2576 37.9325C11.2155 37.8328 11.1735 37.7331 11.1315 37.6334C10.9791 37.2712 10.8242 36.9101 10.668 36.5496C10.6244 36.4486 10.5808 36.3477 10.5371 36.2468C10.4536 36.0535 10.3697 35.8602 10.2858 35.6671C10.2483 35.5801 10.2108 35.493 10.1721 35.4033C10.1388 35.3264 10.1055 35.2495 10.0712 35.1703C10 34.9865 10 34.9865 10 34.8302C9.89063 34.8667 9.89063 34.8667 9.77903 34.9039C9.70579 34.9283 9.70579 34.9283 9.63107 34.9532C9.51975 34.9903 9.40845 35.0274 9.29715 35.0646C8.9837 35.1691 8.67019 35.2734 8.35653 35.3773C7.79287 35.5642 7.22951 35.7515 6.66949 35.9491C6.45898 36.0234 6.2481 36.0966 6.0372 36.1698C5.89218 36.2206 5.74773 36.2731 5.60331 36.3255C5.07805 36.5071 4.60965 36.6355 4.06251 36.4708C3.77331 36.2937 3.57577 36.1041 3.40333 35.8117C3.2939 35.3131 3.38448 34.9258 3.58736 34.4689C3.61177 34.4118 3.63619 34.3548 3.66134 34.296C3.74185 34.109 3.82391 33.9227 3.90626 33.7365C3.93393 33.6733 3.96161 33.6102 3.99012 33.5452C4.16996 33.1349 4.35199 32.7257 4.53495 32.3168C4.70708 31.9321 4.87855 31.547 5.05006 31.162C5.085 31.0836 5.11993 31.0052 5.15592 30.9245C5.57122 29.9919 5.98187 29.0573 6.39059 28.1218C6.64249 27.5455 6.89547 26.9699 7.15639 26.3976C7.19772 26.3062 7.23905 26.2149 7.28164 26.1207C7.356 25.9568 7.43117 25.7932 7.50736 25.6302C7.55493 25.5248 7.55493 25.5248 7.60347 25.4174C7.63093 25.358 7.65839 25.2986 7.68669 25.2374C7.74657 25.0205 7.72055 24.8882 7.65626 24.674C7.54827 24.5024 7.43769 24.34 7.31935 24.1759C6.08999 22.3917 5.30601 20.3947 4.92189 18.2677C4.9074 18.1881 4.89291 18.1085 4.87798 18.0264C4.74931 17.2373 4.73449 16.4577 4.73634 15.6603C4.73638 15.5915 4.73643 15.5227 4.73647 15.4519C4.73964 14.334 4.81106 13.2636 5.07814 12.174C5.09488 12.1044 5.11162 12.0348 5.12887 11.9631C6.13143 7.91269 8.66244 4.51905 12.2217 2.34975C14.2824 1.13426 16.7079 0.304465 19.1162 0.280355ZM10.8985 6.46596C10.2973 7.07649 9.75854 7.70217 9.29689 8.42397C9.26416 8.47431 9.23143 8.52465 9.19771 8.57652C7.84158 10.687 7.15113 13.0638 7.15822 15.5675C7.15831 15.6294 7.15841 15.6913 7.1585 15.7551C7.16272 16.7763 7.22806 17.7471 7.50001 18.7365C7.52016 18.8104 7.5403 18.8844 7.56105 18.9606C8.1743 21.1314 9.28679 22.9329 10.7813 24.5958C10.8283 24.6486 10.8753 24.7014 10.9238 24.7558C11.3699 25.2278 11.9022 25.6153 12.4219 26.0021C12.4666 26.0355 12.5113 26.0688 12.5573 26.1032C15.1932 28.0394 18.5821 28.8198 21.8054 28.3709C24.5793 27.9433 26.9181 26.6872 28.9844 24.8302C29.0372 24.7832 29.0899 24.7362 29.1443 24.6877C29.6163 24.2415 30.0039 23.7093 30.3906 23.1896C30.424 23.1449 30.4574 23.1002 30.4918 23.0541C31.4349 21.7702 32.1102 20.2785 32.5 18.7365C32.5162 18.6752 32.5324 18.6139 32.5491 18.5507C33.0386 16.6276 32.9921 14.4022 32.5 12.4865C32.4862 12.429 32.4724 12.3715 32.4582 12.3123C31.9435 10.192 30.7898 8.27826 29.2969 6.70522C29.259 6.66435 29.2211 6.62347 29.182 6.58136C26.9304 4.16445 23.7485 2.78391 20.455 2.64985C16.8454 2.55658 13.4609 3.93313 10.8985 6.46596ZM9.60939 26.8615C9.22359 27.7269 8.83881 28.5929 8.4547 29.4591C8.35767 29.6778 8.26055 29.8965 8.16343 30.1153C8.00096 30.4813 7.83894 30.8474 7.67722 31.2138C7.61456 31.3555 7.55176 31.4973 7.48882 31.6389C7.40032 31.8382 7.31232 32.0376 7.22444 32.2371C7.19805 32.2963 7.17166 32.3554 7.14446 32.4163C7.02055 32.6991 6.9189 32.9594 6.87501 33.2677C6.95776 33.2401 7.0405 33.2126 7.12575 33.1841C9.37612 32.434 9.37612 32.434 9.53736 32.3805C9.67468 32.3345 9.81156 32.2872 9.94838 32.2398C10.1838 32.1653 10.3833 32.1505 10.6299 32.1496C10.7081 32.1482 10.7864 32.1469 10.867 32.1456C11.1378 32.1795 11.2646 32.2468 11.4844 32.4083C11.6217 32.6228 11.6217 32.6228 11.7459 32.885C11.7687 32.9327 11.7915 32.9804 11.815 33.0296C12.099 33.6314 12.3557 34.2457 12.6123 34.8595C12.6625 34.9788 12.7127 35.098 12.7629 35.2172C12.884 35.5047 13.0046 35.7924 13.125 36.0802C13.3494 35.8558 13.4442 35.5778 13.5684 35.2904C13.5967 35.2258 13.625 35.1612 13.6541 35.0947C13.7467 34.883 13.8387 34.6711 13.9307 34.4591C13.994 34.3138 14.0573 34.1686 14.1206 34.0233C14.2166 33.803 14.3126 33.5826 14.4083 33.3622C14.5821 32.9623 14.7568 32.5629 14.9332 32.1641C15.0296 31.9462 15.1255 31.7282 15.2213 31.51C15.2658 31.4092 15.3104 31.3085 15.3552 31.2079C15.4167 31.0696 15.4774 30.931 15.538 30.7924C15.572 30.7155 15.6061 30.6385 15.6411 30.5592C15.6616 30.4991 15.682 30.439 15.7031 30.3771C15.6401 30.2095 15.6401 30.2095 15.4832 30.1581C15.4215 30.1377 15.3599 30.1173 15.2963 30.0963C15.2271 30.0727 15.1578 30.0491 15.0865 30.0247C15.0112 29.9992 14.9359 29.9737 14.8584 29.9474C13.1693 29.351 11.622 28.4982 10.2625 27.3253C10.0542 27.1543 9.83428 27.0096 9.60939 26.8615ZM30.0162 27.1193C28.5334 28.4259 26.7725 29.4061 24.9017 30.0326C24.8336 30.0555 24.7656 30.0783 24.6954 30.1018C24.6353 30.1212 24.5751 30.1406 24.5131 30.1606C24.3596 30.21 24.3596 30.21 24.2969 30.3771C24.3778 30.5912 24.4644 30.7968 24.5584 31.0051C24.5868 31.0693 24.6152 31.1335 24.6445 31.1996C24.738 31.4107 24.8324 31.6215 24.9268 31.8322C24.9911 31.9769 25.0553 32.1216 25.1195 32.2664C25.2501 32.561 25.381 32.8555 25.5121 33.15C25.766 33.721 26.0164 34.2937 26.2664 34.8665C26.3591 35.0791 26.4521 35.2915 26.545 35.504C26.629 35.6961 26.7129 35.8881 26.7969 36.0802C26.9869 35.8902 27.0522 35.7164 27.157 35.4687C27.1967 35.3754 27.2364 35.2821 27.2772 35.1861C27.319 35.087 27.3607 34.9879 27.4024 34.8888C27.6453 34.3163 27.6453 34.3163 27.7066 34.1723C27.8109 33.9272 27.9131 33.6815 28.0119 33.4342C28.032 33.3852 28.052 33.3361 28.0726 33.2856C28.1276 33.1505 28.1818 33.0151 28.2359 32.8796C28.3957 32.5731 28.5932 32.3305 28.9063 32.174C29.8152 32.0233 30.6665 32.4192 31.5039 32.7208C31.6539 32.7737 31.804 32.8264 31.9541 32.8789C32.3189 33.007 32.683 33.1369 33.0469 33.2677C33.1595 32.93 33.0041 32.7156 32.8607 32.4093C32.8321 32.3465 32.8035 32.2838 32.7741 32.2192C32.7123 32.0839 32.6502 31.9487 32.5878 31.8138C32.424 31.4594 32.2626 31.104 32.1008 30.7488C32.0683 30.6775 32.0358 30.6063 32.0022 30.5329C31.7077 29.887 31.423 29.2372 31.1426 28.5851C31.1023 28.4915 31.062 28.3978 31.0205 28.3013C30.9475 28.1316 30.8745 27.9618 30.8015 27.792C30.6669 27.4808 30.5294 27.1708 30.3906 26.8615C30.2315 26.8615 30.1296 27.0188 30.0162 27.1193Z" fill="black"/>
<path d="M19.9948 7.37372C20.0728 7.37221 20.1509 7.3707 20.2313 7.36914C20.5494 7.42114 20.6932 7.50662 20.9371 7.7204C21.1065 7.97066 21.2376 8.23615 21.3717 8.50653C21.4141 8.58454 21.4564 8.66254 21.5001 8.74291C21.735 9.18586 21.9026 9.59319 22.0129 10.0831C22.1731 10.6812 22.3349 11.2832 22.8903 11.6266C23.9908 12.0471 25.2728 12.1028 26.4387 12.1748C27.0056 12.2151 27.3342 12.2869 27.7194 12.7253C27.8653 12.9633 27.9057 13.1739 27.9147 13.4479C27.9191 13.5345 27.9191 13.5345 27.9235 13.6228C27.8281 14.1718 27.3152 14.5506 26.9293 14.9109C26.8016 15.0332 26.6741 15.1556 26.5467 15.2781C26.3469 15.4697 26.1466 15.6603 25.9438 15.8488C25.7475 16.0319 25.5545 16.2181 25.3619 16.4051C25.3009 16.4603 25.24 16.5155 25.1772 16.5724C24.9344 16.8127 24.7773 16.9763 24.7422 17.324C24.7601 17.5658 24.7957 17.7953 24.8434 18.0329C24.8608 18.1471 24.8781 18.2613 24.8953 18.3755C24.9143 18.4803 24.9337 18.585 24.9536 18.6896C24.9747 18.8069 24.9958 18.9242 25.0169 19.0415C25.0497 19.221 25.0827 19.4004 25.1162 19.5798C25.4537 21.3999 25.4537 21.3999 25.1852 21.9782C24.8837 22.2956 24.6333 22.5014 24.1891 22.5446C23.6369 22.517 23.1828 22.2321 22.7086 21.9735C22.4601 21.8397 22.2093 21.7104 21.9583 21.5815C21.8623 21.5322 21.7664 21.4828 21.6705 21.4335C21.5988 21.3967 21.5988 21.3967 21.5257 21.3591C21.2938 21.2397 21.0621 21.12 20.8306 20.9998C20.7514 20.9588 20.6723 20.9178 20.5907 20.8755C20.3903 20.7673 20.3903 20.7673 20.1559 20.611C19.7619 20.6305 19.4116 20.8501 19.067 21.0261C18.9997 21.06 18.9323 21.094 18.8629 21.129C18.2471 21.4422 17.6406 21.7722 17.0366 22.1072C16.9677 22.1453 16.8989 22.1834 16.8279 22.2227C16.7671 22.2566 16.7063 22.2904 16.6436 22.3254C16.262 22.5227 15.8892 22.5345 15.4684 22.486C15.1046 22.2942 14.8186 22.0993 14.6871 21.7048C14.5998 20.8408 14.8059 19.9816 14.9606 19.1364C14.9999 18.9191 15.039 18.7018 15.0776 18.4843C15.1015 18.35 15.1258 18.2157 15.1506 18.0816C15.1616 18.0205 15.1725 17.9594 15.1838 17.8965C15.1935 17.8435 15.2032 17.7905 15.2133 17.7358C15.2746 17.3121 15.2746 17.3121 15.1224 16.9284C15.044 16.8523 15.044 16.8523 14.964 16.7746C14.905 16.7162 14.8461 16.6578 14.7854 16.5977C14.7209 16.5361 14.6565 16.4746 14.5901 16.4112C14.5246 16.3467 14.459 16.2822 14.3915 16.2158C14.1819 16.0098 13.9707 15.8055 13.7594 15.6013C13.5489 15.3962 13.3387 15.1909 13.1289 14.9851C12.9983 14.8571 12.8672 14.7296 12.7356 14.6027C12.6762 14.5448 12.6167 14.4869 12.5555 14.4272C12.5031 14.3766 12.4507 14.3259 12.3968 14.2738C12.1161 13.9598 12.0787 13.6953 12.0895 13.2865C12.1286 12.935 12.2721 12.7156 12.5143 12.4665C12.968 12.1842 13.4411 12.1596 13.9616 12.1542C15.727 12.1667 15.727 12.1667 17.2801 11.4753C17.9287 10.7133 18.2415 9.71552 18.5483 8.77856C18.7996 8.02543 19.1177 7.37485 19.9948 7.37372ZM19.9215 11.3923C19.8952 11.4494 19.8688 11.5065 19.8417 11.5654C19.721 11.8255 19.5991 12.0849 19.4772 12.3444C19.4357 12.4343 19.3943 12.5242 19.3516 12.6168C19.29 12.7471 19.29 12.7471 19.2272 12.88C19.19 12.9598 19.1528 13.0396 19.1144 13.1218C18.9136 13.4661 18.6623 13.7544 18.2809 13.8923C18.1206 13.9235 17.9591 13.949 17.7972 13.9704C17.7041 13.9833 17.611 13.9962 17.515 14.0095C17.3189 14.0355 17.1228 14.0616 16.9267 14.0876C16.7872 14.1069 16.7872 14.1069 16.6448 14.1266C16.5597 14.1379 16.4745 14.1492 16.3868 14.1608C16.156 14.1938 16.156 14.1938 15.9371 14.361C15.9967 14.4149 16.0562 14.4688 16.1175 14.5243C16.3713 14.7548 16.6232 14.9873 16.8746 15.2204C16.9441 15.2845 17.0136 15.3487 17.0852 15.4148C17.7013 16.0035 17.7013 16.0035 17.8121 16.4704C17.8236 17.0808 17.6924 17.6877 17.5722 18.2839C17.5174 18.5674 17.4947 18.7726 17.5778 19.0485C17.632 19.0178 17.6863 18.987 17.7422 18.9553C17.9923 18.815 18.2439 18.6779 18.4957 18.5407C18.6237 18.4681 18.6237 18.4681 18.7542 18.3939C19.3311 18.0833 19.8122 17.8959 20.4684 18.0329C20.8327 18.171 21.1652 18.3486 21.5035 18.5407C21.5925 18.5892 21.6814 18.6376 21.773 18.6875C21.9902 18.8061 22.2062 18.9265 22.4215 19.0485C22.5071 18.7874 22.4903 18.6048 22.4362 18.3372C22.4141 18.2218 22.4141 18.2218 22.3916 18.1042C22.3598 17.9442 22.3276 17.7843 22.2952 17.6244C22.1848 17.0434 22.1108 16.535 22.3898 15.9949C22.6315 15.7022 22.892 15.4364 23.1637 15.1716C23.2156 15.1204 23.2674 15.0693 23.3209 15.0165C23.4201 14.9187 23.5195 14.821 23.619 14.7235C23.7677 14.5776 23.9152 14.4306 24.0621 14.2829C23.9808 14.2687 23.8994 14.2545 23.8156 14.2399C23.6423 14.2096 23.4692 14.1791 23.2961 14.148C22.9916 14.0932 22.6872 14.0407 22.3812 13.9945C22.271 13.9767 22.1607 13.9589 22.0504 13.9411C21.9509 13.926 21.8514 13.9109 21.7489 13.8953C21.3296 13.7668 21.1326 13.5151 20.9323 13.1394C20.881 13.0343 20.8306 12.9288 20.7809 12.8229C20.7543 12.768 20.7277 12.7131 20.7003 12.6565C20.6472 12.5468 20.5944 12.4369 20.5419 12.3269C20.4419 12.1182 20.3381 11.9115 20.234 11.7048C20.1819 11.6006 20.1298 11.4964 20.0778 11.3923C20.0262 11.3923 19.9746 11.3923 19.9215 11.3923Z" fill="black"/>
</g>
<defs>
<clipPath id="clip0_254_122">
<rect width="40" height="40" fill="white" transform="translate(0 0.298828)"/>
</clipPath>
</defs>
</svg>
