<svg width="31" height="31" viewBox="0 0 31 31" fill="none" xmlns="http://www.w3.org/2000/svg">
<g clip-path="url(#clip0_742_28)">
<path d="M15.8824 5.2583C14.0756 5.2583 12.6055 6.72749 12.6055 8.53336C12.6055 10.339 14.0756 11.8082 15.8824 11.8082C17.6892 11.8082 19.1593 10.339 19.1593 8.53336C19.1593 6.72749 17.6892 5.2583 15.8824 5.2583ZM15.8824 10.0504C15.0447 10.0504 14.3633 9.3697 14.3633 8.53314C14.3633 7.69657 15.0447 7.01611 15.8824 7.01611C16.7201 7.01611 17.4014 7.69657 17.4014 8.53314C17.4014 9.36993 16.7201 10.0504 15.8824 10.0504Z" fill="black"/>
<path d="M26.1378 3.7481H23.5563V2.61377H23.9133C24.3988 2.61377 24.7922 2.22032 24.7922 1.73486C24.7922 1.2494 24.3988 0.855957 23.9133 0.855957H7.85226C7.3668 0.855957 6.97335 1.2494 6.97335 1.73486C6.97335 2.22032 7.3668 2.61377 7.85226 2.61377H8.20954V3.7481H5.62776C4.46527 3.7481 3.51953 4.69384 3.51953 5.85633V9.44015C3.51953 11.4314 5.13955 13.0514 7.13082 13.0514H8.31963C8.49724 14.1995 8.8868 15.3233 9.47182 16.3606C10.2578 17.7534 11.328 18.8721 12.5757 19.6073C12.5475 19.784 12.5331 19.9616 12.5331 20.1376C12.5331 21.1928 13.0403 22.1991 13.889 22.829C14.2284 23.0813 14.6052 23.2641 15.0039 23.3724V25.5745H12.4459C11.2949 25.5745 10.3585 26.511 10.3585 27.6619C10.3585 29.4231 11.7913 30.8559 13.5525 30.8559H18.213C19.9743 30.8559 21.4071 29.4231 21.4071 27.6619C21.4071 26.511 20.4707 25.5745 19.3197 25.5745H16.7617V23.3724C17.1604 23.2641 17.5369 23.0815 17.8761 22.8293C18.7255 22.1989 19.2325 21.1925 19.2325 20.1374C19.2325 19.9598 19.2183 19.7819 19.1901 19.6073C20.4371 18.873 21.5075 17.754 22.294 16.3604C22.8788 15.3233 23.2686 14.1995 23.4459 13.0514H24.6348C26.626 13.0514 28.246 11.4314 28.246 9.44015V5.85633C28.246 4.69384 27.3003 3.7481 26.1378 3.7481ZM19.6493 27.6619C19.6493 28.4538 19.005 29.0981 18.213 29.0981H13.5525C12.7606 29.0981 12.1163 28.4538 12.1163 27.6619C12.1163 27.4801 12.2642 27.3323 12.4459 27.3323H19.3197C19.5014 27.3323 19.6493 27.4801 19.6493 27.6619ZM5.27734 9.44015V5.85633C5.27734 5.66315 5.43458 5.50591 5.62776 5.50591H8.20931V11.2936H7.13082C6.10887 11.2936 5.27734 10.4621 5.27734 9.44015ZM20.763 15.4966C20.1018 16.6682 19.2061 17.5908 18.173 18.1642C17.5996 18.4823 17.297 19.1518 17.4373 19.795C17.4621 19.9071 17.4747 20.0223 17.4747 20.1376C17.4747 20.6464 17.2391 21.1131 16.8281 21.4182C16.5525 21.6231 16.2257 21.7311 15.8828 21.7311C15.5399 21.7311 15.2131 21.6231 14.937 21.4177C14.5264 21.1131 14.2909 20.6464 14.2909 20.1376C14.2909 20.0241 14.3037 19.9078 14.3289 19.7925C14.4685 19.1509 14.1655 18.4812 13.5928 18.1644C12.5592 17.5904 11.6636 16.668 11.0026 15.4968C10.3253 14.2959 9.96712 12.9569 9.96712 11.6251V2.61377H21.7985V11.6251C21.7985 12.9569 21.4403 14.2959 20.763 15.4966ZM26.4882 9.44015C26.4882 10.4621 25.6567 11.2936 24.6348 11.2936H23.5563V5.50591H26.1378C26.331 5.50591 26.4882 5.66292 26.4882 5.85633V9.44015Z" fill="black"/>
</g>
<defs>
<clipPath id="clip0_742_28">
<rect width="30" height="30" fill="white" transform="translate(0.882812 0.855957)"/>
</clipPath>
</defs>
</svg>
