<svg width="30" height="31" viewBox="0 0 30 31" fill="none" xmlns="http://www.w3.org/2000/svg">
<g clip-path="url(#clip0_258_147)">
<path d="M27.3564 0.970703H2.64359C1.18584 0.970703 0 2.15654 0 3.61429V22.4677C0 23.9255 1.18584 25.1113 2.64359 25.1113H11.5407L9.90005 29.2129H8.73734C8.25188 29.2129 7.85843 29.6063 7.85843 30.0918C7.85843 30.5773 8.25188 30.9707 8.73734 30.9707H21.2473C21.7328 30.9707 22.1262 30.5773 22.1262 30.0918C22.1262 29.6063 21.7328 29.2129 21.2473 29.2129H20.0846L18.444 25.1113H27.3564C28.8142 25.1113 30 23.9255 30 22.4677V3.61429C30 2.15654 28.8142 0.970703 27.3564 0.970703ZM2.64359 2.72852H27.3564C27.8448 2.72852 28.2422 3.12585 28.2422 3.61429V11.6918H9.38438V10.3549H15.1456C16.0329 10.3549 16.7548 9.63319 16.7548 8.74582V5.43047C16.7548 4.54309 16.0329 3.8212 15.1456 3.8212H9.23561C8.34824 3.8212 7.62657 4.54309 7.62657 5.43047V11.6918H1.75781V3.61429C1.75781 3.12585 2.15515 2.72852 2.64359 2.72852ZM1.75781 13.4496H7.62657V15.5319H7.3336C6.84814 15.5319 6.4547 15.9256 6.4547 16.4108C6.4547 16.8963 6.84814 17.2897 7.3336 17.2897H9.67735C10.1626 17.2897 10.5563 16.8963 10.5563 16.4108C10.5563 15.9256 10.1626 15.5319 9.67735 15.5319H9.38438V13.4496H28.2422V19.2442H1.75781V13.4496ZM9.38438 5.57901H14.997V8.59705H9.38438V5.57901ZM18.1913 29.2129H11.7934L13.434 25.1113H16.5507L18.1913 29.2129ZM27.3564 23.3535H2.64359C2.15515 23.3535 1.75781 22.9562 1.75781 22.4677V21.002H28.2422V22.4677C28.2422 22.9562 27.8448 23.3535 27.3564 23.3535Z" fill="black"/>
<path d="M22.4189 15.532H20.0752C19.5897 15.532 19.1963 15.9257 19.1963 16.4109C19.1963 16.8963 19.5897 17.2898 20.0752 17.2898H22.4189C22.9044 17.2898 23.2979 16.8963 23.2979 16.4109C23.2979 15.9257 22.9044 15.532 22.4189 15.532Z" fill="black"/>
</g>
<defs>
<clipPath id="clip0_258_147">
<rect width="30" height="30" fill="white" transform="translate(0 0.970703)"/>
</clipPath>
</defs>
</svg>
