<svg width="30" height="30" viewBox="0 0 30 30" fill="none" xmlns="http://www.w3.org/2000/svg">
<path d="M6.82674 2.12035C7.28298 2.35662 7.4841 2.6491 7.73128 3.08715C7.76376 3.14343 7.79624 3.1997 7.8297 3.25768C7.89933 3.37848 7.96866 3.49944 8.03773 3.62056C8.14542 3.80914 8.25416 3.99708 8.36322 4.18487C8.54808 4.50334 8.73161 4.82254 8.91471 5.14202C9.02339 5.33096 9.13303 5.51932 9.24282 5.70762C9.31151 5.82655 9.38017 5.94549 9.44881 6.06444C9.48027 6.11792 9.51173 6.17139 9.54414 6.22648C9.84214 6.74639 10.0542 7.24998 9.90291 7.85155C9.64853 8.56215 9.12429 8.84976 8.49666 9.21752C8.43197 9.25586 8.36729 9.29419 8.30064 9.33369C8.17176 9.41007 8.04279 9.48631 7.91373 9.56239C7.67638 9.70254 7.44008 9.8444 7.20394 9.98656C7.1349 10.028 7.06585 10.0694 6.9968 10.1108C6.95035 10.1387 6.9039 10.1666 6.85604 10.1953C6.88675 10.6441 7.00072 11.0376 7.14534 11.4624C7.16872 11.5317 7.1921 11.6009 7.21618 11.6723C7.44963 12.3498 7.72868 13.0018 8.02791 13.6523C8.07043 13.7469 8.11293 13.8415 8.1554 13.9361C9.09715 16.0059 10.3837 18.0494 11.9372 19.7184C12.0899 19.8839 12.2347 20.0552 12.3776 20.2293C12.5148 20.3656 12.6698 20.4629 12.8326 20.5664C13.0426 20.4529 13.2525 20.3394 13.4625 20.2258C13.5256 20.1917 13.5888 20.1575 13.6539 20.1223C13.9655 19.9535 14.2768 19.7842 14.587 19.6126C14.6402 19.5832 14.6934 19.5538 14.7483 19.5235C14.8489 19.4677 14.9494 19.4119 15.0498 19.3559C15.095 19.3309 15.1401 19.3059 15.1866 19.2801C15.2259 19.2582 15.2651 19.2364 15.3055 19.2139C15.6762 19.0246 16.1664 19.0433 16.5636 19.1395C17.1623 19.3815 17.4545 19.8967 17.7545 20.4382C17.8118 20.5398 17.8692 20.6413 17.9266 20.7428C17.986 20.848 18.0452 20.9533 18.1043 21.0586C18.2578 21.3315 18.4148 21.6023 18.5719 21.8733C18.7171 22.1238 18.8614 22.3749 19.0058 22.6259C19.0929 22.777 19.1805 22.9277 19.2683 23.0784C19.9184 24.2016 19.9184 24.2016 19.7737 24.7982C19.6266 25.2823 19.3764 25.6446 18.9352 25.9034C18.8135 25.9665 18.6908 26.0264 18.567 26.0852C18.5212 26.1075 18.4754 26.1297 18.4282 26.1526C18.2795 26.2246 18.1305 26.2959 17.9815 26.3672C17.8786 26.4168 17.7757 26.4665 17.6729 26.5162C16.8765 26.9001 16.0763 27.2755 15.2718 27.642C15.133 27.7076 14.9995 27.7788 14.8648 27.8524C14.5745 27.9979 14.3387 27.9769 14.0287 27.8908C13.9544 27.8636 13.8804 27.8354 13.8067 27.8064C13.7664 27.7908 13.7261 27.7751 13.6846 27.7591C12.616 27.3313 11.6608 26.6946 10.7818 25.957C10.7262 25.9122 10.6706 25.8674 10.6134 25.8213C10.1253 25.4218 9.6783 24.9817 9.23275 24.5361C9.20226 24.5057 9.17178 24.4753 9.14037 24.4439C8.79598 24.0995 8.46019 23.7507 8.1451 23.3789C8.09303 23.319 8.04093 23.2592 7.98877 23.1995C7.56835 22.7093 7.17929 22.2003 6.79744 21.6797C6.76677 21.6382 6.73609 21.5967 6.70449 21.554C4.02351 17.9269 1.87896 13.6688 1.11385 9.19921C1.10231 9.135 1.10231 9.135 1.09053 9.06949C0.879825 7.86081 0.89111 6.46873 1.17244 5.27343C1.18281 5.21398 1.18281 5.21398 1.19339 5.15334C1.26122 4.94743 1.47007 4.85559 1.64486 4.74242C1.731 4.68499 1.81714 4.62754 1.90326 4.57008C1.94746 4.54091 1.99165 4.51175 2.03719 4.4817C2.23899 4.34777 2.43806 4.20997 2.63729 4.07226C2.7154 4.01852 2.79352 3.96481 2.87166 3.91112C2.91033 3.88454 2.94901 3.85795 2.98885 3.83056C3.10604 3.74999 3.22322 3.66943 3.34041 3.58886C3.37911 3.56225 3.41781 3.53564 3.45769 3.50822C3.53551 3.45473 3.61335 3.40125 3.6912 3.3478C3.89127 3.21041 4.09101 3.07259 4.29027 2.93403C5.91426 1.80674 5.91426 1.80674 6.82674 2.12035Z" fill="black"/>
<path d="M29.0035 7.14844C29.0102 8.87222 29.0154 10.596 29.0185 12.3198C29.0188 12.5234 29.0192 12.727 29.0196 12.9306C29.0197 12.9711 29.0198 13.0116 29.0198 13.0534C29.0211 13.7093 29.0234 14.3653 29.0261 15.0212C29.0289 15.6944 29.0305 16.3677 29.0311 17.0409C29.0315 17.419 29.0324 17.797 29.0345 18.1751C29.0365 18.531 29.0371 18.8869 29.0367 19.2428C29.0367 19.3733 29.0373 19.5039 29.0384 19.6345C29.0399 19.8129 29.0395 19.9913 29.0387 20.1697C29.0396 20.2213 29.0405 20.2728 29.0413 20.3259C29.0369 20.6899 28.9386 20.9271 28.7105 21.2109C28.4254 21.4818 28.1664 21.5773 27.7757 21.5766C27.7058 21.5768 27.6359 21.5769 27.5639 21.5771C27.4877 21.5767 27.4115 21.5762 27.333 21.5758C27.2515 21.5758 27.1701 21.5758 27.0886 21.5759C26.868 21.5759 26.6473 21.5752 26.4266 21.5744C26.1959 21.5736 25.9651 21.5736 25.7343 21.5734C25.2975 21.5731 24.8607 21.5721 24.4239 21.5709C23.9265 21.5696 23.4291 21.569 22.9318 21.5684C21.9088 21.5672 20.8859 21.5651 19.8629 21.5625C19.8401 21.5216 19.8172 21.4806 19.7937 21.4384C19.6881 21.2493 19.5824 21.0602 19.4768 20.871C19.4409 20.8067 19.405 20.7423 19.368 20.676C18.3983 18.8406 18.3983 18.8406 16.6448 17.8392C16.4402 17.7943 16.2335 17.7968 16.025 17.7942C15.9816 17.7925 15.9383 17.7908 15.8936 17.789C15.1586 17.7809 14.5348 18.1527 13.912 18.501C13.8016 18.5624 13.6912 18.6236 13.5805 18.6843C13.4814 18.7387 13.3827 18.7938 13.284 18.8488C13.1246 18.9258 13.1246 18.9258 12.9488 18.9258C10.9691 17.1328 9.55923 14.2169 8.61289 11.7773C8.58624 11.7094 8.58624 11.7094 8.55905 11.64C8.30766 10.9938 8.30766 10.9938 8.37852 10.7812C8.53019 10.6736 8.53019 10.6736 8.73077 10.5544C8.76626 10.5331 8.80176 10.5118 8.83834 10.4899C8.95211 10.4217 9.0663 10.3543 9.18052 10.2869C9.2936 10.2195 9.4066 10.152 9.51956 10.0845C9.62275 10.0229 9.72615 9.96164 9.82956 9.90041C10.0137 9.78845 10.1923 9.67163 10.3707 9.55078C10.4528 9.60732 10.4528 9.60732 10.5366 9.66499C10.979 9.96932 11.4216 10.2731 11.8648 10.5762C12.207 10.8101 12.5488 11.0444 12.8902 11.2793C13.4169 11.6417 13.9446 12.0025 14.4723 12.3633C14.6615 12.4927 14.8507 12.6221 15.0399 12.7515C15.0862 12.7831 15.1325 12.8148 15.1803 12.8474C15.435 13.0217 15.6893 13.1964 15.9433 13.3718C16.0955 13.4768 16.2482 13.5812 16.4008 13.6855C16.4873 13.7449 16.5735 13.8047 16.6595 13.8648C16.8003 13.9631 16.9418 14.0605 17.0834 14.1577C17.1266 14.1883 17.1698 14.2188 17.2144 14.2503C17.469 14.4237 17.6697 14.5446 17.9879 14.5312C18.3416 14.3876 18.6515 14.1507 18.9584 13.927C19.3746 13.6281 19.7982 13.3419 20.2254 13.0591C20.66 12.7711 21.0889 12.4788 21.5111 12.1729C21.8242 11.9483 22.1441 11.7335 22.463 11.5173C22.4951 11.4956 22.5272 11.4738 22.5602 11.4514C22.7177 11.3446 22.8752 11.2379 23.0327 11.1311C23.2535 10.9811 23.4736 10.8302 23.6935 10.6787C24.0275 10.4486 24.362 10.2192 24.6969 9.99023C25.039 9.75631 25.3809 9.52205 25.7223 9.28711C26.0637 9.05217 26.4056 8.81792 26.7477 8.58398C27.1006 8.34257 27.4535 8.10098 27.806 7.85889C27.8444 7.83262 27.8827 7.80635 27.9222 7.77928C28.1897 7.59564 28.4539 7.40768 28.7154 7.2155C28.8277 7.14844 28.8277 7.14844 29.0035 7.14844Z" fill="black"/>
<path d="M11.0742 6.26953C16.585 6.26953 22.0957 6.26953 27.7734 6.26953C27.5894 6.45358 27.4451 6.57451 27.2314 6.71265C26.9495 6.8974 26.6702 7.08514 26.3928 7.27661C26.3128 7.33178 26.2328 7.38694 26.1527 7.44209C26.1115 7.47052 26.0702 7.49895 26.0277 7.52824C25.7994 7.68532 25.5706 7.84165 25.3418 7.99805C24.9997 8.23197 24.6578 8.46624 24.3164 8.70117C23.7423 9.09621 23.1669 9.48942 22.5916 9.88277C22.0735 10.2371 21.5556 10.5916 21.0385 10.9474C20.6879 11.1887 20.3366 11.4289 19.9853 11.6691C19.7213 11.8496 19.4576 12.0306 19.1943 12.2122C19.0791 12.2915 18.9637 12.3706 18.8482 12.4496C18.7067 12.5464 18.5663 12.6446 18.4266 12.7439C18.3641 12.7875 18.3017 12.8311 18.2373 12.876C18.1832 12.9143 18.1291 12.9527 18.0734 12.9922C17.9297 13.0664 17.9297 13.0664 17.8118 13.0609C17.6625 12.9929 17.5342 12.9102 17.3987 12.8174C17.3367 12.7752 17.2747 12.7329 17.2108 12.6894C17.1762 12.6657 17.1416 12.6419 17.106 12.6174C16.9814 12.5316 16.8565 12.4464 16.7315 12.3612C16.2522 12.0342 15.7741 11.7055 15.2961 11.3766C14.8074 11.0405 14.3177 10.7059 13.8281 10.3711C13.6389 10.2417 13.4497 10.1123 13.2605 9.98291C13.2144 9.95141 13.1684 9.91991 13.1209 9.88745C12.86 9.70896 12.5995 9.53 12.3392 9.35061C11.9201 9.06181 11.4988 8.77675 11.0742 8.49609C11.0953 8.40455 11.0953 8.40455 11.1168 8.31116C11.2722 7.58153 11.2205 7.00096 11.0742 6.26953Z" fill="black"/>
</svg>
