<svg width="28" height="29" viewBox="0 0 28 29" fill="none" xmlns="http://www.w3.org/2000/svg">
<rect x="6.64844" y="7.61902" width="14.7041" height="14.7041" fill="black"/>
<path fill-rule="evenodd" clip-rule="evenodd" d="M14 28.9711C15.8385 28.9711 17.659 28.6089 19.3576 27.9054C21.0561 27.2018 22.5995 26.1706 23.8995 24.8706C25.1995 23.5705 26.2307 22.0272 26.9343 20.3286C27.6379 18.6301 28 16.8096 28 14.9711C28 13.1326 27.6379 11.3121 26.9343 9.6135C26.2307 7.91494 25.1995 6.37159 23.8995 5.07157C22.5995 3.77155 21.0561 2.74032 19.3576 2.03676C17.659 1.33319 15.8385 0.971069 14 0.971069C10.287 0.971069 6.72601 2.44606 4.10051 5.07157C1.475 7.69708 0 11.258 0 14.9711C0 18.6841 1.475 22.2451 4.10051 24.8706C6.72601 27.4961 10.287 28.9711 14 28.9711ZM13.6391 20.6333L21.4169 11.3L19.0276 9.30885L12.3387 17.334L8.87755 13.8713L6.678 16.0708L11.3447 20.7375L12.5487 21.9415L13.6391 20.6333Z" fill="#FDF567"/>
</svg>
