<svg width="30" height="30" viewBox="0 0 30 30" fill="none" xmlns="http://www.w3.org/2000/svg">
<g clip-path="url(#clip0_195_385)">
<path d="M25.6066 4.39339C22.7735 1.56029 19.0066 0 15 0C10.9934 0 7.22649 1.56029 4.39339 4.39339C1.56029 7.22649 0 10.9934 0 15C0 19.0066 1.56029 22.7735 4.39339 25.6066C7.22649 28.4397 10.9934 30 15 30C19.0066 30 22.7735 28.4397 25.6066 25.6066C28.4397 22.7735 30 19.0066 30 15C30 10.9934 28.4397 7.22649 25.6066 4.39339ZM24.3636 5.63644C26.8648 8.13744 28.2422 11.4629 28.2422 15C28.2422 18.4843 26.9055 21.7632 24.4748 24.2512C23.9683 24.7412 23.2313 25.074 22.281 25.2411C21.3469 25.4052 20.2329 25.3999 19.0597 25.2262C15.2355 24.6593 11.9453 23.1413 9.54506 20.8365C7.06261 18.4525 5.61813 15.2769 5.36728 11.6531C5.11803 8.05252 5.95711 5.1947 7.61169 4.00841L7.61055 4.00658C9.77692 2.54379 12.328 1.75781 15 1.75781C18.5371 1.75781 21.8626 3.13522 24.3636 5.63644ZM5.63644 24.3636C3.13522 21.8626 1.75781 18.5371 1.75781 15C1.75781 12.4903 2.45132 10.0873 3.74748 8.00949C3.52112 9.50523 3.55362 10.9078 3.61359 11.7744C3.89511 15.8409 5.52521 19.4131 8.32764 22.1043C10.9925 24.6636 14.6146 26.3443 18.802 26.965C19.3369 27.0442 19.864 27.0927 20.3746 27.1101C18.7047 27.8522 16.8823 28.2422 15 28.2422C11.4629 28.2422 8.13744 26.8648 5.63644 24.3636Z" fill="#FDF567"/>
<path d="M17.1055 10.1488C17.2774 10.3219 17.5033 10.4086 17.7294 10.4086C17.9533 10.4086 18.1771 10.3237 18.3485 10.1537C18.693 9.8117 18.6951 9.25506 18.3533 8.9106L16.4909 7.03399C16.1492 6.68953 15.5926 6.68724 15.2481 7.02919C14.9036 7.37114 14.9013 7.92755 15.2433 8.27224L17.1055 10.1488Z" fill="#FDF567"/>
<path d="M22.6982 9.59244C22.8701 9.76547 23.096 9.85222 23.3221 9.85222C23.5459 9.85222 23.7698 9.7673 23.9412 9.59724C24.2857 9.25529 24.288 8.69888 23.946 8.35418L22.0838 6.47758C21.7419 6.13312 21.1855 6.13083 20.8408 6.47278C20.4963 6.81473 20.4943 7.37114 20.836 7.71583L22.6982 9.59244Z" fill="#FDF567"/>
<path d="M22.1465 15.23C22.3184 15.4033 22.5443 15.4898 22.7704 15.4898C22.9943 15.4898 23.2181 15.4049 23.3895 15.2348C23.734 14.8929 23.7361 14.3365 23.3944 13.992L21.5319 12.1152C21.1902 11.7707 20.6336 11.7684 20.2891 12.1104C19.9446 12.4523 19.9424 13.0087 20.2843 13.3534L22.1465 15.23Z" fill="#FDF567"/>
</g>
<defs>
<clipPath id="clip0_195_385">
<rect width="30" height="30" fill="white"/>
</clipPath>
</defs>
</svg>
