<svg width="30" height="31" viewBox="0 0 30 31" fill="none" xmlns="http://www.w3.org/2000/svg">
<g clip-path="url(#clip0_258_243)">
<path d="M27.3669 25.6982H22.3206V21.4573C25.8685 21.0217 28.6251 17.9831 28.6251 14.3114C28.6251 10.3416 25.4027 7.11189 21.4417 7.11189C17.4806 7.11189 14.2582 10.3416 14.2582 14.3114C14.2582 17.9831 17.0148 21.0217 20.5627 21.4573V25.6982H8.35464V20.2495H9.06761C10.1701 20.2495 11.2173 19.7716 11.9403 18.9384C12.6643 18.1044 12.9902 16.9987 12.8348 15.9048L11.3972 5.79147C11.207 4.45412 10.5412 3.23029 9.52194 2.34497C8.5025 1.45943 7.19765 0.97168 5.84793 0.97168C4.9308 0.97168 4.14185 1.65672 4.01276 2.56516L2.11647 15.9048C1.96083 16.9987 2.28699 18.1044 3.01094 18.9384C3.73398 19.7716 4.78111 20.2495 5.88364 20.2495H6.59683V25.698H2.63306C1.18126 25.6982 0 26.8793 0 28.3313V28.3386C0 29.7904 1.18126 30.9717 2.63306 30.9717H27.3669C28.8187 30.9717 30 29.7904 30 28.3386V28.3313C30 26.8793 28.8187 25.6982 27.3669 25.6982ZM16.016 14.3114C16.016 11.311 18.4499 8.86971 21.4417 8.86971C24.4334 8.86971 26.8673 11.311 26.8673 14.3114C26.8673 17.0119 24.8959 19.2593 22.3206 19.6819V15.0887C22.3206 14.6032 21.9271 14.2097 21.4417 14.2097C20.9564 14.2097 20.5627 14.6032 20.5627 15.0887V19.6819C17.9876 19.2593 16.016 17.0119 16.016 14.3114ZM5.88364 18.4917C5.2906 18.4917 4.72755 18.2344 4.33846 17.7863C3.94867 17.3372 3.77289 16.7414 3.85666 16.1523L5.75317 2.81258C5.75981 2.7652 5.80055 2.72949 5.84793 2.72949C6.77422 2.72949 7.6696 3.06412 8.36906 3.67203C9.06898 4.27994 9.52629 5.12039 9.65675 6.03889L11.0946 16.1523C11.1784 16.7416 11.0028 17.3372 10.6128 17.7865C10.2237 18.2346 9.66064 18.4917 9.06761 18.4917H8.35464V13.0333C8.35464 12.5478 7.96097 12.1544 7.47574 12.1544C6.99028 12.1544 6.59683 12.5478 6.59683 13.0333V18.4917H5.88364ZM28.2422 28.3386C28.2422 28.8213 27.8497 29.2139 27.3669 29.2139H2.63306C2.15034 29.2139 1.75781 28.8213 1.75781 28.3386V28.3313C1.75781 27.8486 2.15034 27.4561 2.63306 27.4561H27.3669C27.8494 27.4561 28.2422 27.8486 28.2422 28.3313V28.3386Z" fill="black"/>
</g>
<defs>
<clipPath id="clip0_258_243">
<rect width="30" height="30" fill="white" transform="translate(0 0.97168)"/>
</clipPath>
</defs>
</svg>
