<svg width="30" height="30" viewBox="0 0 30 30" fill="none" xmlns="http://www.w3.org/2000/svg">
<g clip-path="url(#clip0_195_393)">
<path d="M23.2674 16.5106H8.77144V9.71764H18.2881C19.6864 9.71764 20.8241 8.57986 20.8241 7.18163V2.53601C20.8241 1.13754 19.6864 0 18.2881 0H9.54941C8.15117 0 7.01363 1.13754 7.01363 2.53601V16.5106H6.73256C3.0201 16.5106 0 19.5309 0 23.2432V23.2677C0 26.9799 3.0201 30 6.73256 30H23.2674C26.9799 30 30 26.9799 30 23.2674V23.2432C30 19.5309 26.9799 16.5106 23.2674 16.5106ZM8.77144 5.73784H13.0399V7.95982H8.77144V5.73784ZM18.2881 7.95982H14.7977V5.73784H19.0663V7.18163C19.0663 7.61078 18.717 7.95982 18.2881 7.95982ZM19.0663 2.53601V3.98003H14.7977V1.75781H18.2881C18.717 1.75781 19.0663 2.10686 19.0663 2.53601ZM8.77144 2.53601C8.77144 2.10686 9.12048 1.75781 9.54941 1.75781H13.0399V3.98003H8.77121V2.53601H8.77144ZM28.2422 23.2674C28.2422 26.0106 26.0106 28.2422 23.2674 28.2422H6.73256C3.98941 28.2422 1.75781 26.0106 1.75781 23.2674V23.2432C1.75781 20.5 3.98941 18.2684 6.73256 18.2684H7.01363V22.3764H6.13472C5.64926 22.3764 5.25581 22.7699 5.25581 23.2553C5.25581 23.7408 5.64926 24.1342 6.13472 24.1342H9.65034C10.1356 24.1342 10.5293 23.7408 10.5293 23.2553C10.5293 22.7699 10.1356 22.3764 9.65034 22.3764H8.77144V18.2684H23.2674C26.0106 18.2684 28.2422 20.5 28.2422 23.2432V23.2674Z" fill="#FDF567"/>
<path d="M23.873 22.3764H22.1152C21.63 22.3764 21.2363 22.7699 21.2363 23.2553C21.2363 23.7408 21.63 24.1342 22.1152 24.1342H23.873C24.3585 24.1342 24.752 23.7408 24.752 23.2553C24.752 22.7699 24.3585 22.3764 23.873 22.3764Z" fill="#FDF567"/>
</g>
<defs>
<clipPath id="clip0_195_393">
<rect width="30" height="30" fill="white"/>
</clipPath>
</defs>
</svg>
