<svg width="60" height="60" viewBox="0 0 60 60" fill="none" xmlns="http://www.w3.org/2000/svg">
<g clip-path="url(#clip0_80_141)">
<path d="M54.7339 49.4531H44.6411V40.9712C51.7369 40.1001 57.2502 34.0228 57.2502 26.6794C57.2502 18.7399 50.8054 12.2804 42.8833 12.2804C34.9612 12.2804 28.5164 18.7399 28.5164 26.6794C28.5164 34.0228 34.0297 40.1001 41.1255 40.9712V49.4531H16.7093V38.5556H18.1352C20.3403 38.5556 22.4345 37.5998 23.8806 35.9335C25.3285 34.2654 25.9804 32.054 25.6696 29.8663L22.7943 9.63959C22.4139 6.96487 21.0823 4.51721 19.0439 2.74658C17.005 0.975494 14.3953 0 11.6959 0C9.8616 0 8.28369 1.37009 8.02551 3.18695L4.23294 29.8663C3.92166 32.054 4.57397 34.2654 6.02188 35.9335C7.46796 37.5998 9.56223 38.5556 11.7673 38.5556H13.1937V49.4527H5.26611C2.36252 49.4531 0 51.8152 0 54.7192V54.7339C0 57.6375 2.36252 60 5.26611 60H54.7339C57.6375 60 60 57.6375 60 54.7339V54.7192C60 51.8152 57.6375 49.4531 54.7339 49.4531ZM32.032 26.6794C32.032 20.6786 36.8999 15.7961 42.8833 15.7961C48.8667 15.7961 53.7346 20.6786 53.7346 26.6794C53.7346 32.0805 49.7919 36.5753 44.6411 37.4203V28.2339C44.6411 27.263 43.8542 26.4761 42.8833 26.4761C41.9128 26.4761 41.1255 27.263 41.1255 28.2339V37.4203C35.9752 36.5753 32.032 32.0805 32.032 26.6794ZM11.7673 35.04C10.5812 35.04 9.45511 34.5255 8.67691 33.6292C7.89734 32.731 7.54578 31.5395 7.71332 30.3612L11.5063 3.68179C11.5196 3.58704 11.6011 3.51562 11.6959 3.51562C13.5484 3.51562 15.3392 4.18488 16.7381 5.4007C18.138 6.61652 19.0526 8.29742 19.3135 10.1344L22.1892 30.3612C22.3567 31.5399 22.0056 32.731 21.2256 33.6296C20.4474 34.5259 19.3213 35.04 18.1352 35.04H16.7093V24.1232C16.7093 23.1523 15.9219 22.3654 14.9515 22.3654C13.9806 22.3654 13.1937 23.1523 13.1937 24.1232V35.04H11.7673ZM56.4844 54.7339C56.4844 55.6993 55.6993 56.4844 54.7339 56.4844H5.26611C4.30069 56.4844 3.51562 55.6993 3.51562 54.7339V54.7192C3.51562 53.7538 4.30069 52.9688 5.26611 52.9688H54.7339C55.6989 52.9688 56.4844 53.7538 56.4844 54.7192V54.7339Z" fill="black"/>
</g>
<defs>
<clipPath id="clip0_80_141">
<rect width="60" height="60" fill="white"/>
</clipPath>
</defs>
</svg>
