<svg width="30" height="31" viewBox="0 0 30 31" fill="none" xmlns="http://www.w3.org/2000/svg">
<g clip-path="url(#clip0_195_619)">
<path d="M15.8443 13.4326C16.0162 13.6054 16.2418 13.6919 16.4677 13.6919C16.6918 13.6919 16.9159 13.6067 17.0873 13.4362C17.4316 13.094 17.4332 12.5376 17.091 12.1932L15.7696 10.8638C15.4275 10.5196 14.8711 10.5178 14.5268 10.8602C14.1826 11.2023 14.181 11.7587 14.5232 12.1032L15.8443 13.4326Z" fill="black"/>
<path d="M19.8131 13.0383C19.985 13.2111 20.2107 13.2976 20.4366 13.2976C20.6604 13.2976 20.8845 13.2124 21.0562 13.0419C21.4004 12.6998 21.402 12.1433 21.0598 11.7989L19.7385 10.4695C19.3963 10.1253 18.8399 10.1235 18.4957 10.4659C18.1514 10.808 18.1496 11.3645 18.4918 11.7089L19.8131 13.0383Z" fill="black"/>
<path d="M19.4215 17.0318C19.5934 17.2046 19.8191 17.2912 20.045 17.2912C20.2688 17.2912 20.4929 17.206 20.6644 17.0357C21.0086 16.6933 21.0104 16.1369 20.6682 15.7927L19.3469 14.4631C19.0047 14.1189 18.4483 14.1173 18.1041 14.4594C17.7598 14.8016 17.758 15.3583 18.1002 15.7025L19.4215 17.0318Z" fill="black"/>
<path d="M1.49844 21.9632C2.02189 21.4429 2.87379 21.4429 3.39747 21.9632C4.60413 23.1625 6.56771 23.1625 7.77437 21.9632C8.29805 21.4429 9.14995 21.4429 9.6734 21.9632C10.8803 23.1627 12.8439 23.1625 14.0505 21.9632C14.574 21.4429 15.4259 21.4429 15.9493 21.9632C17.1562 23.1625 19.1198 23.1625 20.3265 21.9632C20.8502 21.4429 21.7018 21.4429 22.2255 21.9632C22.8288 22.5628 23.6214 22.8627 24.4138 22.8627C25.2065 22.8627 25.9991 22.5628 26.6026 21.9632C27.1261 21.4429 27.978 21.4429 28.5014 21.9632C28.8457 22.3053 29.4023 22.3037 29.7445 21.9593C30.0867 21.615 30.0848 21.0584 29.7406 20.7162C28.5337 19.5169 26.5701 19.5171 25.3635 20.7162C25.1998 20.8787 25.0041 20.9906 24.7965 21.0515C25.5205 19.5727 25.8984 17.9456 25.8984 16.2784C25.8984 10.2781 21.0095 5.39624 14.9999 5.39624C8.99065 5.39624 4.10151 10.2781 4.10151 16.2784C4.10151 17.9456 4.47962 19.5727 5.20334 21.0515C4.99575 20.9904 4.80005 20.8787 4.6364 20.7162C3.42974 19.5169 1.46616 19.5169 0.25927 20.7162C-0.0849682 21.0584 -0.0865703 21.6148 0.255379 21.9593C0.597786 22.3037 1.1542 22.3053 1.49844 21.9632ZM14.9999 7.15428C20.0401 7.15428 24.1406 11.2474 24.1406 16.2784C24.1406 17.7353 23.7968 19.1548 23.1394 20.4349C21.9275 19.5256 20.191 19.6194 19.0875 20.7164C18.5641 21.2367 17.7122 21.2367 17.1885 20.7162C15.9818 19.5169 14.0183 19.5171 12.8116 20.7164C12.2879 21.2367 11.436 21.2367 10.9126 20.7162C9.8089 19.6196 8.07237 19.5258 6.86067 20.4351C6.20333 19.1548 5.85932 17.735 5.85932 16.2784C5.85932 11.2474 9.95973 7.15428 14.9999 7.15428Z" fill="black"/>
<path d="M25.3636 24.2263C24.8401 24.7465 23.9882 24.7465 23.4648 24.2263C22.2579 23.0269 20.2943 23.0269 19.0876 24.2263C18.5642 24.7465 17.7123 24.7465 17.1886 24.2263C15.9817 23.0269 14.0183 23.0267 12.8115 24.2263C12.288 24.7465 11.4361 24.7465 10.9124 24.2263C9.70576 23.0269 7.74218 23.0269 6.53529 24.2263C6.01184 24.7467 5.15994 24.7465 4.63649 24.2263C3.4296 23.0269 1.46625 23.0269 0.259356 24.2263C-0.084882 24.5684 -0.0867131 25.1248 0.255465 25.4693C0.597643 25.8135 1.15428 25.8154 1.49852 25.4732C2.02197 24.953 2.87387 24.9527 3.39732 25.4732C4.60422 26.6725 6.56779 26.6725 7.77446 25.4732C8.29814 24.9527 9.14981 24.9527 9.67349 25.4732C10.8804 26.6725 12.8437 26.6725 14.0506 25.4732C14.5741 24.953 15.426 24.9527 15.9494 25.4732C17.1563 26.6725 19.1199 26.6725 20.3266 25.4732C20.8502 24.9527 21.7021 24.9527 22.2256 25.4732C22.8291 26.0729 23.6215 26.3727 24.4142 26.3727C25.2065 26.3727 25.9994 26.0726 26.6027 25.4732C27.1262 24.9527 27.9781 24.9527 28.5015 25.4732C28.846 25.8154 29.4024 25.8138 29.7446 25.4693C30.0868 25.1251 30.0849 24.5684 29.7407 24.2263C28.534 23.0269 26.5702 23.0269 25.3636 24.2263Z" fill="black"/>
</g>
<defs>
<clipPath id="clip0_195_619">
<rect width="30" height="30" fill="white" transform="translate(0 0.884521)"/>
</clipPath>
</defs>
</svg>
