<svg width="30" height="30" viewBox="0 0 30 30" fill="none" xmlns="http://www.w3.org/2000/svg">
<path d="M14.5254 6.71448L15.8367 8.04589C16.0073 8.21915 16.2314 8.3059 16.4559 8.3059C16.678 8.3059 16.9001 8.22075 17.0703 8.05069C17.4121 7.70874 17.4141 7.15233 17.075 6.80786L15.7638 5.47623C15.4244 5.13176 14.8723 5.1297 14.5302 5.47142C14.1884 5.81337 14.1863 6.36978 14.5254 6.71448Z" fill="#FDF567"/>
<path d="M19.7753 7.65106C19.9457 7.82433 20.1699 7.91107 20.3943 7.91107C20.6164 7.91107 20.8386 7.82593 21.0087 7.65587C21.3505 7.31392 21.3528 6.75751 21.0134 6.41304L19.7022 5.08141C19.3631 4.73694 18.8107 4.73488 18.4689 5.0766C18.1268 5.41855 18.1247 5.97496 18.4641 6.31966L19.7753 7.65106Z" fill="#FDF567"/>
<path d="M19.3876 11.651C19.5581 11.8243 19.7823 11.9108 20.0067 11.9108C20.2286 11.9108 20.4508 11.8259 20.6209 11.6558C20.963 11.3139 20.965 10.7574 20.6257 10.413L19.3144 9.08134C18.9753 8.73687 18.4229 8.73459 18.0811 9.07654C17.7392 9.41848 17.737 9.9749 18.0763 10.3194L19.3876 11.651Z" fill="#FDF567"/>
<path d="M25.1362 14.6997C25.575 13.5155 25.8151 12.2344 25.8151 10.8978C25.8151 4.88869 20.9635 0 14.9998 0C14.0604 0 13.1484 0.121307 12.2787 0.349274L12.2785 0.348358C12.2642 0.352478 12.2499 0.356598 12.2356 0.360718C7.60681 1.59462 4.18457 5.85114 4.18457 10.8978C4.18457 15.1135 6.57244 18.7777 10.0569 20.5895C9.38777 21.0947 8.95417 21.8999 8.95417 22.8051C8.95417 23.5444 9.23991 24.2393 9.75845 24.762C10.2622 25.2695 10.9268 25.5556 11.6364 25.5716C11.5567 25.8685 11.5165 26.1756 11.5165 26.4899C11.5165 27.4528 11.8956 28.3507 12.584 29.0188C13.2395 29.6546 14.092 30 14.9978 30C15.0432 30 15.0889 29.9991 15.1345 29.9973C15.9938 29.9645 16.8176 29.5901 17.4545 28.9428C18.0911 28.2957 18.4559 27.4624 18.4816 26.5965C18.4918 26.2505 18.4509 25.9044 18.3619 25.5718C19.0719 25.556 19.7372 25.2699 20.2412 24.762C20.7597 24.2395 21.0455 23.5444 21.0455 22.8051C21.0455 21.8999 20.6119 21.0947 19.9427 20.5895C22.3172 19.3549 24.1824 17.26 25.1298 14.7166C25.1321 14.7112 25.1346 14.7057 25.1371 14.7002L25.1362 14.6997ZM24.0707 10.8978C24.0707 12.0078 23.8733 13.0721 23.5121 14.057C22.4762 16.3916 19.7035 16.7699 17.5521 16.6747C15.3905 16.5786 13.4685 15.731 11.9939 14.2234C10.5527 12.7501 9.66351 10.7252 9.48998 8.52196C9.23605 5.29518 10.5223 2.70699 12.6951 2.05673C13.4312 1.86172 14.2037 1.75781 14.9998 1.75781C20.0015 1.75781 24.0707 5.858 24.0707 10.8978ZM5.92896 10.8978C5.92896 8.65723 6.73325 6.60233 8.0663 5.01091C7.76285 6.11137 7.64769 7.34665 7.75127 8.66089C7.95705 11.2759 9.02254 13.6897 10.7515 15.4573C12.5152 17.2604 14.9031 18.3165 17.4751 18.4307C17.7 18.4408 17.9205 18.4456 18.1377 18.4456C18.9476 18.4456 19.7031 18.3762 20.3993 18.238C18.8895 19.3682 17.0209 20.0377 14.9998 20.0377C9.99808 20.0379 5.92896 15.9377 5.92896 10.8978ZM18.2992 21.7957C18.8516 21.7957 19.3011 22.2485 19.3011 22.8053C19.3011 23.075 19.197 23.3283 19.0078 23.519C18.8186 23.7096 18.567 23.8147 18.2992 23.8147H17.7438C17.2882 23.8147 16.8719 24.047 16.6306 24.4361C16.3883 24.827 16.3633 25.3084 16.5643 25.7236C16.6881 25.9795 16.7465 26.2555 16.7381 26.5441C16.7122 27.415 15.932 28.2079 15.0684 28.2408C14.5903 28.2594 14.1376 28.0856 13.794 27.7524C13.4503 27.4189 13.2611 26.9707 13.2611 26.4901C13.2611 26.2184 13.3206 25.9584 13.4385 25.7174C13.6388 25.3077 13.615 24.8309 13.3747 24.4418C13.1323 24.0491 12.7139 23.8147 12.2556 23.8147H11.7007C11.4329 23.8147 11.1812 23.7096 10.992 23.519C10.8028 23.3283 10.6986 23.0747 10.6986 22.8051C10.6986 22.2485 11.1481 21.7957 11.7005 21.7957H18.2992Z" fill="#FDF567"/>
</svg>
