<svg width="25" height="26" viewBox="0 0 25 26" fill="none" xmlns="http://www.w3.org/2000/svg">
<g clip-path="url(#clip0_343_733)">
<path d="M2.62887 3.72145C2.71757 3.72128 2.80626 3.72105 2.89495 3.72075C3.13786 3.72014 3.38077 3.72044 3.62368 3.7209C3.88597 3.72123 4.14825 3.72072 4.41053 3.72032C4.92403 3.71966 5.43752 3.71981 5.95102 3.72023C6.36838 3.72056 6.78574 3.72061 7.2031 3.72045C7.26252 3.72042 7.32194 3.7204 7.38316 3.72038C7.50387 3.72033 7.62459 3.72028 7.7453 3.72024C8.87701 3.71982 10.0087 3.7203 11.1404 3.72109C12.1113 3.72174 13.0822 3.72163 14.0531 3.72095C15.1807 3.72017 16.3084 3.71986 17.4361 3.72031C17.5564 3.72035 17.6766 3.7204 17.7969 3.72045C17.8561 3.72047 17.9152 3.72049 17.9762 3.72051C18.393 3.72064 18.8098 3.72043 19.2267 3.72008C19.7347 3.71967 20.2427 3.71978 20.7507 3.72056C21.0099 3.72095 21.269 3.7211 21.5282 3.72061C21.7655 3.72018 22.0029 3.72042 22.2402 3.7212C22.3259 3.72136 22.4117 3.72128 22.4975 3.72092C22.9263 3.71928 23.3267 3.72018 23.7305 3.88653C23.6581 4.03822 23.5853 4.14048 23.4644 4.25808C23.4143 4.30737 23.4143 4.30737 23.3632 4.35765C23.3109 4.40844 23.3109 4.40844 23.2574 4.46026C23.189 4.52702 23.1206 4.5939 23.0524 4.66092C23.0069 4.70508 23.0069 4.70508 22.9605 4.75013C22.8695 4.8445 22.7842 4.94058 22.6989 5.03998C22.5105 5.25573 22.3116 5.45908 22.1092 5.66151C22.0702 5.70066 22.0312 5.7398 21.9911 5.78013C21.8614 5.91039 21.7315 6.04048 21.6016 6.17056C21.5082 6.26424 21.4148 6.35796 21.3214 6.45168C21.0421 6.73194 20.7626 7.01197 20.483 7.29197C20.3512 7.42401 20.2194 7.55607 20.0876 7.68813C19.6493 8.12721 19.211 8.56624 18.7725 9.00508C18.659 9.11867 18.5455 9.23225 18.4321 9.34584C18.3897 9.38818 18.3897 9.38818 18.3466 9.43138C17.8888 9.88958 17.4314 10.3482 16.9742 10.807C16.5044 11.2785 16.0341 11.7496 15.5635 12.2203C15.2995 12.4845 15.0356 12.7488 14.7722 13.0135C14.548 13.2387 14.3236 13.4635 14.0987 13.6879C13.984 13.8024 13.8695 13.9171 13.7553 14.0321C13.6316 14.1567 13.5072 14.2807 13.3827 14.4046C13.3467 14.4411 13.3108 14.4776 13.2737 14.5152C13.0037 14.7818 12.8004 14.8799 12.4132 14.8906C12.0319 14.8283 11.813 14.6041 11.5515 14.3388C11.5114 14.2989 11.4712 14.2589 11.4299 14.2178C11.3191 14.1073 11.2087 13.9964 11.0985 13.8854C10.9793 13.7655 10.8596 13.6462 10.74 13.5268C10.5059 13.2929 10.2723 13.0586 10.0388 12.8241C9.76675 12.5508 9.49414 12.278 9.2215 12.0053C8.73484 11.5185 8.24863 11.0312 7.76269 10.5436C7.29163 10.071 6.8203 9.59858 6.34863 9.12653C6.3196 9.09747 6.29057 9.06842 6.26066 9.03848C6.14394 8.92167 6.02722 8.80486 5.91051 8.68805C5.46047 8.23765 5.01063 7.78704 4.56083 7.3364C4.42512 7.20043 4.2894 7.06447 4.15366 6.92853C3.86824 6.64267 3.58288 6.35673 3.29774 6.07058C3.17988 5.9523 3.06198 5.83406 2.94398 5.71591C2.81582 5.58756 2.68781 5.45905 2.55983 5.33051C2.5044 5.27508 2.5044 5.27508 2.44784 5.21854C2.25132 5.02078 2.06288 4.81882 1.88168 4.6069C1.7446 4.45053 1.59395 4.30833 1.44377 4.16462C1.38395 4.10621 1.3265 4.04538 1.26953 3.98419C1.26953 3.95196 1.26953 3.91974 1.26953 3.88653C1.71231 3.70411 2.15943 3.7195 2.62887 3.72145Z" fill="black"/>
<path d="M8.74023 13.5545C8.90396 13.6321 9.01026 13.7159 9.13745 13.8461C9.17676 13.886 9.21607 13.926 9.25657 13.9671C9.31982 14.0321 9.31982 14.0321 9.38435 14.0983C9.45156 14.1664 9.51877 14.2345 9.58602 14.3026C9.75124 14.4701 9.91595 14.6381 10.0803 14.8063C10.1726 14.9007 10.2651 14.9948 10.3579 15.0886C10.445 15.1767 10.5316 15.2651 10.6178 15.354C11.1506 15.8912 11.7156 16.2294 12.4817 16.2523C13.5083 16.2396 14.1152 15.6108 14.7984 14.923C14.8378 14.8835 14.8772 14.8441 14.9178 14.8034C15.0417 14.6792 15.1655 14.5548 15.2893 14.4304C15.3741 14.3453 15.4589 14.2603 15.5437 14.1753C15.75 13.9685 15.9561 13.7615 16.1621 13.5545C16.3535 13.6322 16.4824 13.7636 16.6252 13.9078C16.6516 13.9341 16.678 13.9605 16.7053 13.9876C16.7939 14.0759 16.8821 14.1645 16.9703 14.2532C17.0337 14.3166 17.0972 14.3799 17.1607 14.4433C17.3331 14.6155 17.5053 14.788 17.6773 14.9606C17.8576 15.1412 18.0381 15.3217 18.2186 15.5021C18.5219 15.8055 18.825 16.109 19.128 16.4127C19.4777 16.7632 19.8277 17.1135 20.1779 17.4636C20.5511 17.8367 20.9241 18.2101 21.297 18.5834C21.4042 18.6908 21.5115 18.798 21.6187 18.9053C21.7877 19.0744 21.9567 19.2436 22.1255 19.4129C22.1873 19.4748 22.2491 19.5367 22.311 19.5986C22.8777 20.1651 22.8777 20.1651 23.1261 20.4591C23.2596 20.6135 23.4088 20.7525 23.5562 20.8936C23.6161 20.952 23.6735 21.0128 23.7305 21.074C23.7305 21.1063 23.7305 21.1385 23.7305 21.1717C23.2877 21.3541 22.8406 21.3387 22.3711 21.3368C22.2824 21.3369 22.1937 21.3372 22.105 21.3375C21.8621 21.3381 21.6192 21.3378 21.3763 21.3373C21.114 21.337 20.8518 21.3375 20.5895 21.3379C20.076 21.3386 19.5625 21.3384 19.049 21.338C18.6316 21.3377 18.2143 21.3376 17.7969 21.3378C17.7375 21.3378 17.6781 21.3378 17.6168 21.3378C17.4961 21.3379 17.3754 21.3379 17.2547 21.338C16.123 21.3384 14.9913 21.3379 13.8596 21.3371C12.8887 21.3365 11.9178 21.3366 10.9469 21.3373C9.81926 21.3381 8.69158 21.3384 7.5639 21.3379C7.44363 21.3379 7.32337 21.3378 7.2031 21.3378C7.14393 21.3378 7.08475 21.3377 7.02379 21.3377C6.60697 21.3376 6.19015 21.3378 5.77333 21.3381C5.26531 21.3386 4.7573 21.3384 4.24928 21.3377C3.99012 21.3373 3.73097 21.3371 3.47181 21.3376C3.23447 21.338 2.99715 21.3378 2.75981 21.337C2.67406 21.3369 2.5883 21.3369 2.50255 21.3373C2.0737 21.3389 1.6733 21.338 1.26953 21.1717C1.33738 21.0305 1.40139 20.9308 1.51424 20.8215C1.54323 20.7931 1.57221 20.7646 1.60208 20.7353C1.63232 20.7061 1.66257 20.6769 1.69373 20.6468C1.86733 20.4782 2.03796 20.3105 2.19405 20.1254C2.45286 19.828 2.73507 19.5533 3.01408 19.2751C3.07667 19.2125 3.13926 19.1499 3.20184 19.0873C3.37079 18.9184 3.53989 18.7496 3.70901 18.5808C3.88609 18.404 4.06303 18.2271 4.23999 18.0502C4.57467 17.7157 4.90948 17.3813 5.24433 17.0469C5.62572 16.666 6.00698 16.2851 6.38822 15.9041C7.17207 15.1207 7.95609 14.3376 8.74023 13.5545Z" fill="black"/>
<path d="M0.194901 4.96075C0.399229 5.05459 0.53892 5.1938 0.695464 5.35192C0.725938 5.38231 0.756413 5.4127 0.787811 5.44401C0.890005 5.54604 0.991845 5.64842 1.09369 5.7508C1.16682 5.82396 1.23997 5.89709 1.31314 5.97021C1.51188 6.16892 1.71032 6.36794 1.90871 6.567C2.11603 6.77493 2.32362 6.98258 2.53119 7.19026C2.92427 7.58365 3.31711 7.97729 3.70985 8.37102C4.15696 8.81922 4.60435 9.26714 5.05176 9.71504C5.97218 10.6365 6.89225 11.5583 7.81209 12.4803C7.73142 12.688 7.57652 12.8271 7.42158 12.9808C7.39126 13.0113 7.36094 13.0418 7.3297 13.0732C7.22789 13.1754 7.12574 13.2772 7.02359 13.3791C6.95059 13.4522 6.87762 13.5254 6.80466 13.5985C6.60635 13.7973 6.40774 13.9957 6.20905 14.1941C6.00146 14.4014 5.79411 14.609 5.58671 14.8166C5.23847 15.165 4.89003 15.5132 4.54146 15.8613C4.13794 16.2643 3.73477 16.6676 3.33178 17.0712C2.9862 17.4172 2.64043 17.763 2.2945 18.1087C2.0877 18.3153 1.88096 18.5221 1.6744 18.7289C1.48032 18.9233 1.28601 19.1174 1.09151 19.3113C1.01998 19.3828 0.948521 19.4543 0.877155 19.5258C0.780129 19.6231 0.68281 19.7201 0.585407 19.817C0.55688 19.8458 0.528353 19.8745 0.498961 19.9041C0.303705 20.0975 0.303705 20.0975 0.194901 20.0975C0.027763 19.7118 -0.0286663 19.3839 -0.0252129 18.9655C-0.0255176 18.908 -0.0258223 18.8505 -0.0261362 18.7913C-0.0267762 18.6332 -0.0265517 18.4751 -0.0259436 18.317C-0.0254991 18.1459 -0.0261851 17.9748 -0.0267209 17.8038C-0.0275868 17.4692 -0.027403 17.1347 -0.0268356 16.8001C-0.0263935 16.5281 -0.0263352 16.256 -0.0265473 15.984C-0.0265773 15.9452 -0.0266072 15.9064 -0.026638 15.8664C-0.0267005 15.7876 -0.0267638 15.7088 -0.026828 15.6299C-0.0273842 14.8916 -0.0267457 14.1534 -0.0256951 13.4151C-0.0248226 12.7824 -0.0249741 12.1497 -0.0258745 11.517C-0.0269211 10.7813 -0.0273305 10.0456 -0.0267315 9.30983C-0.0266693 9.23129 -0.0266079 9.15276 -0.0265473 9.07422C-0.0265172 9.03558 -0.0264871 8.99695 -0.026456 8.95714C-0.0262878 8.68561 -0.0265712 8.41408 -0.0270316 8.14255C-0.0275809 7.81139 -0.0274281 7.48024 -0.0263908 7.14908C-0.0258795 6.9803 -0.0256731 6.81153 -0.0263223 6.64275C-0.0268578 6.45939 -0.0261845 6.27607 -0.0252129 6.09271C-0.0256486 6.03992 -0.0260843 5.98714 -0.0265332 5.93275C-0.0228731 5.57543 0.0529717 5.28827 0.194901 4.96075Z" fill="black"/>
<path d="M24.8047 4.96075C24.9718 5.34645 25.0283 5.67432 25.0248 6.09271C25.0251 6.15021 25.0254 6.20772 25.0257 6.26696C25.0264 6.42506 25.0261 6.58312 25.0255 6.74122C25.0251 6.9123 25.0258 7.08338 25.0263 7.25447C25.0272 7.58902 25.027 7.92356 25.0264 8.25812C25.026 8.53015 25.0259 8.80218 25.0261 9.07422C25.0262 9.11302 25.0262 9.15182 25.0262 9.1918C25.0263 9.27063 25.0264 9.34947 25.0264 9.42831C25.027 10.1666 25.0263 10.9048 25.0253 11.6431C25.0244 12.2758 25.0246 12.9085 25.0255 13.5412C25.0265 14.2769 25.0269 15.0127 25.0263 15.7484C25.0263 15.8269 25.0262 15.9055 25.0261 15.984C25.0261 16.042 25.0261 16.042 25.026 16.1011C25.0259 16.3726 25.0262 16.6441 25.0266 16.9157C25.0272 17.2468 25.027 17.578 25.026 17.9091C25.0255 18.0779 25.0253 18.2467 25.0259 18.4155C25.0264 18.5988 25.0258 18.7822 25.0248 18.9655C25.0252 19.0183 25.0257 19.0711 25.0261 19.1255C25.0225 19.4828 24.9466 19.77 24.8047 20.0975C24.6004 20.0036 24.4607 19.8644 24.3041 19.7063C24.2737 19.6759 24.2432 19.6455 24.2118 19.6142C24.1096 19.5122 24.0077 19.4098 23.9059 19.3074C23.8328 19.2343 23.7596 19.1611 23.6864 19.088C23.4877 18.8893 23.2893 18.6903 23.0909 18.4912C22.8836 18.2833 22.676 18.0756 22.4684 17.868C22.0753 17.4746 21.6825 17.0809 21.2897 16.6872C20.8426 16.239 20.3952 15.7911 19.9478 15.3432C19.0274 14.4217 18.1073 13.5 17.1875 12.5779C17.3049 12.3573 17.4554 12.1986 17.6309 12.0245C17.661 11.9942 17.6912 11.9639 17.7223 11.9327C17.8232 11.8313 17.9246 11.7303 18.0259 11.6293C18.0984 11.5566 18.1709 11.4839 18.2434 11.4112C18.4402 11.214 18.6373 11.0171 18.8345 10.8202C19.0405 10.6144 19.2464 10.4083 19.4523 10.2022C19.7979 9.85641 20.1438 9.51079 20.4898 9.16528C20.8903 8.76531 21.2904 8.36498 21.6904 7.96448C22.0335 7.62095 22.3768 7.2776 22.7202 6.93442C22.9255 6.7293 23.1307 6.52411 23.3357 6.31875C23.5283 6.12588 23.7211 5.93324 23.9142 5.74079C23.9852 5.66993 24.0561 5.59899 24.1269 5.52796C24.2231 5.43142 24.3197 5.33518 24.4164 5.23902C24.4447 5.2105 24.473 5.18198 24.5021 5.15259C24.6959 4.96075 24.6959 4.96075 24.8047 4.96075Z" fill="black"/>
</g>
<defs>
<clipPath id="clip0_343_733">
<rect width="25" height="25" fill="white" transform="translate(0 0.0291138)"/>
</clipPath>
</defs>
</svg>
