<svg width="25" height="26" viewBox="0 0 25 26" fill="none" xmlns="http://www.w3.org/2000/svg">
<g clip-path="url(#clip0_346_950)">
<path d="M12.0006 0.0174873C12.0362 0.0170113 12.0718 0.0165353 12.1086 0.0160448C13.203 0.00444202 14.1961 0.101221 15.2337 0.468575C15.3128 0.495483 15.3128 0.495483 15.3935 0.522935C17.3184 1.21444 18.8588 2.7178 19.7747 4.52131C19.7991 4.56877 19.8236 4.61623 19.8487 4.66512C20.5924 6.20428 20.8175 8.17974 20.4095 9.84358C20.3949 9.90441 20.3949 9.90441 20.3801 9.96648C20.1011 11.1008 19.5866 12.0978 18.9338 13.0594C18.7761 13.2926 18.6254 13.5303 18.4747 13.7681C18.4461 13.8132 18.4175 13.8582 18.3881 13.9047C18.3282 13.9991 18.2683 14.0935 18.2084 14.188C18.0445 14.4461 17.8796 14.7038 17.7148 14.9614C17.6816 15.0132 17.6485 15.0649 17.6144 15.1183C17.4091 15.4388 17.2027 15.7587 16.9955 16.078C16.8135 16.3588 16.6338 16.6412 16.4544 16.9237C16.2542 17.2388 16.0534 17.5535 15.8502 17.8666C15.4955 18.4132 15.1452 18.9626 14.7942 19.5115C13.8709 20.956 13.8709 20.956 13.5334 21.4736C13.4768 21.5609 13.4208 21.6486 13.3649 21.7363C13.3141 21.8148 13.3141 21.8148 13.2623 21.895C13.2337 21.9396 13.2051 21.9842 13.1757 22.0302C13.0402 22.2071 12.9066 22.3217 12.6946 22.3924C12.4216 22.4103 12.242 22.4081 12.011 22.2459C11.7273 21.9502 11.5244 21.5819 11.3107 21.2346C11.1849 21.0306 11.0554 20.8293 10.9246 20.6285C10.7204 20.3142 10.5183 19.9988 10.3173 19.6824C9.82815 18.9127 9.33769 18.1437 8.84118 17.3787C8.62932 17.0517 8.42063 16.7228 8.21177 16.3939C8.03899 16.1221 7.86516 15.851 7.68975 15.5809C7.45453 15.2186 7.22265 14.8543 6.99109 14.4897C6.8183 14.2178 6.64441 13.9468 6.46905 13.6766C6.426 13.61 6.38296 13.5435 6.33992 13.4769C6.26595 13.3625 6.19177 13.2482 6.11726 13.1341C5.75099 12.5729 5.40484 12.0162 5.12628 11.4061C5.0999 11.3503 5.07353 11.2945 5.04636 11.2371C4.84109 10.7852 4.70459 10.3248 4.58917 9.84358C4.58103 9.81171 4.5729 9.77985 4.56451 9.74702C4.28491 8.61761 4.34848 7.25173 4.63799 6.13264C4.64714 6.09567 4.65628 6.0587 4.6657 6.02061C4.7973 5.49728 4.98911 5.00655 5.22393 4.52131C5.23897 4.49022 5.25402 4.45912 5.26952 4.42709C5.57854 3.79878 5.96272 3.23829 6.44082 2.72592C6.534 2.62591 6.62219 2.52325 6.71014 2.41865C7.96074 0.997507 10.1122 0.0384705 12.0006 0.0174873ZM9.8626 5.59553C9.83365 5.62366 9.8047 5.6518 9.77487 5.68079C9.10438 6.36817 8.87177 7.27783 8.87422 8.21005C8.8865 9.14292 9.25066 9.92346 9.88091 10.6035C9.92321 10.6427 9.96551 10.682 10.0091 10.7225C10.0372 10.7514 10.0654 10.7804 10.0943 10.8102C10.7817 11.4807 11.6914 11.7133 12.6236 11.7109C13.5565 11.6986 14.337 11.3344 15.017 10.7042C15.0563 10.6619 15.0956 10.6196 15.136 10.576C15.165 10.5479 15.1939 10.5197 15.2238 10.4907C15.8943 9.80336 16.1269 8.8937 16.1244 7.96148C16.1121 7.02861 15.748 6.24807 15.1177 5.56806C15.0754 5.52879 15.0331 5.48951 14.9896 5.44904C14.9614 5.42009 14.9333 5.39114 14.9043 5.36131C14.2169 4.69082 13.3073 4.45821 12.375 4.46066C11.3995 4.4735 10.528 4.87891 9.8626 5.59553Z" fill="black"/>
<path d="M6.83587 16.8748C6.91181 16.973 6.91181 16.973 6.9936 17.1037C7.02435 17.1523 7.0551 17.2009 7.08678 17.251C7.1363 17.3307 7.1363 17.3307 7.18682 17.4119C7.22171 17.4674 7.25665 17.5228 7.29163 17.5782C7.36433 17.6933 7.43685 17.8087 7.50923 17.924C7.67363 18.1858 7.84081 18.4457 8.00774 18.7059C8.07254 18.8071 8.13733 18.9083 8.2021 19.0095C8.23429 19.0598 8.26647 19.1101 8.29964 19.1619C8.40055 19.3196 8.50141 19.4774 8.60226 19.6351C8.90601 20.1102 9.20986 20.5851 9.51714 21.0578C9.6725 21.2973 9.82519 21.5384 9.9775 21.7798C10.745 23.0045 10.745 23.0045 12.0094 23.6354C12.6547 23.7504 13.2425 23.6163 13.8088 23.2976C14.1149 23.083 14.3291 22.8541 14.5293 22.5389C14.5541 22.5008 14.5789 22.4627 14.6044 22.4235C14.6848 22.2996 14.7643 22.1752 14.8437 22.0506C14.8703 22.009 14.897 21.9674 14.9244 21.9245C15.0658 21.7037 15.2066 21.4825 15.3468 21.261C15.5342 20.9651 15.7229 20.6701 15.9118 20.3752C15.9444 20.3243 15.977 20.2734 16.0105 20.221C16.0768 20.1175 16.143 20.0141 16.2093 19.9106C16.3402 19.7062 16.471 19.5018 16.6018 19.2974C16.6665 19.1964 16.7311 19.0954 16.7958 18.9944C16.9466 18.7589 17.0973 18.5233 17.2475 18.2874C17.3002 18.2046 17.353 18.1218 17.4057 18.0391C17.4716 17.9358 17.5373 17.8325 17.6029 17.7291C17.7986 17.4224 18.0016 17.1222 18.2128 16.826C19.988 17.1748 22.0965 17.8735 23.1647 19.433C23.5068 19.9959 23.5705 20.5979 23.4563 21.2432C23.1545 22.2551 22.2119 22.8932 21.3304 23.3701C20.7987 23.6512 20.2499 23.869 19.6777 24.0526C19.6142 24.0729 19.6142 24.0729 19.5494 24.0938C18.3185 24.483 17.0515 24.7251 15.7714 24.8826C15.7141 24.89 15.6568 24.8974 15.5978 24.905C13.5261 25.1607 11.2978 25.153 9.22844 24.8826C9.16146 24.8742 9.09447 24.8657 9.02748 24.8572C6.58307 24.5436 3.56421 23.9977 1.91052 21.9884C1.52042 21.4495 1.44302 20.8422 1.5136 20.1951C1.68609 19.3562 2.34706 18.7275 3.03051 18.2666C3.9656 17.66 5.0058 17.3 6.06987 16.9908C6.12929 16.9734 6.1887 16.9561 6.24992 16.9382C6.33272 16.915 6.33272 16.915 6.4172 16.8912C6.46625 16.8774 6.51531 16.8636 6.56584 16.8493C6.68938 16.826 6.68938 16.826 6.83587 16.8748Z" fill="black"/>
</g>
<defs>
<clipPath id="clip0_346_950">
<rect width="25" height="25" fill="white" transform="translate(0 0.0291138)"/>
</clipPath>
</defs>
</svg>
