<svg width="60" height="61" viewBox="0 0 60 61" fill="none" xmlns="http://www.w3.org/2000/svg">
<g clip-path="url(#clip0_343_576)">
<path d="M51.7007 28.8118C49.4188 26.5367 45.7228 26.5097 43.4079 28.7317V9.84708C43.4079 6.58688 40.7506 3.9346 37.484 3.9346C36.5392 3.9346 35.6451 4.15662 34.8518 4.55121C34.1469 2.07196 31.8581 0.250977 29.1518 0.250977C26.445 0.250977 24.1562 2.07196 23.4512 4.55121C22.6579 4.15662 21.7639 3.9346 20.8191 3.9346C18.1123 3.9346 15.824 5.75558 15.119 8.23483C14.3253 7.84024 13.4312 7.61823 12.4864 7.61823C9.21982 7.61868 6.5625 10.271 6.5625 13.5312V52.9011C6.5625 56.9537 9.86664 60.251 13.9275 60.251H36.0429C40.1042 60.251 43.4079 56.9537 43.4079 52.9011V45.4464L51.7007 37.1769C52.8209 36.06 53.4375 34.5746 53.4375 32.9944C53.4375 31.4146 52.8209 29.9287 51.7007 28.8118ZM49.2183 34.6876L40.7483 43.1338C40.1962 43.6841 39.8923 44.4165 39.8923 45.1956V52.9011C39.8923 55.0155 38.1656 56.7354 36.0429 56.7354H13.9275C11.8048 56.7354 10.0781 55.0155 10.0781 52.9011V13.5312C10.0781 12.2096 11.1584 11.1343 12.4864 11.1343C13.8149 11.1343 14.8952 12.2096 14.8952 13.5312V31.4041C14.8952 32.3745 15.6821 33.1619 16.653 33.1619C17.6234 33.1619 18.4108 32.3745 18.4108 31.4041V9.84708C18.4108 8.52551 19.4911 7.45023 20.8191 7.45023C22.1471 7.45023 23.2274 8.52551 23.2274 9.84708V27.72C23.2274 28.6909 24.0147 29.4778 24.9852 29.4778C25.9561 29.4778 26.743 28.6909 26.743 27.72V6.16345C26.743 4.84189 27.8238 3.7666 29.1518 3.7666C30.4797 3.7666 31.5601 4.84189 31.5601 6.16345V27.72C31.5601 28.6909 32.347 29.4778 33.3179 29.4778C34.2888 29.4778 35.0757 28.6909 35.0757 27.72V9.84708C35.0757 8.52551 36.156 7.45023 37.484 7.45023C38.812 7.45023 39.8923 8.52551 39.8923 9.84708V30.1759C39.8923 31.3569 40.5981 32.413 41.6899 32.8662C42.7835 33.3198 44.0318 33.0735 44.87 32.2377L45.8089 31.3015C46.7487 30.364 48.278 30.364 49.2183 31.3015C49.6719 31.7538 49.9223 32.3553 49.9223 32.9944C49.9219 33.6339 49.6719 34.2349 49.2183 34.6876Z" fill="black"/>
<path d="M31.8262 40.8926H17.9706C16.7497 40.8926 15.7568 41.8859 15.7568 43.1063V49.5539C15.7568 50.7743 16.7497 51.7677 17.9706 51.7677H31.8262C33.047 51.7677 34.0404 50.7743 34.0404 49.5539V43.1063C34.0404 41.8855 33.047 40.8926 31.8262 40.8926ZM30.5247 48.2516H19.2725V44.4082H30.5247V48.2516Z" fill="black"/>
</g>
<defs>
<clipPath id="clip0_343_576">
<rect width="60" height="60" fill="white" transform="translate(0 0.250977)"/>
</clipPath>
</defs>
</svg>
