<svg width="60" height="60" viewBox="0 0 60 60" fill="none" xmlns="http://www.w3.org/2000/svg">
<g clip-path="url(#clip0_195_700)">
<path d="M59.8342 13.7315L59.8265 13.7091C59.5536 12.9423 58.975 12.3065 58.2398 11.9641L58.184 11.938L43.7658 6.4128V3.41216C43.7658 1.53076 42.236 0 40.3555 0H19.6454C17.7649 0 16.2346 1.53076 16.2346 3.41216V6.4128L1.87369 11.916L1.76474 11.9623C1.01446 12.3092 0.432648 12.9533 0.168519 13.7301C-0.103392 14.5198 -0.0447983 15.3593 0.333771 16.0959L5.00158 25.3161C5.66167 26.6368 7.16725 27.2863 8.57533 26.8629L11.51 25.9922V56.9649C11.51 58.6385 12.8719 59.9999 14.5459 59.9999H45.455C47.1272 59.9999 48.4872 58.6394 48.4872 56.9663V25.9918L51.4187 26.8606C52.8259 27.2845 54.3301 26.6381 54.9952 25.3244L59.6713 16.0904C60.0439 15.3543 60.1016 14.5166 59.8342 13.7315ZM19.7502 4.22469L28.2427 11.9197V15.1762L19.7502 6.88155V4.22469ZM30.0005 8.76845L24.2034 3.51562H35.7976L30.0005 8.76845ZM31.7583 11.9197L40.2507 4.22515V6.88155L31.7583 15.1762V11.9197ZM15.0252 56.4843V51.0996H44.972V56.4843H15.0252ZM52.0399 23.3779L47.7951 22.12C47.1336 21.9236 46.4085 22.0527 45.8551 22.4656C45.3021 22.8785 44.9716 23.5372 44.9716 24.2276V47.584H15.0252V24.2276C15.0252 23.5372 14.6952 22.8785 14.1417 22.4656C13.5888 22.0527 12.8632 21.9236 12.2022 22.1196L7.96056 23.3779L3.70794 14.978L17.5699 9.66612L28.2427 20.0903V28.7329C28.2427 29.7038 29.0295 30.4907 30.0005 30.4907C30.9709 30.4907 31.7583 29.7038 31.7583 28.7329V20.0903L42.431 9.66612L56.2939 14.9785L52.0399 23.3779Z" fill="black"/>
</g>
<defs>
<clipPath id="clip0_195_700">
<rect width="60" height="60" fill="white"/>
</clipPath>
</defs>
</svg>
