<svg width="25" height="26" viewBox="0 0 25 26" fill="none" xmlns="http://www.w3.org/2000/svg">
<g clip-path="url(#clip0_346_922)">
<path d="M5.88078 2.55185C6.13553 2.74291 6.36408 2.96099 6.59184 3.1828C6.63596 3.22554 6.68008 3.26828 6.72554 3.31231C7.75567 4.3268 8.66285 5.56131 9.32621 6.84491C9.34382 6.87846 9.36143 6.91201 9.37957 6.94657C9.77732 7.70663 10.0236 8.32316 9.81449 9.18866C9.57183 9.81664 9.08751 10.2314 8.55492 10.6136C8.22956 10.8507 7.84522 11.1671 7.76371 11.5812C7.65359 12.7499 8.31573 13.8401 8.98442 14.7551C9.01374 14.7957 9.01374 14.7957 9.04366 14.8371C9.71089 15.7548 10.5266 16.5716 11.4746 17.1965C11.5086 17.2192 11.5426 17.242 11.5776 17.2654C12.0264 17.5649 12.4852 17.8351 12.967 18.0784C13.0105 18.1005 13.054 18.1227 13.0989 18.1455C13.5761 18.3804 14.0761 18.5822 14.6058 18.4111C14.9861 18.2472 15.1947 17.9572 15.4284 17.6266C15.8496 17.043 16.4207 16.5682 17.1387 16.4152C18.4419 16.2313 19.4906 16.9211 20.4989 17.6561C20.6062 17.7341 20.7142 17.8112 20.8224 17.8881C21.3149 18.2391 21.7955 18.6038 22.2702 18.9785C22.3499 19.0414 22.4298 19.1039 22.5098 19.1664C22.625 19.2571 22.7387 19.3491 22.8516 19.4426C22.8925 19.4763 22.9334 19.51 22.9756 19.5448C23.5181 20.0103 23.9215 20.5644 23.9823 21.2917C24.027 22.3068 23.4817 23.2533 22.8333 23.9897C22.7585 24.0695 22.6832 24.1488 22.6075 24.2277C22.5669 24.2714 22.5263 24.3151 22.4844 24.3601C21.6683 25.2133 20.4635 25.9678 19.2519 25.9998C18.3281 26.0085 17.5152 25.6401 16.6901 25.2531C16.661 25.2395 16.6318 25.2259 16.6018 25.2118C15.5974 24.7417 14.6152 24.2468 13.6637 23.6759C13.528 23.5945 13.3919 23.5138 13.2557 23.4333C12.8164 23.1729 12.3828 22.9075 11.9629 22.6164C11.9277 22.5921 11.8925 22.5678 11.8562 22.5428C10.0107 21.2691 8.13466 19.8288 6.67175 18.117C6.59359 18.0285 6.51191 17.9468 6.42704 17.8648C6.24326 17.6843 6.08511 17.4859 5.92388 17.2854C5.81663 17.155 5.70532 17.0306 5.59086 16.9066C5.39358 16.6898 5.21791 16.4619 5.0444 16.2258C4.94958 16.0976 4.8527 15.9715 4.75438 15.846C4.47787 15.4922 4.22223 15.1258 3.97126 14.7536C3.91049 14.6636 3.84923 14.574 3.78784 14.4844C-0.158425 8.69008 -0.158424 8.69008 0.370518 5.79187C0.584374 4.72271 1.19898 3.80526 2.07523 3.15533C3.16571 2.43701 4.65213 1.75638 5.88078 2.55185Z" fill="black"/>
<path d="M15.9673 1.18085C16.0087 1.18973 16.0501 1.19861 16.0927 1.20776C18.494 1.74164 20.7728 3.23492 22.2661 5.18475C22.3242 5.25717 22.3242 5.25717 22.3836 5.33105C23.9231 7.25882 24.6396 9.57905 24.7075 12.0207C24.7086 12.0586 24.7098 12.0964 24.711 12.1355C24.7358 13.0512 24.7358 13.0512 24.4786 13.3818C24.2552 13.6132 24.0271 13.6882 23.7096 13.6992C23.3817 13.6884 23.1522 13.6322 22.91 13.4062C22.6679 13.0757 22.6344 12.6794 22.6109 12.2831C22.4462 10.091 21.7868 7.74614 20.313 6.06366C20.2798 6.02457 20.2466 5.98548 20.2124 5.94521C18.6591 4.14355 16.1135 3.34662 13.8341 3.04776C13.7881 3.04167 13.7422 3.03558 13.6948 3.02931C13.6077 3.0181 13.5204 3.00759 13.4331 2.99793C13.0973 2.956 12.8142 2.86787 12.5768 2.61822C12.3938 2.33275 12.4159 1.97918 12.4707 1.65349C12.556 1.37482 12.7492 1.19296 12.9887 1.03436C13.8411 0.752264 15.1209 0.997669 15.9673 1.18085Z" fill="black"/>
<path d="M17.3351 5.03828C17.823 5.30051 18.286 5.59954 18.7023 5.96601C18.7421 6.0005 18.7818 6.035 18.8228 6.07053C19.9173 7.03666 20.7334 8.18695 21.162 9.5915C21.1736 9.62953 21.1853 9.66756 21.1973 9.70674C21.3624 10.2798 21.405 10.848 21.4032 11.4407C21.4031 11.5516 21.4042 11.6624 21.4055 11.7733C21.4056 11.845 21.4056 11.9166 21.4056 11.9883C21.4057 12.052 21.4059 12.1157 21.406 12.1814C21.3798 12.4429 21.2985 12.6848 21.0979 12.866C20.8433 13.0672 20.5171 13.1119 20.1994 13.0854C19.955 13.0338 19.7185 12.9352 19.5766 12.7216C19.4429 12.464 19.3952 12.2312 19.3645 11.9444C19.1808 10.4916 18.8421 8.90497 17.7257 7.87031C17.6976 7.84198 17.6696 7.81366 17.6406 7.78448C16.684 6.86396 15.1975 6.4941 13.9263 6.28034C13.5404 6.21112 13.1814 6.12011 12.9345 5.79511C12.7745 5.49565 12.8048 5.14808 12.8645 4.82332C12.9433 4.56489 13.1062 4.40121 13.3312 4.25703C14.4064 3.73808 16.348 4.54522 17.3351 5.03828Z" fill="black"/>
<path d="M16.992 8.5539C17.7182 9.26165 18.2548 10.1901 18.2785 11.219C18.2792 11.2835 18.2792 11.2835 18.2799 11.3493C18.2806 11.3903 18.2812 11.4313 18.2819 11.4736C18.279 11.8648 18.1806 12.1937 17.9095 12.4855C17.6796 12.6757 17.4212 12.7184 17.1294 12.7012C16.8175 12.6559 16.6033 12.5041 16.4103 12.2545C16.2662 12.0171 16.222 11.7382 16.1688 11.4691C16.0225 10.7391 15.7944 10.2713 15.1598 9.84441C14.8765 9.68086 14.6022 9.5997 14.2851 9.53351C13.8414 9.43387 13.5047 9.33247 13.2323 8.94452C13.1204 8.60903 13.1733 8.30228 13.3135 7.98265C13.4408 7.76342 13.6179 7.63409 13.8365 7.51325C15.025 7.20197 16.1319 7.76675 16.992 8.5539Z" fill="black"/>
</g>
<defs>
<clipPath id="clip0_346_922">
<rect width="25" height="25" fill="white" transform="translate(0 0.985535)"/>
</clipPath>
</defs>
</svg>
