<svg width="30" height="31" viewBox="0 0 30 31" fill="none" xmlns="http://www.w3.org/2000/svg">
<g clip-path="url(#clip0_195_610)">
<path d="M14.9996 5.28687C13.1928 5.28687 11.7227 6.75605 11.7227 8.56193C11.7227 10.3676 13.1928 11.8368 14.9996 11.8368C16.8063 11.8368 18.2764 10.3676 18.2764 8.56193C18.2764 6.75605 16.8063 5.28687 14.9996 5.28687ZM14.9996 10.079C14.1618 10.079 13.4805 9.39826 13.4805 8.5617C13.4805 7.72514 14.1618 7.04467 14.9996 7.04467C15.8373 7.04467 16.5186 7.72514 16.5186 8.5617C16.5186 9.39849 15.8373 10.079 14.9996 10.079Z" fill="black"/>
<path d="M25.255 3.77667H22.6735V2.64233H23.0305C23.516 2.64233 23.9094 2.24888 23.9094 1.76343C23.9094 1.27797 23.516 0.884521 23.0305 0.884521H6.96944C6.48399 0.884521 6.09054 1.27797 6.09054 1.76343C6.09054 2.24888 6.48399 2.64233 6.96944 2.64233H7.32673V3.77667H4.74495C3.58246 3.77667 2.63672 4.7224 2.63672 5.88489V9.46872C2.63672 11.46 4.25674 13.08 6.24801 13.08H7.43682C7.61443 14.2281 8.00399 15.3519 8.58901 16.3892C9.37499 17.7819 10.4452 18.9007 11.6929 19.6359C11.6647 19.8126 11.6503 19.9902 11.6503 20.1662C11.6503 21.2213 12.1575 22.2277 13.0062 22.8576C13.3456 23.1098 13.7224 23.2927 14.1211 23.401V25.603H11.5631C10.412 25.603 9.47569 26.5396 9.47569 27.6904C9.47569 29.4517 10.9085 30.8845 12.6697 30.8845H17.3302C19.0915 30.8845 20.5243 29.4517 20.5243 27.6904C20.5243 26.5396 19.5879 25.603 18.4369 25.603H15.8789V23.401C16.2776 23.2927 16.6541 23.11 16.9933 22.8578C17.8427 22.2275 18.3497 21.2211 18.3497 20.1659C18.3497 19.9883 18.3355 19.8105 18.3073 19.6359C19.5543 18.9016 20.6247 17.7826 21.4112 16.3889C21.996 15.3519 22.3857 14.2281 22.5631 13.08H23.7519C25.7432 13.08 27.3632 11.46 27.3632 9.46872V5.88489C27.3632 4.7224 26.4175 3.77667 25.255 3.77667ZM18.7664 27.6904C18.7664 28.4824 18.1221 29.1267 17.3302 29.1267H12.6697C11.8778 29.1267 11.2335 28.4824 11.2335 27.6904C11.2335 27.5087 11.3814 27.3608 11.5631 27.3608H18.4369C18.6186 27.3608 18.7664 27.5087 18.7664 27.6904ZM4.39453 9.46872V5.88489C4.39453 5.69172 4.55177 5.53448 4.74495 5.53448H7.3265V11.3222H6.24801C5.22605 11.3222 4.39453 10.4907 4.39453 9.46872ZM19.8802 15.5251C19.2189 16.6968 18.3233 17.6194 17.2902 18.1928C16.7168 18.5109 16.4142 19.1804 16.5545 19.8235C16.5793 19.9357 16.5918 20.0508 16.5918 20.1662C16.5918 20.675 16.3563 21.1417 15.9453 21.4468C15.6697 21.6516 15.3428 21.7596 15 21.7596C14.6571 21.7596 14.3303 21.6516 14.0542 21.4463C13.6436 21.1417 13.4081 20.675 13.4081 20.1662C13.4081 20.0527 13.4209 19.9364 13.4461 19.821C13.5857 19.1795 13.2827 18.5098 12.71 18.193C11.6764 17.619 10.7808 16.6966 10.1198 15.5254C9.44251 14.3244 9.08431 12.9855 9.08431 11.6536V2.64233H20.9156V11.6536C20.9156 12.9855 20.5574 14.3244 19.8802 15.5251ZM25.6054 9.46872C25.6054 10.4907 24.7739 11.3222 23.7519 11.3222H22.6735V5.53448H25.255C25.4482 5.53448 25.6054 5.69149 25.6054 5.88489V9.46872Z" fill="black"/>
</g>
<defs>
<clipPath id="clip0_195_610">
<rect width="30" height="30" fill="white" transform="translate(0 0.884521)"/>
</clipPath>
</defs>
</svg>
