<svg width="30" height="31" viewBox="0 0 30 31" fill="none" xmlns="http://www.w3.org/2000/svg">
<g clip-path="url(#clip0_195_597)">
<path d="M14.9707 0.884521C8.42834 0.884521 3.1057 6.19939 3.10547 12.7321C3.10547 14.8646 3.65524 17.1255 4.73946 19.4521C5.59227 21.2816 6.77696 23.1584 8.26126 25.0304C10.7739 28.1995 13.2543 30.2439 13.3587 30.3293C13.8105 30.6994 14.3907 30.8845 14.9707 30.8845C15.5507 30.8845 16.1307 30.6994 16.5827 30.3293C16.6871 30.2437 19.1675 28.1993 21.6801 25.0304C23.1642 23.1584 24.3491 21.2816 25.202 19.4519C26.2862 17.1255 26.8359 14.8646 26.8359 12.7319C26.8359 6.19939 21.5133 0.884521 14.9707 0.884521ZM20.3249 23.9103C17.9285 26.9391 15.493 28.9496 15.469 28.9692C15.2129 29.1791 14.7285 29.1791 14.4724 28.9692C14.3763 28.8907 4.86328 21.0032 4.86328 12.7321C4.86351 7.16847 9.39766 2.64233 14.9707 2.64233C20.544 2.64233 25.0781 7.16847 25.0781 12.7321C25.0781 17.0054 22.4934 21.1696 20.3249 23.9103Z" fill="black"/>
<path d="M14.9711 4.43726C10.3843 4.43726 6.65234 8.16895 6.65234 12.7557C6.65234 17.3428 10.3843 21.0744 14.9711 21.0744C19.5578 21.0744 23.2898 17.3428 23.2898 12.7557C23.2898 8.16895 19.5578 4.43726 14.9711 4.43726ZM14.9711 19.3166C11.3533 19.3166 8.41016 16.3734 8.41016 12.7557C8.41016 9.13803 11.3533 6.19507 14.9711 6.19507C18.5888 6.19507 21.532 9.13803 21.532 12.7557C21.532 16.3734 18.5888 19.3166 14.9711 19.3166Z" fill="black"/>
<path d="M14.3087 8.90893C13.9656 8.56584 13.4092 8.56584 13.0659 8.90893C12.7228 9.25225 12.7228 9.80867 13.0659 10.152L14.3087 11.3948C14.4804 11.5665 14.7054 11.6523 14.9304 11.6523C15.1551 11.6523 15.3801 11.5665 15.5518 11.3948C15.8949 11.0515 15.8949 10.4951 15.5518 10.1518L14.3087 8.90893Z" fill="black"/>
<path d="M18.0257 8.52458C17.6826 8.18126 17.126 8.18126 16.7829 8.52458C16.4396 8.86768 16.4396 9.42432 16.7829 9.76741L18.0259 11.0105C18.1974 11.1821 18.4224 11.268 18.6474 11.268C18.8721 11.268 19.0971 11.1821 19.2688 11.0105C19.6121 10.6671 19.6121 10.1107 19.2688 9.76741L18.0257 8.52458Z" fill="black"/>
<path d="M17.6741 12.2743C17.3311 11.931 16.7744 11.931 16.4313 12.2743C16.088 12.6177 16.088 13.1741 16.4313 13.5174L17.6741 14.7602C17.8458 14.9319 18.0708 15.0177 18.2956 15.0177C18.5206 15.0177 18.7455 14.9319 18.9172 14.7602C19.2603 14.4169 19.2603 13.8605 18.9172 13.5174L17.6741 12.2743Z" fill="black"/>
</g>
<defs>
<clipPath id="clip0_195_597">
<rect width="30" height="30" fill="white" transform="translate(0 0.884521)"/>
</clipPath>
</defs>
</svg>
