<svg width="40" height="41" viewBox="0 0 40 41" fill="none" xmlns="http://www.w3.org/2000/svg">
<g clip-path="url(#clip0_86_636)">
<path d="M39.1445 8.54932C38.3922 5.15244 35.0992 2.04072 31.693 1.37979C29.618 0.964944 23.8289 0.452444 20 0.494631C16.1711 0.452444 10.382 0.964944 8.30703 1.37979C4.90078 2.04072 1.60781 5.15244 0.855469 8.54932C0.427344 10.6118 0.00625 13.4181 0 17.2485C0.00625 21.079 0.427344 23.8845 0.855469 25.947C1.60781 29.3439 4.90078 32.4556 8.30703 33.1165C9.42734 33.3407 11.6305 33.5931 14.0234 33.7712C14.2945 34.197 14.5883 34.6501 14.9063 35.1306C16.1758 37.0532 17.1477 38.3931 17.8836 39.3267C19.1086 40.8806 20.8922 40.8806 22.1172 39.3267C22.8531 38.3931 23.8242 37.0532 25.0945 35.1306C25.4125 34.6493 25.7055 34.197 25.9773 33.7712C28.3703 33.5931 30.5734 33.3407 31.6945 33.1165C35.1008 32.4556 38.3938 29.3439 39.1461 25.947C39.5742 23.8845 39.9953 21.079 40.0016 17.2485C39.9953 13.4181 39.5742 10.6126 39.1461 8.5501L39.1445 8.54932ZM22.2086 28.8618C22.1242 29.3376 21.693 29.7689 21.2172 29.8532C20.9289 29.9009 20.5359 29.9462 19.9992 29.947C19.4633 29.947 19.0703 29.9017 18.7813 29.8532C18.3055 29.7689 17.8742 29.3376 17.7898 28.8618C17.7422 28.5735 17.6969 28.1806 17.6961 27.6439C17.6961 27.1079 17.7414 26.7149 17.7898 26.4259C17.8742 25.9501 18.3055 25.5189 18.7813 25.4345C19.0695 25.3868 19.4625 25.3415 19.9992 25.3407C20.5352 25.3407 20.9281 25.386 21.2172 25.4345C21.693 25.5189 22.1242 25.9501 22.2086 26.4259C22.2563 26.7142 22.3016 27.1071 22.3023 27.6439C22.3023 28.1798 22.257 28.5728 22.2086 28.8618ZM26.9648 16.0657C26.3617 16.9188 25.4578 17.6978 24.1203 18.5157C22.4273 19.5595 22.1563 19.9884 22.1563 20.8282V21.1603C22.1563 22.3509 21.1875 23.3196 19.9969 23.3196C18.8063 23.3196 17.8375 22.3509 17.8375 21.1603V20.3907C17.8375 19.4001 18.0852 18.5595 18.5945 17.8212C19.0883 17.1056 19.8281 16.4696 20.9258 15.8173C22.9484 14.6274 23.3188 13.9595 23.3188 13.0728C23.3188 11.9587 22.3695 11.2384 20.9016 11.2384C19.2922 11.2384 18.2445 11.9696 17.7875 13.4126C17.4859 14.3642 16.6047 15.0032 15.5953 15.0032C15.5391 15.0032 15.4828 15.0009 15.4266 14.997C14.7141 14.9454 14.0758 14.5759 13.6758 13.9829C13.2797 13.3962 13.1758 12.6751 13.3906 12.004C13.8828 10.4696 14.8266 9.19307 16.1195 8.31182C17.4289 7.41963 19.0828 6.94854 20.9008 6.94854C22.7188 6.94854 24.5414 7.55088 25.8352 8.64463C27.1664 9.77041 27.9 11.322 27.9 13.0149C27.9 14.1774 27.5945 15.1759 26.9648 16.0657Z" fill="black"/>
</g>
<defs>
<clipPath id="clip0_86_636">
<rect width="40" height="40" fill="white" transform="translate(0 0.492188)"/>
</clipPath>
</defs>
</svg>
