<svg width="60" height="60" viewBox="0 0 60 60" fill="none" xmlns="http://www.w3.org/2000/svg">
<g clip-path="url(#clip0_195_683)">
<path d="M51.7007 28.5608C49.4188 26.2857 45.7228 26.2587 43.4079 28.4807V9.5961C43.4079 6.33591 40.7506 3.68362 37.484 3.68362C36.5392 3.68362 35.6451 3.90564 34.8518 4.30023C34.1469 1.82098 31.8581 0 29.1518 0C26.445 0 24.1562 1.82098 23.4512 4.30023C22.6579 3.90564 21.7639 3.68362 20.8191 3.68362C18.1123 3.68362 15.824 5.50461 15.119 7.98386C14.3253 7.58926 13.4312 7.36725 12.4864 7.36725C9.21982 7.36771 6.5625 10.02 6.5625 13.2802V52.6501C6.5625 56.7027 9.86664 60 13.9275 60H36.0429C40.1042 60 43.4079 56.7027 43.4079 52.6501V45.1955L51.7007 36.926C52.8209 35.809 53.4375 34.3236 53.4375 32.7434C53.4375 31.1636 52.8209 29.6777 51.7007 28.5608ZM49.2183 34.4366L40.7483 42.8828C40.1962 43.4331 39.8923 44.1655 39.8923 44.9446V52.6501C39.8923 54.7646 38.1656 56.4844 36.0429 56.4844H13.9275C11.8048 56.4844 10.0781 54.7646 10.0781 52.6501V13.2802C10.0781 11.9586 11.1584 10.8833 12.4864 10.8833C13.8149 10.8833 14.8952 11.9586 14.8952 13.2802V31.1531C14.8952 32.1236 15.6821 32.9109 16.653 32.9109C17.6234 32.9109 18.4108 32.1236 18.4108 31.1531V9.5961C18.4108 8.27454 19.4911 7.19925 20.8191 7.19925C22.1471 7.19925 23.2274 8.27454 23.2274 9.5961V27.469C23.2274 28.4399 24.0147 29.2268 24.9852 29.2268C25.9561 29.2268 26.743 28.4399 26.743 27.469V5.91248C26.743 4.59091 27.8238 3.51562 29.1518 3.51562C30.4797 3.51562 31.5601 4.59091 31.5601 5.91248V27.469C31.5601 28.4399 32.347 29.2268 33.3179 29.2268C34.2888 29.2268 35.0757 28.4399 35.0757 27.469V9.5961C35.0757 8.27454 36.156 7.19925 37.484 7.19925C38.812 7.19925 39.8923 8.27454 39.8923 9.5961V29.9249C39.8923 31.106 40.5981 32.162 41.6899 32.6152C42.7835 33.0688 44.0318 32.8226 44.87 31.9867L45.8089 31.0506C46.7487 30.1131 48.278 30.1131 49.2183 31.0506C49.6719 31.5028 49.9223 32.1043 49.9223 32.7434C49.9219 33.3829 49.6719 33.9839 49.2183 34.4366Z" fill="black"/>
<path d="M31.8262 40.6416H17.9706C16.7497 40.6416 15.7568 41.6349 15.7568 42.8553V49.3029C15.7568 50.5233 16.7497 51.5167 17.9706 51.5167H31.8262C33.047 51.5167 34.0404 50.5233 34.0404 49.3029V42.8553C34.0404 41.6345 33.047 40.6416 31.8262 40.6416ZM30.5247 48.0006H19.2725V44.1572H30.5247V48.0006Z" fill="black"/>
</g>
<defs>
<clipPath id="clip0_195_683">
<rect width="60" height="60" fill="white"/>
</clipPath>
</defs>
</svg>
