<svg width="60" height="61" viewBox="0 0 60 61" fill="none" xmlns="http://www.w3.org/2000/svg">
<g clip-path="url(#clip0_343_587)">
<path d="M59.8342 14.5626L59.8265 14.5401C59.5536 13.7734 58.975 13.1375 58.2398 12.7951L58.184 12.769L43.7658 7.24385V4.24322C43.7658 2.36181 42.236 0.831055 40.3555 0.831055H19.6454C17.7649 0.831055 16.2346 2.36181 16.2346 4.24322V7.24385L1.87369 12.7471L1.76474 12.7933C1.01446 13.1403 0.432648 13.7844 0.168519 14.5612C-0.103392 15.3508 -0.0447983 16.1904 0.333771 16.9269L5.00158 26.1472C5.66167 27.4678 7.16725 28.1174 8.57533 27.6939L11.51 26.8233V57.796C11.51 59.4696 12.8719 60.8309 14.5459 60.8309H45.455C47.1272 60.8309 48.4872 59.4705 48.4872 57.7973V26.8228L51.4187 27.6917C52.8259 28.1155 54.3301 27.4692 54.9952 26.1554L59.6713 16.9214C60.0439 16.1853 60.1016 15.3476 59.8342 14.5626ZM19.7502 5.05575L28.2427 12.7507V16.0073L19.7502 7.7126V5.05575ZM30.0005 9.5995L24.2034 4.34667H35.7976L30.0005 9.5995ZM31.7583 12.7507L40.2507 5.05621V7.7126L31.7583 16.0073V12.7507ZM15.0252 57.3153V51.9307H44.972V57.3153H15.0252ZM52.0399 24.209L47.7951 22.9511C47.1336 22.7547 46.4085 22.8838 45.8551 23.2967C45.3021 23.7096 44.9716 24.3683 44.9716 25.0586V48.415H15.0252V25.0586C15.0252 24.3683 14.6952 23.7096 14.1417 23.2967C13.5888 22.8838 12.8632 22.7547 12.2022 22.9506L7.96056 24.209L3.70794 15.8091L17.5699 10.4972L28.2427 20.9213V29.5639C28.2427 30.5348 29.0295 31.3217 30.0005 31.3217C30.9709 31.3217 31.7583 30.5348 31.7583 29.5639V20.9213L42.431 10.4972L56.2939 15.8095L52.0399 24.209Z" fill="black"/>
</g>
<defs>
<clipPath id="clip0_343_587">
<rect width="60" height="60" fill="white" transform="translate(0 0.831055)"/>
</clipPath>
</defs>
</svg>
