<svg width="30" height="31" viewBox="0 0 30 31" fill="none" xmlns="http://www.w3.org/2000/svg">
<g clip-path="url(#clip0_195_587)">
<path d="M27.3564 0.884521H2.64359C1.18584 0.884521 0 2.07036 0 3.52811V22.3816C0 23.8393 1.18584 25.0251 2.64359 25.0251H11.5407L9.90005 29.1267H8.73734C8.25188 29.1267 7.85843 29.5202 7.85843 30.0056C7.85843 30.4911 8.25188 30.8845 8.73734 30.8845H21.2473C21.7328 30.8845 22.1262 30.4911 22.1262 30.0056C22.1262 29.5202 21.7328 29.1267 21.2473 29.1267H20.0846L18.444 25.0251H27.3564C28.8142 25.0251 30 23.8393 30 22.3816V3.52811C30 2.07036 28.8142 0.884521 27.3564 0.884521ZM2.64359 2.64233H27.3564C27.8448 2.64233 28.2422 3.03967 28.2422 3.52811V11.6056H9.38438V10.2687H15.1456C16.0329 10.2687 16.7548 9.54701 16.7548 8.65964V5.34428C16.7548 4.45691 16.0329 3.73502 15.1456 3.73502H9.23561C8.34824 3.73502 7.62657 4.45691 7.62657 5.34428V11.6056H1.75781V3.52811C1.75781 3.03967 2.15515 2.64233 2.64359 2.64233ZM1.75781 13.3634H7.62657V15.4458H7.3336C6.84814 15.4458 6.4547 15.8394 6.4547 16.3247C6.4547 16.8101 6.84814 17.2036 7.3336 17.2036H9.67735C10.1626 17.2036 10.5563 16.8101 10.5563 16.3247C10.5563 15.8394 10.1626 15.4458 9.67735 15.4458H9.38438V13.3634H28.2422V19.158H1.75781V13.3634ZM9.38438 5.49283H14.997V8.51086H9.38438V5.49283ZM18.1913 29.1267H11.7934L13.434 25.0251H16.5507L18.1913 29.1267ZM27.3564 23.2673H2.64359C2.15515 23.2673 1.75781 22.87 1.75781 22.3816V20.9158H28.2422V22.3816C28.2422 22.87 27.8448 23.2673 27.3564 23.2673Z" fill="black"/>
<path d="M22.4189 15.4458H20.0752C19.5897 15.4458 19.1963 15.8395 19.1963 16.3247C19.1963 16.8102 19.5897 17.2036 20.0752 17.2036H22.4189C22.9044 17.2036 23.2979 16.8102 23.2979 16.3247C23.2979 15.8395 22.9044 15.4458 22.4189 15.4458Z" fill="black"/>
</g>
<defs>
<clipPath id="clip0_195_587">
<rect width="30" height="30" fill="white" transform="translate(0 0.884521)"/>
</clipPath>
</defs>
</svg>
