<svg width="30" height="30" viewBox="0 0 30 30" fill="none" xmlns="http://www.w3.org/2000/svg">
<g clip-path="url(#clip0_195_408)">
<path d="M10.4209 10.8163L11.7423 12.1479C11.9142 12.3209 12.1401 12.4077 12.3662 12.4077C12.5898 12.4077 12.8139 12.3228 12.9851 12.1527C13.3298 11.8108 13.3319 11.2541 12.9899 10.9097L11.6688 9.57825C11.3269 9.23355 10.7702 9.23149 10.4257 9.57344C10.0813 9.91516 10.0792 10.4718 10.4209 10.8163Z" fill="#FDF567"/>
<path d="M15.7113 11.7531C15.8829 11.9261 16.1088 12.0129 16.335 12.0129C16.5588 12.0129 16.7826 11.928 16.9541 11.7579C17.2985 11.4159 17.3008 10.8595 16.9589 10.5148L15.6376 9.1832C15.2956 8.83873 14.7392 8.83667 14.3945 9.17839C14.05 9.52034 14.048 10.0768 14.3897 10.4215L15.7113 11.7531Z" fill="#FDF567"/>
<path d="M15.3194 15.7533C15.4913 15.9263 15.7172 16.013 15.9434 16.013C16.1672 16.013 16.391 15.9281 16.5625 15.7581C16.9069 15.4161 16.9092 14.8597 16.5673 14.515L15.246 13.1834C14.904 12.8389 14.3476 12.8368 14.0029 13.1786C13.6584 13.5205 13.6564 14.0769 13.9981 14.4216L15.3194 15.7533Z" fill="#FDF567"/>
<path d="M27.1553 5.85938H29.1209C29.6064 5.85938 29.9998 5.46593 29.9998 4.98047C29.9998 4.49501 29.6064 4.10156 29.1209 4.10156H27.1553C26.6698 4.10156 26.2764 4.49501 26.2764 4.98047C26.2764 5.46593 26.6698 5.85938 27.1553 5.85938Z" fill="#FDF567"/>
<path d="M19.3002 24.1406H16.8279C18.1384 23.2876 19.2549 22.1606 20.0958 20.8413H26.7206C27.2058 20.8413 27.5995 20.4478 27.5995 19.9624C27.5995 19.4769 27.2058 19.0835 26.7206 19.0835H21.0031C21.0386 18.996 21.0732 18.9079 21.1063 18.8194C21.1089 18.8136 21.1111 18.8079 21.1137 18.8024L21.1127 18.802C21.457 17.8798 21.6799 16.899 21.7616 15.8789H25.1596C25.6448 15.8789 26.0385 15.4855 26.0385 15C26.0385 14.5145 25.6448 14.1211 25.1596 14.1211H21.7616C21.6714 12.9966 21.4098 11.9195 21.0031 10.9165H28.3273C28.8128 10.9165 29.2062 10.5228 29.2062 10.0376C29.2062 9.55215 28.8128 9.15871 28.3273 9.15871H20.0956C19.2549 7.83943 18.1384 6.71242 16.8279 5.85938H23.9877C24.473 5.85938 24.8666 5.46593 24.8666 4.98047C24.8666 4.49501 24.473 4.10156 23.9877 4.10156H10.8984C9.95178 4.10156 9.03282 4.22287 8.15643 4.45084L8.1562 4.44992C8.14087 4.45404 8.12553 4.45862 8.1102 4.46297C3.44719 5.69801 0 9.95407 0 15C0 21.0095 4.88892 25.8984 10.8984 25.8984H19.3002C19.7855 25.8984 20.1791 25.505 20.1791 25.0195C20.1791 24.5341 19.7855 24.1406 19.3002 24.1406ZM20.0391 15C20.0391 16.1098 19.8402 17.1741 19.4762 18.159C18.4325 20.4941 15.639 20.8727 13.4702 20.7772C11.2921 20.6811 9.35532 19.8335 7.86942 18.3259C6.41716 16.8523 5.52109 14.8272 5.34622 12.6237C5.09033 9.39743 6.38603 6.80923 8.57506 6.15852C9.31732 5.96329 10.096 5.85938 10.8984 5.85938C15.9386 5.85938 20.0391 9.95979 20.0391 15ZM1.75781 15C1.75781 12.7592 2.56828 10.7041 3.91159 9.1127C3.6058 10.2132 3.48976 11.4484 3.59413 12.7629C3.8015 15.3781 4.87518 17.7919 6.61766 19.5598C8.3947 21.3629 10.8009 22.419 13.393 22.5332C13.6194 22.5433 13.8419 22.5483 14.0604 22.5483C14.8766 22.5483 15.6381 22.4787 16.3396 22.3405C14.8183 23.4709 12.935 24.1406 10.8984 24.1406C5.85823 24.1406 1.75781 20.0402 1.75781 15Z" fill="#FDF567"/>
<path d="M29.1209 24.1406H22.4678C21.9823 24.1406 21.5889 24.5341 21.5889 25.0195C21.5889 25.505 21.9823 25.8984 22.4678 25.8984H29.1209C29.6064 25.8984 29.9998 25.505 29.9998 25.0195C29.9998 24.5341 29.6064 24.1406 29.1209 24.1406Z" fill="#FDF567"/>
<path d="M29.1209 14.1211H28.3271C27.8417 14.1211 27.4482 14.5145 27.4482 15C27.4482 15.4855 27.8417 15.8789 28.3271 15.8789H29.1209C29.6064 15.8789 29.9998 15.4855 29.9998 15C29.9998 14.5145 29.6064 14.1211 29.1209 14.1211Z" fill="#FDF567"/>
</g>
<defs>
<clipPath id="clip0_195_408">
<rect width="30" height="30" fill="white"/>
</clipPath>
</defs>
</svg>
