<svg width="25" height="26" viewBox="0 0 25 26" fill="none" xmlns="http://www.w3.org/2000/svg">
<g clip-path="url(#clip0_346_947)">
<path d="M12.4815 0.0138572C12.5312 0.0139625 12.5809 0.0140677 12.6321 0.0141761C13.3455 0.0166015 14.0453 0.0288523 14.7459 0.1756C14.7935 0.185301 14.8411 0.195002 14.8902 0.204997C17.2831 0.705562 19.4318 1.79634 21.1912 3.49591C21.2215 3.52516 21.2519 3.5544 21.2831 3.58453C21.6689 3.95874 22.0373 4.33673 22.3631 4.76544C22.3834 4.79183 22.4038 4.81821 22.4248 4.84539C23.621 6.40149 24.4262 8.18625 24.8198 10.1091C24.827 10.1442 24.8342 10.1793 24.8416 10.2154C24.9868 10.9794 25.018 11.735 25.0151 12.5108C25.015 12.5605 25.0149 12.6102 25.0148 12.6614C25.0123 13.3748 25.0001 14.0746 24.8533 14.7752C24.8388 14.8466 24.8388 14.8466 24.8239 14.9195C24.3234 17.3124 23.2326 19.4611 21.533 21.2205C21.5038 21.2508 21.4745 21.2812 21.4444 21.3124C21.0702 21.6982 20.6922 22.0666 20.2635 22.3924C20.2371 22.4127 20.2107 22.4331 20.1835 22.4541C18.4925 23.7539 16.5152 24.6118 14.4041 24.9315C14.3495 24.9401 14.2949 24.9488 14.2387 24.9577C13.7132 25.0331 13.1937 25.0457 12.6633 25.0445C12.5193 25.0444 12.3754 25.0455 12.2315 25.0468C11.5776 25.0489 10.9472 24.9903 10.3026 24.8826C10.247 24.8734 10.1915 24.8643 10.1343 24.8548C10.0076 24.832 9.88201 24.8067 9.75629 24.7789C9.68847 24.7639 9.68847 24.7639 9.61928 24.7486C7.41878 24.2369 5.42863 23.1274 3.80841 21.5623C3.76294 21.5185 3.76294 21.5185 3.71655 21.4737C3.33075 21.0995 2.96234 20.7215 2.63654 20.2928C2.61619 20.2664 2.59585 20.24 2.57488 20.2128C1.37868 18.6567 0.573457 16.872 0.179873 14.9492C0.172678 14.9141 0.165483 14.879 0.158069 14.8428C0.0128616 14.0788 -0.0183939 13.3233 -0.0154396 12.5474C-0.0153344 12.4977 -0.0152292 12.448 -0.0151208 12.3968C-0.0126954 11.6835 -0.000444606 10.9837 0.146304 10.283C0.156005 10.2354 0.165706 10.1878 0.175701 10.1388C0.784103 7.2303 2.34124 4.47864 4.73615 2.66583C4.76246 2.64556 4.78877 2.62528 4.81587 2.60439C6.37202 1.40806 8.15684 0.602777 10.0798 0.20917C10.1149 0.201975 10.15 0.19478 10.1861 0.187366C10.9501 0.0421585 11.7057 0.010903 12.4815 0.0138572ZM11.7704 4.88751C11.6259 5.10317 11.6147 5.30001 11.6137 5.55635C11.6134 5.6185 11.613 5.68065 11.6127 5.74469C11.6125 5.81346 11.6124 5.88223 11.6123 5.951C11.612 6.02352 11.6116 6.09604 11.6113 6.16855C11.6103 6.40657 11.6098 6.64458 11.6093 6.8826C11.6091 6.96464 11.6089 7.04667 11.6087 7.12871C11.6077 7.51414 11.607 7.89958 11.6066 8.28501C11.6062 8.72951 11.6049 9.174 11.6029 9.61849C11.6014 9.96235 11.6007 10.3062 11.6005 10.6501C11.6004 10.8553 11.6 11.0605 11.5988 11.2658C11.5976 11.459 11.5974 11.6521 11.5979 11.8453C11.598 11.916 11.5976 11.9867 11.597 12.0574C11.5928 12.5188 11.6117 12.8371 11.9288 13.1923C11.9909 13.2462 11.9909 13.2462 12.0543 13.3012C12.1018 13.3425 12.1493 13.3838 12.1983 13.4263C12.413 13.6056 12.6332 13.7779 12.8544 13.9491C13.048 14.0994 13.2378 14.2539 13.4276 14.409C13.6698 14.6068 13.9135 14.8025 14.16 14.9949C14.4065 15.1874 14.6501 15.3831 14.8924 15.5809C15.2471 15.8701 15.6048 16.1551 15.9666 16.4354C15.9938 16.4566 16.0211 16.4777 16.0491 16.4996C16.1282 16.5609 16.2076 16.6218 16.287 16.6826C16.3324 16.7174 16.3778 16.7522 16.4246 16.788C16.6621 16.9491 16.8512 17.0017 17.1385 16.9725C17.4385 16.8685 17.6187 16.7184 17.7771 16.4407C17.8256 16.3296 17.8382 16.251 17.8404 16.1302C17.8418 16.0957 17.8432 16.0612 17.8446 16.0257C17.7752 15.6329 17.5474 15.4105 17.2422 15.175C17.2053 15.1456 17.1684 15.1161 17.1304 15.0858C17.0197 14.9979 16.9083 14.9109 16.7967 14.824C16.737 14.777 16.6773 14.73 16.6176 14.6829C16.5349 14.6177 16.4521 14.5526 16.369 14.4878C16.1512 14.3179 15.9365 14.1443 15.7225 13.9695C15.453 13.7496 15.1813 13.5329 14.907 13.3188C14.6515 13.1188 14.3997 12.9143 14.1486 12.7087C14.1183 12.6839 14.088 12.6592 14.0568 12.6336C14.0283 12.6097 13.9998 12.5857 13.9704 12.561C13.8686 12.478 13.8686 12.478 13.7542 12.4139C13.5712 12.299 13.4485 12.2115 13.3874 11.9985C13.3725 11.822 13.3717 11.6502 13.3755 11.4731C13.3754 11.4058 13.3751 11.3385 13.3746 11.2711C13.3739 11.1266 13.3747 10.9823 13.3765 10.8378C13.3794 10.6091 13.3793 10.3806 13.3788 10.1519C13.3783 9.79022 13.3799 9.42855 13.3824 9.06685C13.3869 8.41931 13.3877 7.77176 13.3878 7.12421C13.3879 6.89713 13.3889 6.67008 13.3907 6.44301C13.3917 6.30157 13.3921 6.16013 13.3924 6.01868C13.3928 5.92224 13.394 5.82581 13.3952 5.72937C13.3953 5.34118 13.3757 5.08251 13.1193 4.77765C12.8952 4.58997 12.706 4.49076 12.4062 4.50452C12.1358 4.54917 11.9344 4.66848 11.7704 4.88751Z" fill="black"/>
</g>
<defs>
<clipPath id="clip0_346_947">
<rect width="25" height="25" fill="white" transform="translate(0 0.0291138)"/>
</clipPath>
</defs>
</svg>
