<svg width="50" height="50" viewBox="0 0 50 50" fill="none" xmlns="http://www.w3.org/2000/svg">
<path d="M25 50C38.8071 50 50 38.8071 50 25C50 11.1929 38.8071 0 25 0C11.1929 0 0 11.1929 0 25C0 38.8071 11.1929 50 25 50Z" fill="black"/>
<path d="M15.8826 26.5854L9.20807 22.3349C7.60777 21.3157 7.13595 19.1922 8.15518 17.5913L9.49565 15.4861C10.5857 13.7736 12.9454 13.4353 14.4731 14.7716L24.288 23.3559L23.3025 24.9202C21.7169 27.4352 18.39 28.1822 15.8826 26.5854Z" fill="#FDF567"/>
<path d="M37.0619 3.09661L21.8965 23.969L23.2575 24.9579L38.5139 3.9653L37.8011 3.52241L37.0619 3.09661Z" fill="#FDF567"/>
<path d="M36.1655 39.8397C36.1655 40.6752 33.099 41.3531 29.3162 41.3531C25.5333 41.3531 22.4668 40.6758 22.4668 39.8397C22.4668 39.0041 25.5333 38.3262 29.3162 38.3262C33.099 38.3268 36.1655 39.0041 36.1655 39.8397Z" fill="black" fill-opacity="0.09"/>
<path d="M29.3999 39.1357C32.3002 39.1357 34.6513 36.7845 34.6513 33.8843C34.6513 30.984 32.3002 28.6328 29.3999 28.6328C26.4996 28.6328 24.1484 30.984 24.1484 33.8843C24.1484 36.7845 26.4996 39.1357 29.3999 39.1357Z" fill="white"/>
<path d="M20.6123 7.73804L21.0546 9.03953C21.2347 9.56863 21.6498 9.98435 22.1789 10.1639L23.4804 10.6062L22.1789 11.0485C21.6498 11.2286 21.2341 11.6437 21.0546 12.1728L20.6123 13.4743L20.17 12.1728C19.9899 11.6437 19.5747 11.228 19.0456 11.0485L17.7441 10.6062L19.0456 10.1639C19.5747 9.98376 19.9904 9.56863 20.17 9.03953L20.6123 7.73804Z" fill="#FDF567"/>
<path d="M37.7353 17.4243L38.1776 18.7258C38.3577 19.2549 38.7729 19.6706 39.302 19.8501L40.6034 20.2924L39.302 20.7347C38.7729 20.9148 38.3571 21.33 38.1776 21.8591L37.7353 23.1606L37.293 21.8591C37.1129 21.33 36.6978 20.9143 36.1687 20.7347L34.8672 20.2924L36.1687 19.8501C36.6978 19.67 37.1135 19.2549 37.293 18.7258L37.7353 17.4243Z" fill="#FDF567"/>
<path d="M13.2392 30.8508L13.6815 32.1523C13.8616 32.6814 14.2768 33.0971 14.8059 33.2767L16.1073 33.719L14.8059 34.1613C14.2768 34.3414 13.861 34.7565 13.6815 35.2856L13.2392 36.5871L12.7969 35.2856C12.6168 34.7565 12.2017 34.3408 11.6726 34.1613L10.3711 33.719L11.6726 33.2767C12.2017 33.0966 12.6174 32.6814 12.7969 32.1523L13.2392 30.8508Z" fill="#FDF567"/>
</svg>
